<svg xmlns="http://www.w3.org/2000/svg" xmlns:xlink="http://www.w3.org/1999/xlink" width="125.258" height="129.895" viewBox="0 0 125.258 129.895">
  <defs>
    <clipPath id="clip-path">
      <rect id="Rectángulo_52702" data-name="Rectángulo 52702" width="27.347" height="27.347" transform="translate(0 0)" fill="none"/>
    </clipPath>
  </defs>
  <g id="Grupo_893213" data-name="Grupo 893213" transform="translate(8351.48 12193.968)">
    <g id="Grupo_166723" data-name="Grupo 166723" transform="translate(-8351.48 -12193.968)">
      <g id="Grupo_166724" data-name="Grupo 166724" transform="translate(0 0)">
        <path id="Trazado_257685" data-name="Trazado 257685" d="M40.3,122.9a66.934,66.934,0,0,1-14.01-15.641,61.348,61.348,0,0,1-9.557-38.44A62.54,62.54,0,0,1,66.68,12.329C83.159,9.045,98.585,12.021,112.821,21c.354.223.7.451,1.059.673a1.763,1.763,0,0,0,.3.078c2.033-2.035,4.105-4.163,6.25-6.214.444-.424,1.291-.91,1.709-.747.444.173.738,1.061.854,1.681.272,1.46.4,2.947.585,4.423.075.909.151,1.819.246,2.975l3.7-3.482a3.72,3.72,0,0,1,5.351,4.129l-3.619,4.636,7.737.74c1.625.642,1.761,1.239.575,2.483-.512.536-1.01,1.086-1.514,1.629l-4.774,5.124c.172.271.447.7.721,1.135a62.209,62.209,0,0,1,9.775,32.047c.027.937-.119,1.665-1.12,1.963-1.176-.256-1.117-1.171-1.144-2.077a59.83,59.83,0,0,0-9.236-30.48c-.237-.379-.516-.733-.941-1.333-1.223,1.3-2.359,2.464-3.435,3.678a2.327,2.327,0,0,1-2.37.764c-1.338-.226-2.7-.312-4.305-.484l.847,1.266c8.014,12,10.622,25.057,7.467,39.151-2.6,11.623-8.866,20.971-18.176,28.334-.443.35-1.08.848-1.09,1.288-.084,4.03-.05,8.062-.05,12.267.368-.183.569-.272.759-.38a59.61,59.61,0,0,0,17.07-14.442,60.388,60.388,0,0,0,10.639-19.8c.28-.873.612-1.578,1.7-1.447.846.622.684,1.391.4,2.247-4.67,14.226-13.136,25.625-25.838,33.561a59.051,59.051,0,0,0-11.5,9.35c-1.352,1.412-2.8,2.736-4.128,4.166a3.018,3.018,0,0,1-2.455.99c-7.634-.037-15.268-.027-22.9-.018q-8.726.01-17.452.049a11.01,11.01,0,0,1-2.7-.5,3.134,3.134,0,0,1-1.769-3.081c-.006-2.184-.031-4.368-.048-6.552-.168-.653-.119-1.619-.538-1.909-3-2.073-6.1-4.009-9.168-5.988m54.385,13.486c.021-1.582.052-3.164.061-4.746.016-3.111,1.11-4.227,4.181-4.232,2.314,0,4.628,0,7,0,.026-.368.055-.592.055-.816q0-29.277.015-58.554c0-1.215-.511-1.65-1.683-1.64-3.773.032-7.546.043-11.319-.01a2.887,2.887,0,0,0-2.308.968q-4.394,4.5-8.888,8.9a3.631,3.631,0,1,1-5.061-5.188c1.475-1.451,2.965-2.888,4.449-4.33L81,66.408H54.5c-2.129,0-2.209.083-2.209,2.209q0,33.05,0,66.1c0,.465.03.929.045,1.394-.13,2.49-.1,2.52,2.4,2.52H94.682Zm17.958-112.97c-19.253-11.781-39.01-13.583-59.419-4.2A59.854,59.854,0,0,0,18.838,76.462c1.276,22.187,12.107,38.655,31.047,50.167a3.2,3.2,0,0,0,.16-.526c.006-3.681-.021-7.363.029-11.044a2.081,2.081,0,0,0-.933-1.838c-15.334-12.39-22.054-28.359-18.9-47.885C35.992,29.682,77.59,12.218,107.267,32.8c.36.25.726.492,1.321.895-.186-1.751-.418-3.179-.454-4.612a2.858,2.858,0,0,1,.611-1.833c1.149-1.278,2.443-2.424,3.9-3.832M49.7,110.995l.355-.28c0-4.612.021-9.223-.028-13.834a3.08,3.08,0,0,0-.624-1.616,36.07,36.07,0,0,1-6.537-27.391C46.445,44.64,71.191,30.731,92.947,39.73c3.36,1.39,6.437,3.464,9.837,5.326,1.734-1.754,3.7-3.733,5.658-5.726a1.858,1.858,0,0,0-.243-3.055,46.637,46.637,0,0,0-28.184-10,45.135,45.135,0,0,0-26.678,7.685c-14.345,9.679-21.67,23.314-21.6,40.589.047,11.855,4.411,22.261,12.388,31.068,1.729,1.909,3.71,3.59,5.575,5.376m.355-19.01v-3.8q0-10.133,0-20.267c0-2.421,1.277-3.7,3.688-3.752a17.28,17.28,0,0,1,2.235.012A1.777,1.777,0,0,0,58,62.971a23.631,23.631,0,0,1,26.081-12.5,25.048,25.048,0,0,1,8.947,3.951l7.544-7.546C89.854,37.5,70.66,35.7,56.879,47.386a34.271,34.271,0,0,0-6.826,44.6m57.541-41.563c.19.288.282.446.391.59,10.294,13.667,10.577,30.5.774,44.42a3.087,3.087,0,0,0-.515,1.652c-.042,4.284-.025,8.568-.019,12.852,0,.3.049.592.078.917a2.008,2.008,0,0,0,.371-.124,4.1,4.1,0,0,0,.445-.336c14.775-12.917,20.219-28.973,16-48.163a43.524,43.524,0,0,0-8.544-17.55,1.79,1.79,0,0,0-2.847-.332c-2.031,1.983-4.038,3.992-6.138,6.074M60.127,64.058a2.014,2.014,0,0,0,.378.1q11.174.012,22.348.005a1.581,1.581,0,0,0,1.022-.3c2.546-2.507,5.058-5.049,7.586-7.589-10.269-7.977-26.353-3.66-31.334,7.788m48.092,27.928c8.623-13.055,6.089-30.682-2.179-39.5l-7.521,7.5a7.674,7.674,0,0,1,1.007,1.638c.735,2.211,2.2,2.749,4.44,2.6,3.132-.21,4.252,1.078,4.253,4.258,0,7.729,0,15.459,0,23.507M79.187,75.393a14.815,14.815,0,0,0,1.437-1.118q24.565-24.541,49.118-49.1c.746-.746,1.426-1.56.509-2.5-.954-.977-1.762-.223-2.47.525-.064.068-.131.132-.2.2Q103.229,47.759,78.875,72.116a3.475,3.475,0,0,0-.913,1.035,2,2,0,0,0,.019,1.417c.161.338.7.5,1.206.824m37.263-33.62c2.383.248,4.469.4,6.53.713a2.113,2.113,0,0,0,2.057-.742c2.838-2.892,5.72-5.741,8.581-8.61.309-.309.589-.647,1.061-1.169-2.433-.263-4.585-.56-6.747-.689a2.669,2.669,0,0,0-1.8.7c-2.977,2.883-5.888,5.835-8.815,8.771-.25.25-.459.54-.869,1.027M120.967,18.2c-.554.513-.9.808-1.214,1.126q-3.161,3.151-6.315,6.312c-3.358,3.359-3.354,3.359-2.573,8.1.09.548.1,1.109.176,1.66a9.6,9.6,0,0,0,.268,1.016c3.462-3.452,6.793-6.751,10.077-10.094a1.825,1.825,0,0,0,.272-1.284c-.185-2.167-.43-4.328-.69-6.838M103.992,129.65c-1.846,0-3.7-.08-5.546.052-.5.036-1.347.679-1.378,1.092-.146,1.958-.065,3.933-.065,5.838l6.989-6.982M98.449,64.127l-1.488-2.482L94.04,64.127Z" transform="translate(-16.519 -11.032)"/>
        <path id="Trazado_257688" data-name="Trazado 257688" d="M80.171,310.491c3.068,1.979,6.165,3.915,9.168,5.988.419.29.37,1.256.538,1.909-1.455-.957-2.954-1.854-4.352-2.888-1.516-1.121-2.963-2.341-4.385-3.581a6.663,6.663,0,0,1-.969-1.428" transform="translate(-56.393 -198.624)" fill="#e0e0e3"/>
        <path id="Trazado_257690" data-name="Trazado 257690" d="M112.335,228.936c-.016-.465-.045-.929-.045-1.394q0-33.05,0-66.1c0-2.127.081-2.209,2.21-2.209q12.577,0,25.154,0h1.341l.18.326c-1.484,1.443-2.974,2.879-4.449,4.33a3.631,3.631,0,1,0,5.061,5.188q4.5-4.394,8.888-8.9a2.888,2.888,0,0,1,2.308-.968c3.773.053,7.546.042,11.319.01,1.171-.01,1.684.424,1.683,1.64q-.027,29.277-.015,58.554c0,.224-.029.448-.055.816-2.368,0-4.683,0-7,0-3.071.005-4.165,1.121-4.181,4.232-.008,1.582-.04,3.164-.06,4.746q-20.22,0-40.44-.018a14.106,14.106,0,0,1-1.9-.254m26.818-53.165a19.3,19.3,0,1,0,19.272,19.269,19.292,19.292,0,0,0-19.272-19.269" transform="translate(-76.513 -103.856)" fill="#b0c0d2"/>
        <path id="Trazado_257691" data-name="Trazado 257691" d="M116.37,27.083c-1.454,1.408-2.748,2.555-3.9,3.832a2.859,2.859,0,0,0-.611,1.833c.036,1.434.268,2.863.454,4.613-.595-.4-.96-.645-1.321-.9C81.319,15.886,39.721,33.35,33.967,69c-3.151,19.526,3.569,35.5,18.9,47.884a2.082,2.082,0,0,1,.933,1.838c-.05,3.681-.024,7.363-.029,11.044a3.2,3.2,0,0,1-.16.526c-18.94-11.512-29.771-27.98-31.047-50.167A59.855,59.855,0,0,1,56.951,22.882C77.36,13.5,97.117,15.3,116.37,27.083" transform="translate(-20.249 -14.7)" fill="#b55a72"/>
        <path id="Trazado_257692" data-name="Trazado 257692" d="M75.212,136.542c-1.865-1.786-3.846-3.467-5.575-5.376C61.66,122.36,57.3,111.953,57.249,100.1c-.069-17.275,7.256-30.911,21.6-40.589a45.138,45.138,0,0,1,26.679-7.685,46.636,46.636,0,0,1,28.184,10,1.858,1.858,0,0,1,.243,3.056C132,66.87,130.033,68.85,128.3,70.6c-3.4-1.863-6.476-3.936-9.837-5.326-21.756-9-46.5,4.911-50.084,28.143a36.067,36.067,0,0,0,6.537,27.391,3.077,3.077,0,0,1,.624,1.616c.049,4.611.028,9.223.028,13.834l-.354.28" transform="translate(-42.034 -36.579)" fill="#a3314f"/>
        <path id="Trazado_257693" data-name="Trazado 257693" d="M292.464,138.071q-.153.869-.307,1.738c-1.09-.131-1.422.574-1.7,1.447a60.39,60.39,0,0,1-10.639,19.8,59.6,59.6,0,0,1-17.07,14.442c-.19.108-.391.2-.759.379,0-4.2-.035-8.237.05-12.267.009-.44.647-.938,1.089-1.288,9.311-7.362,15.575-16.711,18.177-28.333,3.155-14.094.547-27.155-7.467-39.151l-.847-1.266c1.6.173,2.967.258,4.305.485a2.327,2.327,0,0,0,2.369-.764c1.075-1.215,2.212-2.375,3.435-3.678.426.6.7.954.941,1.333a59.832,59.832,0,0,1,9.236,30.48c.027.906-.033,1.821,1.144,2.077q0,.982,0,1.963c-1.068.167-1.207.965-1.325,1.845-.4,2.992-.888,5.974-1.23,8.972-.064.566.388,1.191.6,1.788" transform="translate(-170.286 -60.258)" fill="#b55a72"/>
        <path id="Trazado_257694" data-name="Trazado 257694" d="M97.3,139.256a34.271,34.271,0,0,1,6.826-44.6c13.781-11.69,32.975-9.891,43.691-.514l-7.544,7.545a25.047,25.047,0,0,0-8.947-3.951,23.63,23.63,0,0,0-26.081,12.5,1.777,1.777,0,0,1-2.018,1.209,17.347,17.347,0,0,0-2.235-.012c-2.411.056-3.684,1.331-3.688,3.752q-.018,10.134,0,20.268v3.8" transform="translate(-63.765 -58.304)" fill="#b55a72"/>
        <path id="Trazado_257695" data-name="Trazado 257695" d="M260.318,105.343c2.1-2.081,4.107-4.091,6.138-6.073a1.79,1.79,0,0,1,2.847.332,43.518,43.518,0,0,1,8.544,17.55c4.215,19.19-1.229,35.245-16,48.162a4.076,4.076,0,0,1-.445.336,1.985,1.985,0,0,1-.371.124c-.029-.325-.078-.62-.078-.917,0-4.284-.022-8.568.019-12.852a3.089,3.089,0,0,1,.515-1.651c9.8-13.926,9.521-30.754-.774-44.42-.109-.145-.2-.3-.391-.59" transform="translate(-169.244 -65.954)" fill="#a3314f"/>
        <path id="Trazado_257696" data-name="Trazado 257696" d="M133.254,133.078c4.981-11.448,21.066-15.765,31.334-7.788-2.528,2.54-5.04,5.082-7.586,7.589a1.581,1.581,0,0,1-1.022.3q-11.174.017-22.348-.005a2.02,2.02,0,0,1-.378-.1" transform="translate(-89.646 -80.052)" fill="#a3314f"/>
        <path id="Trazado_257697" data-name="Trazado 257697" d="M245.727,161.5c0-8.048,0-15.777,0-23.507,0-3.18-1.121-4.467-4.253-4.258-2.235.149-3.7-.389-4.439-2.6a7.676,7.676,0,0,0-1.007-1.638l7.521-7.5c8.268,8.821,10.8,26.448,2.179,39.5" transform="translate(-154.027 -80.542)" fill="#b55a72"/>
        <path id="Trazado_257698" data-name="Trazado 257698" d="M182.02,94.147c-.509-.328-1.045-.487-1.206-.824a2,2,0,0,1-.019-1.418,3.482,3.482,0,0,1,.913-1.035q24.353-24.358,48.709-48.713c.066-.066.133-.131.2-.2.708-.747,1.517-1.5,2.47-.524.917.94.237,1.754-.51,2.5q-24.562,24.544-49.117,49.095a14.906,14.906,0,0,1-1.437,1.119" transform="translate(-119.353 -29.786)" fill="#727997"/>
        <path id="Trazado_257699" data-name="Trazado 257699" d="M112.345,345.863a14.112,14.112,0,0,0,1.9.254q20.22.026,40.44.018v2.248H114.743c-2.5,0-2.529-.031-2.4-2.52" transform="translate(-76.522 -220.783)" fill="#e2e2e2"/>
        <path id="Trazado_257700" data-name="Trazado 257700" d="M284.025,75.716c.409-.486.619-.776.869-1.027,2.927-2.935,5.838-5.888,8.815-8.771a2.67,2.67,0,0,1,1.8-.7c2.162.128,4.314.425,6.747.688-.472.522-.753.859-1.061,1.169-2.862,2.869-5.744,5.717-8.581,8.609a2.112,2.112,0,0,1-2.058.742c-2.061-.316-4.147-.465-6.53-.713" transform="translate(-184.095 -44.976)" fill="#b0c0d2"/>
        <path id="Trazado_257701" data-name="Trazado 257701" d="M278.461,30.226c.26,2.51.505,4.672.69,6.838a1.828,1.828,0,0,1-.272,1.284c-3.284,3.344-6.615,6.642-10.077,10.094a9.736,9.736,0,0,1-.268-1.016c-.077-.551-.086-1.112-.176-1.661-.781-4.743-.785-4.743,2.573-8.1q3.156-3.158,6.315-6.312c.319-.318.66-.613,1.214-1.126" transform="translate(-174.014 -23.056)" fill="#b0c0d2"/>
        <path id="Trazado_257702" data-name="Trazado 257702" d="M238.92,328.523l-6.989,6.982c0-1.906-.081-3.88.065-5.838.031-.413.873-1.056,1.378-1.092,1.842-.132,3.7-.052,5.546-.052" transform="translate(-151.447 -209.905)" fill="#e2e2e2"/>
        <path id="Trazado_257703" data-name="Trazado 257703" d="M228.446,149h-4.409l2.921-2.482L228.446,149" transform="translate(-146.516 -95.906)" fill="#a3314f"/>
        <path id="Trazado_257704" data-name="Trazado 257704" d="M342.563,198.193c-.214-.6-.666-1.222-.6-1.788.342-3,.83-5.98,1.23-8.972.118-.88.257-1.678,1.325-1.845.326.584.981,1.2.925,1.746-.32,3.074-.8,6.131-1.251,9.19-.136.92-.447,1.736-1.628,1.669" transform="translate(-220.385 -120.38)"/>
        <path id="Trazado_257705" data-name="Trazado 257705" d="M151.806,203.543a19.3,19.3,0,1,1-19.32,19.221,19.292,19.292,0,0,1,19.32-19.221m.024,2.248a17.052,17.052,0,1,0,17.006,17.116,17.082,17.082,0,0,0-17.006-17.116" transform="translate(-89.166 -131.628)"/>
        <path id="Trazado_257706" data-name="Trazado 257706" d="M155.591,209.562a17.052,17.052,0,1,1-17.1,17.019,17.086,17.086,0,0,1,17.1-17.019m-2.8,22.687c-2.044-2.068-3.941-3.981-5.83-5.9-.608-.618-1.288-1.09-2.019-.3-.688.741-.133,1.353.424,1.909,2.076,2.071,4.141,4.153,6.219,6.221,1.249,1.244,1.69,1.21,2.742-.2q4.916-6.606,9.822-13.219c.194-.261.524-.524.535-.8.019-.5.007-1.212-.293-1.439a1.622,1.622,0,0,0-1.439.153,4.844,4.844,0,0,0-1.032,1.3l-9.128,12.283" transform="translate(-92.926 -135.399)" fill="#e2e2e2"/>
        <path id="Trazado_257707" data-name="Trazado 257707" d="M163.08,247.073l9.128-12.283a4.844,4.844,0,0,1,1.032-1.3,1.622,1.622,0,0,1,1.439-.153c.3.227.312.943.293,1.439-.01.272-.341.535-.535.8q-4.909,6.611-9.822,13.219c-1.052,1.414-1.492,1.448-2.742.2-2.078-2.069-4.143-4.151-6.219-6.221-.556-.555-1.112-1.168-.424-1.909.731-.787,1.412-.316,2.019.3,1.888,1.921,3.785,3.833,5.83,5.9" transform="translate(-103.213 -150.223)" fill="#e2e2e2"/>
      </g>
    </g>
    <g id="Grupo_166725" data-name="Grupo 166725" transform="translate(-8300.246 -12117.437)">
      <g id="Grupo_166721" data-name="Grupo 166721" transform="translate(0 0)" clip-path="url(#clip-path)">
        <path id="Trazado_257654" data-name="Trazado 257654" d="M31.175,161.983l.153-.578c.08.094.161.186.24.281a7,7,0,0,0,9.505,1.2,7.245,7.245,0,0,0,2.327-2.874l.578.025a.292.292,0,0,0,.276.262c.745.145,1.5.278,2.226.48a6.244,6.244,0,0,1,1.07.518.652.652,0,0,1-.78.539,9.339,9.339,0,0,0-1.088-.008c-.281,0-.359.07-.319.349a2.818,2.818,0,0,0,.18.632.492.492,0,0,1-.24.627,2.891,2.891,0,0,0-.413.178.791.791,0,0,0-.306.293c-.291.653-.555,1.319-.839,1.976-.094.217-.054.342.172.434q1.006.409,2,.841a.28.28,0,0,0,.435-.177c.185-.459.361-.923.579-1.366A1.415,1.415,0,0,0,47,164.1a.263.263,0,0,1,.209-.385c.147-.028.295-.051.461-.079.092.269.19.533.272.8a4.65,4.65,0,0,1,.414,1.845.383.383,0,0,0,.051.23c.09.14.033.244-.042.361-.336.53-.664,1.066-1,1.6a1.545,1.545,0,0,1-1.924.692c-.571-.186-1.134-.4-1.712-.561a.406.406,0,0,1-.351-.5c.026-.406.006-.814.007-1.221,0-.156-.073-.283-.228-.252-.08.016-.144.16-.194.256-.025.049,0,.122,0,.184,0,1.948.013,3.9-.01,5.843a1.1,1.1,0,0,0,.431,1.032.366.366,0,0,1,.145.47c-.229,0-.459.005-.687,0a.229.229,0,0,1-.173-.079,4.175,4.175,0,0,1-.556-1.445,8.812,8.812,0,0,0-.266-1.941c-.432-1.39-.96-2.751-1.449-4.124-.048-.134-.12-.25-.291-.186s-.168.181-.114.326c.123.331.241.664.359,1s.237.676.363,1.035a6.7,6.7,0,0,1-2.562-.143c-1.065-.284-2.111-.642-3.161-.979a.4.4,0,0,0-.472.1c-.927.938-1.863,1.867-2.793,2.8a.574.574,0,0,0-.167.261c-.151.754-.288,1.511-.431,2.266a.29.29,0,0,0,.164.35c.234.124.459.266.693.39.156.082.226.183.14.36H30.7c-.1-.2-.185-.4-.3-.59a1.657,1.657,0,0,1-.223-.935c.018-.717,0-1.434.011-2.151a.95.95,0,0,1,.123-.445c.5-.862,1.03-1.712,1.53-2.577a.846.846,0,0,0,.1-.52,29.954,29.954,0,0,1-.566-4.924c0-.1-.13-.193-.2-.29" transform="translate(-28.035 -148.562)" fill="#b0c0d2"/>
        <path id="Trazado_257655" data-name="Trazado 257655" d="M25.6,142.86c.069.1.2.193.2.29a29.971,29.971,0,0,0,.566,4.924.846.846,0,0,1-.1.519c-.5.865-1.025,1.715-1.53,2.577a.95.95,0,0,0-.123.445c-.012.717.007,1.434-.011,2.151a1.657,1.657,0,0,0,.223.935c.114.188.2.393.3.59h1.419c.086-.177.015-.278-.14-.36-.234-.124-.459-.266-.693-.39a.29.29,0,0,1-.164-.35c.143-.755.28-1.512.431-2.266a.575.575,0,0,1,.167-.261c.93-.936,1.866-1.865,2.793-2.8a.4.4,0,0,1,.472-.1c1.05.337,2.1.7,3.161.979a6.692,6.692,0,0,0,2.562.143c-.126-.359-.243-.7-.363-1.035s-.236-.666-.359-1c-.054-.145-.047-.266.114-.326s.243.052.291.186c.49,1.372,1.017,2.733,1.449,4.124a8.807,8.807,0,0,1,.266,1.941,4.175,4.175,0,0,0,.556,1.445c.021.045.113.077.173.079.229.009.458,0,.687,0a.366.366,0,0,0-.145-.47,1.1,1.1,0,0,1-.431-1.032c.023-1.947.01-3.9.01-5.843,0-.062-.021-.135,0-.184.05-.1.114-.24.194-.256.155-.032.228.1.228.252,0,.407.02.816-.007,1.221a.406.406,0,0,0,.351.5c.577.163,1.141.375,1.712.561a1.545,1.545,0,0,0,1.924-.692c.337-.53.665-1.065,1-1.6.074-.117.131-.221.042-.361a.383.383,0,0,1-.051-.23,4.65,4.65,0,0,0-.414-1.845c-.081-.269-.18-.532-.272-.8-.166.028-.314.051-.461.079a.263.263,0,0,0-.209.385,1.415,1.415,0,0,1-.066,1.512c-.218.443-.394.907-.579,1.366a.28.28,0,0,1-.435.176q-1-.432-2-.841c-.226-.092-.266-.217-.172-.434.284-.657.548-1.322.839-1.975a.791.791,0,0,1,.306-.293,2.893,2.893,0,0,1,.413-.178.492.492,0,0,0,.24-.627,2.825,2.825,0,0,1-.18-.632c-.039-.279.038-.348.319-.349a9.361,9.361,0,0,1,1.088.008.652.652,0,0,0,.78-.539,6.26,6.26,0,0,0-1.07-.518c-.73-.2-1.48-.335-2.226-.48a.292.292,0,0,1-.277-.263c.081-.212.252-.187.42-.154.631.123,1.261.25,1.892.376l.069.016-.01-.064c-.132-.436-.277-.869-.387-1.31-.025-.1.07-.232.11-.349a1.18,1.18,0,0,1,.337.141,4.2,4.2,0,0,1,.582.581,2.334,2.334,0,0,0,1.844.747c.422.033.851-.015,1.274.011a5.194,5.194,0,0,0,1.775-.241.781.781,0,0,0,.308-.187c.32-.306.622-.63.946-.932.077-.071.242-.14.31-.1a.388.388,0,0,1,.12.311,2.94,2.94,0,0,1-1.573,2.453c.153.434.236.5.663.5.39,0,.779,0,1.169,0,.307,0,.374.076.343.382a1.689,1.689,0,0,1-1.906,1.5c-.13-.019-.26-.042-.409-.065-.22.662-.448,1.319-.652,1.984a2.006,2.006,0,0,0-.023.528.824.824,0,0,1-.89.9c-.248,0-.5,0-.744,0h-.786c-.307.491-.639,1.055-1.007,1.593a8.436,8.436,0,0,1-.648.724.421.421,0,0,0-.121.235c-.008,1.2-.011,2.408,0,3.612a.5.5,0,0,0,.2.34,1,1,0,0,1,.393,1.023c-.019.182-.092.276-.281.274-.345,0-.691-.008-1.036,0a.36.36,0,0,1-.348-.221,6.742,6.742,0,0,1-.833-2.6c-.129-.829-.3-1.652-.441-2.48a.309.309,0,0,0-.251-.284c-.33-.092-.652-.211-1.013-.33v.3c0,1.257.008,2.514-.007,3.771a.616.616,0,0,0,.26.59c.4.258.364.654.328,1.039a.332.332,0,0,1-.246.2,8.885,8.885,0,0,1-1.088,0,.407.407,0,0,1-.283-.179,6.685,6.685,0,0,1-.538-1.09,4.171,4.171,0,0,1-.168-1.042,8.839,8.839,0,0,0-.8-3.094c-.587,0-1.188.023-1.786-.008-.4-.021-.8-.121-1.2-.178a.341.341,0,0,0-.217.027c-.293.193-.577.4-.893.619.11.612.225,1.263.343,1.914.079.435.152.871.249,1.3a.462.462,0,0,0,.2.264,8.009,8.009,0,0,0,.8.406.368.368,0,0,1,.243.39c-.006.74.044.683-.669.68-.4,0-.8-.01-1.195,0a.412.412,0,0,1-.412-.251,12.3,12.3,0,0,1-1.1-3.136c-.13-.466-.255-.933-.386-1.411-.563,0-1.111,0-1.658.005a.374.374,0,0,0-.222.112c-.293.282-.584.568-.863.864a.635.635,0,0,0-.149.3c-.117.58-.215,1.164-.335,1.744a.3.3,0,0,0,.192.39c.185.082.349.21.533.293a.43.43,0,0,1,.268.462c-.009.628,0,.628-.618.628-.434,0-.868.014-1.3-.009a.464.464,0,0,1-.326-.194c-.195-.335-.359-.688-.523-1.04a.75.75,0,0,1-.065-.3c0-.9-.008-1.806,0-2.709a.89.89,0,0,1,.127-.418c.51-.868,1.036-1.727,1.544-2.6a.633.633,0,0,0,.073-.39,29.23,29.23,0,0,1-.548-4.845c0-.172.009-.323.22-.357m21.828-2.548a4.032,4.032,0,0,0-.366.336,1.284,1.284,0,0,1-.85.48,3.38,3.38,0,0,0-.472.127l.4.608a2.373,2.373,0,0,0,1.3-1.539.368.368,0,0,0,.03-.036s-.011-.012-.017-.018l-.026.041m-2.2,5.993c.365-1.094.726-2.172,1.078-3.253a.326.326,0,0,0-.052-.239c-.292-.452-.589-.9-.9-1.343a.358.358,0,0,0-.248-.136c-.619-.011-1.238-.011-1.856,0a.327.327,0,0,0-.23.121q-.468.674-.911,1.366a.354.354,0,0,0-.04.264q.5,1.534,1.021,3.061a.271.271,0,0,0,.194.153c.636.012,1.272.007,1.942.007m-4.814,1.3c.266-.629.523-1.237.777-1.846a.2.2,0,0,0,.008-.152,1.3,1.3,0,0,1-.014-1.416c.1-.167-.024-.346-.2-.433a.352.352,0,0,0-.469.12.694.694,0,0,0-.113.237.88.88,0,0,1-.694.676c-.112.028-.266.088-.306.177-.279.614-.534,1.239-.8,1.872l1.817.765m.563,2.991-1.455-.137a.564.564,0,0,0,0,.134c.147.808.309,1.614.441,2.425a5.283,5.283,0,0,0,.666,2.1c.046.072.124.166.194.172.244.021.491.008.83.008-.1-.189-.131-.359-.234-.438a1.169,1.169,0,0,1-.452-1.108c.038-.6.009-1.2.009-1.8Zm-8.426,4.7c.018-.257.019-.258-.168-.353-.244-.124-.484-.258-.736-.364a.463.463,0,0,1-.3-.392c-.106-.627-.222-1.252-.336-1.877-.088-.484-.179-.967-.267-1.439l-1.044.08c.119.441.231.875.354,1.3a11.126,11.126,0,0,0,.973,2.844c.051.083.153.185.236.189.423.019.847.009,1.29.009m-.931-5.349c-.613-.206-1.2-.364-1.746-.6a.786.786,0,0,0-1.085.25,9.779,9.779,0,0,1-.878.893c.816,0,1.566.017,2.314-.006a2.266,2.266,0,0,0,1.4-.54m13.541-3.216H43.345a1.16,1.16,0,0,0-.146.021c0,.124-.009.237,0,.349a.373.373,0,0,0,.385.389c.406.007.813.007,1.219,0a.341.341,0,0,0,.356-.325,3.84,3.84,0,0,0,0-.433m1.259-2.651a1.228,1.228,0,0,0,1.7-.943H46.74l-.317.943m-4.184-2.226.429-.65a2.227,2.227,0,0,1-1.734-.907,2.366,2.366,0,0,0,1.3,1.557m-.285,2.238c-.1-.3-.181-.572-.279-.843a.2.2,0,0,0-.14-.117c-.428-.009-.855-.005-1.314-.005l.1.317a.851.851,0,0,1,.9-.055.954.954,0,0,1,.445.769l.291-.066" transform="translate(-22.46 -129.439)" fill="#050608"/>
        <path id="Trazado_257656" data-name="Trazado 257656" d="M40.265,31.66a7.244,7.244,0,0,1-2.327,2.874,7,7,0,0,1-9.505-1.2c-.079-.095-.16-.187-.24-.281a7.685,7.685,0,0,1-1.251-2.838A7.013,7.013,0,1,1,40.7,27.5a6.788,6.788,0,0,1-.321,3.834c-.04.107-.079.215-.118.323m-13.027-2.81A6.587,6.587,0,1,0,33.86,22.27a6.594,6.594,0,0,0-6.622,6.581" transform="translate(-24.9 -20.211)" fill="#050608"/>
        <path id="Trazado_257657" data-name="Trazado 257657" d="M12.815,176.13a1.921,1.921,0,0,1,.827-1.669.639.639,0,0,0,.28-.419,3.716,3.716,0,0,0-.135-2.266,3.984,3.984,0,0,1-.178-2.547,4.393,4.393,0,0,1,.408-.853c.071-.134.213-.2.325-.079a.335.335,0,0,1,.015.317,3,3,0,0,0-.234,2.8,4.617,4.617,0,0,1,.159,2.935.519.519,0,0,0,.028.277,1.851,1.851,0,0,1-.471,1.953c-.135.14-.27.281-.414.412-.164.15-.329.124-.4-.077-.1-.291-.165-.592-.216-.782m1.091-1.325a1.35,1.35,0,0,0-.566,1.614,1.383,1.383,0,0,0,.566-1.614" transform="translate(-11.905 -156.2)" fill="#060707"/>
        <path id="Trazado_257658" data-name="Trazado 257658" d="M280.441,105.494a2.788,2.788,0,0,1,1.867.737c.112.1.215.21.085.358s-.245.069-.365-.032a2.31,2.31,0,0,0-3.2.007c-.114.095-.223.161-.345.035-.137-.142-.05-.253.064-.358a2.779,2.779,0,0,1,1.891-.747" transform="translate(-258.654 -97.914)" fill="#090909"/>
        <path id="Trazado_257659" data-name="Trazado 257659" d="M288.857,117.477a1.917,1.917,0,0,1,1.293.512c.112.1.176.235.048.336a.327.327,0,0,1-.317-.016,1.5,1.5,0,0,0-2.049,0c-.109.107-.257.142-.338,0a.337.337,0,0,1,.06-.311,1.833,1.833,0,0,1,1.3-.526" transform="translate(-267.074 -109.047)" fill="#070707"/>
        <path id="Trazado_257660" data-name="Trazado 257660" d="M296.839,128.367a6.594,6.594,0,0,1,.718.366c.059.039.034.207.047.316-.1,0-.237.049-.3,0a.681.681,0,0,0-.918.008c-.061.046-.2-.008-.3-.015.012-.1-.013-.261.043-.3a7.242,7.242,0,0,1,.712-.378" transform="translate(-275.069 -119.164)" fill="#0a0a0a"/>
        <path id="Trazado_257661" data-name="Trazado 257661" d="M304.3,140.061c.1.158.191.247.185.329s-.14.192-.195.181a.3.3,0,0,1-.2-.2c-.007-.075.1-.161.211-.307" transform="translate(-282.502 -130.028)" fill="#101010"/>
        <path id="Trazado_257662" data-name="Trazado 257662" d="M279.371,171.162c-.67,0-1.306,0-1.942-.007a.271.271,0,0,1-.194-.153q-.522-1.526-1.021-3.061a.354.354,0,0,1,.04-.264q.443-.691.911-1.366a.328.328,0,0,1,.23-.121c.619-.01,1.238-.011,1.856,0a.358.358,0,0,1,.248.136c.309.441.606.891.9,1.343a.326.326,0,0,1,.052.239c-.352,1.081-.714,2.159-1.078,3.253" transform="translate(-256.599 -154.295)" fill="#b0c0d2"/>
        <path id="Trazado_257663" data-name="Trazado 257663" d="M229.23,203.679l-1.817-.765c.267-.632.521-1.257.8-1.872.04-.088.194-.149.306-.177a.88.88,0,0,0,.694-.676.694.694,0,0,1,.114-.237.352.352,0,0,1,.469-.12c.18.088.3.267.2.433a1.3,1.3,0,0,0,.014,1.416.2.2,0,0,1-.008.152c-.254.61-.512,1.218-.777,1.847" transform="translate(-211.272 -185.515)" fill="#ffb500"/>
        <path id="Trazado_257664" data-name="Trazado 257664" d="M241.838,294.964v1.353c0,.6.029,1.205-.009,1.8a1.169,1.169,0,0,0,.452,1.108c.1.079.137.249.234.438-.34,0-.587.013-.83-.008-.07-.006-.148-.1-.194-.172a5.282,5.282,0,0,1-.666-2.1c-.132-.811-.294-1.616-.441-2.425a.569.569,0,0,1,0-.134l1.455.137" transform="translate(-223.318 -273.809)" fill="#727997"/>
        <path id="Trazado_257665" data-name="Trazado 257665" d="M104.888,305.118c-.443,0-.867.01-1.29-.009-.083,0-.185-.106-.236-.189a11.122,11.122,0,0,1-.973-2.844c-.123-.429-.235-.863-.354-1.3l1.044-.08c.088.473.179.956.267,1.439.114.625.23,1.251.336,1.877a.463.463,0,0,0,.3.392c.252.105.492.24.736.364.187.095.186.1.168.353" transform="translate(-94.793 -279.259)" fill="#727997"/>
        <path id="Trazado_257666" data-name="Trazado 257666" d="M80.552,278.383a2.267,2.267,0,0,1-1.4.54c-.748.023-1.5.006-2.314.006a9.766,9.766,0,0,0,.878-.893.786.786,0,0,1,1.085-.25c.551.233,1.133.392,1.746.6" transform="translate(-71.389 -257.873)" fill="#727997"/>
        <path id="Trazado_257667" data-name="Trazado 257667" d="M294.117,242.366a3.831,3.831,0,0,1,0,.433.341.341,0,0,1-.356.325c-.406.009-.813.008-1.219,0a.373.373,0,0,1-.385-.389c-.011-.112,0-.225,0-.349a1.179,1.179,0,0,1,.146-.021h1.819" transform="translate(-271.413 -225.072)" fill="#727997"/>
        <path id="Trazado_257668" data-name="Trazado 257668" d="M337.616,192.682l.317-.943h1.38a1.228,1.228,0,0,1-1.7.943" transform="translate(-313.653 -178.038)" fill="#727997"/>
        <path id="Trazado_257669" data-name="Trazado 257669" d="M261.59,153.291a2.366,2.366,0,0,1-1.3-1.557,2.227,2.227,0,0,0,1.734.907l-.43.65" transform="translate(-241.811 -140.872)" fill="#727997"/>
        <path id="Trazado_257670" data-name="Trazado 257670" d="M329.692,151.919a2.374,2.374,0,0,1-1.3,1.538l-.4-.608a3.377,3.377,0,0,1,.472-.127,1.284,1.284,0,0,0,.85-.48,4.023,4.023,0,0,1,.366-.336Z" transform="translate(-304.711 -141.032)" fill="#727997"/>
        <path id="Trazado_257671" data-name="Trazado 257671" d="M251.952,192.558l-.291.066a.954.954,0,0,0-.445-.769.851.851,0,0,0-.9.055l-.1-.317c.459,0,.887,0,1.314.005a.2.2,0,0,1,.14.117c.1.271.183.547.279.843" transform="translate(-232.458 -177.901)" fill="#727997"/>
        <path id="Trazado_257672" data-name="Trazado 257672" d="M257.255,162.812l.01.064-.069-.016.059-.048" transform="translate(-238.941 -151.164)" fill="#fdfdfd"/>
        <path id="Trazado_257673" data-name="Trazado 257673" d="M351.768,151.364l.026-.041c.006.006.018.017.017.018a.406.406,0,0,1-.03.036l-.013-.013" transform="translate(-326.8 -140.491)" fill="#3865f6"/>
        <path id="Trazado_257674" data-name="Trazado 257674" d="M32.949,34.289A6.587,6.587,0,1,1,39.5,40.882a6.6,6.6,0,0,1-6.554-6.594m6.584,4.894c1.018,0,2.036,0,3.054,0,.244,0,.353-.077.353-.336q-.009-2.961,0-5.922c0-.235-.084-.326-.323-.342a1.69,1.69,0,0,1-1.592-1.7c0-.416,0-.832,0-1.248a1.487,1.487,0,1,0-2.974-.006c-.005.425,0,.85,0,1.275a1.688,1.688,0,0,1-1.586,1.683c-.258.017-.33.123-.329.364.006,1.956,0,3.913,0,5.869,0,.326.039.364.37.364h3.027" transform="translate(-30.61 -25.649)" fill="#ced371"/>
        <path id="Trazado_257675" data-name="Trazado 257675" d="M19.643,260.826a1.383,1.383,0,0,1-.566,1.614,1.35,1.35,0,0,1,.566-1.614" transform="translate(-17.643 -242.221)" fill="#727997"/>
        <path id="Trazado_257676" data-name="Trazado 257676" d="M81.2,44.738H78.173c-.331,0-.37-.038-.37-.364,0-1.956,0-3.913,0-5.869,0-.241.071-.347.329-.364a1.688,1.688,0,0,0,1.586-1.683c.007-.425,0-.85,0-1.275a1.487,1.487,0,1,1,2.974.006c0,.416,0,.832,0,1.248a1.69,1.69,0,0,0,1.592,1.7c.239.016.324.107.323.342q-.008,2.961,0,5.922c0,.259-.108.338-.353.336-1.018-.008-2.036,0-3.054,0m-1.045-8.473a2.2,2.2,0,0,1-1.912,2.32V44.3h5.924V38.584a2.208,2.208,0,0,1-1.92-2.339,1.546,1.546,0,0,1-2.091.019m2.11-1.1a1.062,1.062,0,1,0-1.052,1.071,1.065,1.065,0,0,0,1.052-1.071" transform="translate(-72.278 -31.204)" fill="#020202"/>
        <path id="Trazado_257677" data-name="Trazado 257677" d="M85.956,69.752a1.546,1.546,0,0,0,2.092-.019,2.208,2.208,0,0,0,1.92,2.339v5.712H84.044V72.072a2.2,2.2,0,0,0,1.912-2.32m2.961,5.7c0-.344.006-.689,0-1.033a.419.419,0,0,0-.45-.447q-.4-.011-.795,0a.416.416,0,0,0-.451.445q-.01,1.033,0,2.067a.422.422,0,0,0,.463.461c.247.006.495,0,.742,0a.434.434,0,0,0,.493-.486c0-.336,0-.671,0-1.007m-2.125.005c0-.344.006-.689,0-1.033a.419.419,0,0,0-.445-.452c-.265-.008-.53-.007-.795,0a.422.422,0,0,0-.457.466q-.008,1.02,0,2.04a.423.423,0,0,0,.458.466c.256.007.512.006.768,0a.43.43,0,0,0,.472-.48c.005-.336,0-.671,0-1.007m.217-2.337c.6,0,1.2,0,1.805,0,.154,0,.3-.016.307-.205,0-.208-.153-.222-.317-.222q-1.805,0-3.611,0c-.154,0-.3.016-.307.205,0,.209.153.223.316.222.6,0,1.2,0,1.805,0" transform="translate(-78.079 -64.692)" fill="#ffb500"/>
        <path id="Trazado_257678" data-name="Trazado 257678" d="M112.909,40.723a1.062,1.062,0,1,1-1.072-1.053,1.063,1.063,0,0,1,1.072,1.053m-.426.047a.636.636,0,1,0-.679.6.644.644,0,0,0,.679-.6" transform="translate(-102.922 -36.763)" fill="#ffb500"/>
        <path id="Trazado_257679" data-name="Trazado 257679" d="M130.417,130.932c0,.336,0,.671,0,1.007a.434.434,0,0,1-.493.486c-.247,0-.495.006-.742,0a.422.422,0,0,1-.463-.461q-.008-1.033,0-2.067a.416.416,0,0,1,.451-.445q.4-.011.795,0a.419.419,0,0,1,.45.447c.008.344,0,.689,0,1.033m-1.26,1.052h.82v-2.1h-.82Z" transform="translate(-119.579 -120.166)" fill="#020200"/>
        <path id="Trazado_257680" data-name="Trazado 257680" d="M100.479,130.936c0,.336,0,.671,0,1.007a.43.43,0,0,1-.472.48c-.256.006-.512.006-.768,0a.422.422,0,0,1-.458-.466q-.008-1.02,0-2.04a.422.422,0,0,1,.457-.466c.265-.007.53-.007.795,0a.419.419,0,0,1,.445.452c.007.344,0,.689,0,1.033m-1.255,1.043h.811v-2.094h-.811Z" transform="translate(-91.765 -120.165)" fill="#020200"/>
        <path id="Trazado_257681" data-name="Trazado 257681" d="M98.042,111.942c-.6,0-1.2,0-1.805,0-.163,0-.321-.014-.316-.222,0-.19.154-.205.307-.205q1.805,0,3.611,0c.163,0,.321.014.317.222,0,.189-.154.206-.307.205-.6,0-1.2,0-1.805,0" transform="translate(-89.112 -103.509)" fill="#010100"/>
        <path id="Trazado_257682" data-name="Trazado 257682" d="M118.059,46.345a.636.636,0,1,1-.6-.673.643.643,0,0,1,.6.673M117.414,46c-.094.15-.192.239-.188.321s.147.195.2.181a.326.326,0,0,0,.2-.215c.011-.064-.1-.149-.207-.287" transform="translate(-108.498 -42.338)" fill="#050401"/>
        <rect id="Rectángulo_52700" data-name="Rectángulo 52700" width="0.82" height="2.101" transform="translate(9.578 9.717)" fill="#ffb500"/>
        <rect id="Rectángulo_52701" data-name="Rectángulo 52701" width="0.811" height="2.094" transform="translate(7.458 9.719)" fill="#ffb500"/>
        <path id="Trazado_257683" data-name="Trazado 257683" d="M123.161,50.332c.106.139.218.224.207.287a.326.326,0,0,1-.2.215c-.049.014-.192-.112-.2-.181s.093-.171.188-.321" transform="translate(-114.245 -46.668)" fill="#7a96ed"/>
      </g>
    </g>
  </g>
</svg>
