<svg xmlns="http://www.w3.org/2000/svg" width="132.533" height="132.539" viewBox="0 0 132.533 132.539">
  <g id="Grupo_168347" data-name="Grupo 168347" transform="translate(-0.782 -0.764)">
    <g id="Grupo_168348" data-name="Grupo 168348" transform="translate(0.782 0.764)">
      <path id="Trazado_261134" data-name="Trazado 261134" d="M25.633,190.223A4.548,4.548,0,0,1,24.051,186c.1-1.978.024-3.964.024-6.129H22.692q-9.253,0-18.506,0c-2.528,0-3.4-.888-3.4-3.447q0-7.831,0-15.661c0-9.553,5.514-16.491,14.82-18.664,2.549-.6,5.094-1.209,7.608-1.807.03-.244.043-.372.061-.5a4.338,4.338,0,0,0-1.9-4.44,15.64,15.64,0,0,1-6.054-12.482,99,99,0,0,1,.289-13.044c1.03-8.861,10.445-15.485,19.226-13.96a17.542,17.542,0,0,1,9.8,5.061c.147.149.318.274.556.476a22.9,22.9,0,0,1,8.4-11.98A21.671,21.671,0,0,1,67.349,85c10.271.286,18.166,6.274,21.6,16.362.38-.354.7-.656,1.021-.948,4.993-4.5,10.778-5.945,17.136-3.823,6.451,2.154,10.525,6.782,11.415,13.563a52.823,52.823,0,0,1-.175,15.977,14.956,14.956,0,0,1-5.954,9.529,3.276,3.276,0,0,0-1.57,3.424,9.141,9.141,0,0,1,.007,1.183c2.54.607,5.069,1.244,7.613,1.813,5.251,1.173,9.519,3.832,12.217,8.539a42.611,42.611,0,0,1,2.4,6.215,5.32,5.32,0,0,0,.258.512v20.97c-1.114,1.465-2.654,1.6-4.355,1.578-5.906-.063-11.813-.024-17.72-.024H110c0,2.428-.045,4.671.015,6.912a3.23,3.23,0,0,1-2.063,3.443H76.885L75.3,187.635c.5-1.984,1.24-2.582,3.256-2.588,3.148-.01,6.3,0,9.445,0h2.6c0-3.744-.011-7.319,0-10.894.008-1.886,1.039-3.078,2.6-3.067,1.537.01,2.565,1.221,2.575,3.1.016,3.192,0,6.384.007,9.576,0,.412.034.825.052,1.216h8.935c0-4.315.211-8.572-.045-12.8a18.608,18.608,0,0,0-14.177-17.105c-3.955-1.034-7.954-1.9-11.922-2.888-.851-.212-1.187.07-1.519.836-2.446,5.648-4.954,11.27-7.415,16.912-.517,1.187-1.194,2.134-2.6,2.156-1.476.023-2.179-.951-2.714-2.186-1.935-4.463-3.908-8.909-5.869-13.36-.672-1.525-1.351-3.048-2.05-4.625-4.532,1.108-9.009,2.02-13.373,3.312-7.761,2.3-12.46,7.583-13.541,15.6-.544,4.029-.219,8.175-.284,12.268-.01.629,0,1.258,0,1.863h9.062c0-3.628-.009-7.162,0-10.7.007-1.96,1.055-3.2,2.632-3.171,1.553.03,2.533,1.215,2.541,3.123.013,3.192,0,6.384,0,9.576v1.2c.286.037.371.058.456.058q5.111.005,10.222.007c2.25,0,2.88.467,3.53,2.586a3.266,3.266,0,0,1-2.046,2.592ZM49.67,115.158a72.311,72.311,0,0,0,.051,8.418,17.507,17.507,0,0,0,34.654.349c.4-2.882.179-5.847.3-8.771a1.553,1.553,0,0,0-.917-1.622c-2.845-1.612-5.674-3.254-8.454-4.974a1.375,1.375,0,0,0-1.979.216,23.886,23.886,0,0,1-15.936,6.375c-2.58.06-5.162.01-7.713.01M84.706,108.1c-.269-7.159-3.195-12.53-9.277-15.77-6.669-3.553-13.282-2.957-19.266,1.683-5.157,4-7.079,9.507-6.643,15.984,2.507,0,4.878.024,7.249,0A19.293,19.293,0,0,0,71.226,103.6c1.689-1.816,2.551-1.917,4.74-.632l8.741,5.133m43.381,66.542c0-5.283.158-10.455-.048-15.613a11.86,11.86,0,0,0-6.191-10.144c-3.626-2.123-7.85-2.3-11.786-3.487-1.742,4.168-3.439,8.167-5.057,12.2a2.163,2.163,0,0,0,.286,1.477c1.162,2.386,2.685,4.648,3.491,7.143a62.789,62.789,0,0,1,1.563,8.411h7.437v-1.314c0-3.233-.015-6.466.006-9.7.012-1.829.991-2.94,2.537-2.963,1.606-.024,2.6,1.1,2.632,3,.014.862,0,1.724,0,2.586v8.4Zm-104.01.007a24.76,24.76,0,0,1,4.928-15.961A1.583,1.583,0,0,0,29,157.419c-.819-2.08-1.7-4.135-2.565-6.2l-2.417-5.791c-2.682.635-5.244,1.2-7.785,1.852-5.191,1.331-8.638,4.5-9.907,9.782a17.851,17.851,0,0,0-.349,3.98c-.04,4.515-.015,9.03-.015,13.58h5.176c0-3.721-.015-7.377.006-11.034.011-1.821,1.01-2.929,2.562-2.94s2.578,1.1,2.6,2.9c.028,2.156.007,4.312.007,6.469v4.632Zm65.961-59.625A87.346,87.346,0,0,0,90.1,124.2a10.867,10.867,0,0,0,7.07,9.143,11.281,11.281,0,0,0,11.718-1.478c4.362-3.264,5.137-7.878,4.664-13.093-8.1.286-16.129.141-23.513-3.743m-45.725-.134c-7.632,4.048-15.714,4.139-23.827,3.89-.117,3.514-.174,6.787,1.7,9.724,2.562,4.017,6.243,6.062,10.974,5.71a11.3,11.3,0,0,0,10.354-7.876c1.344-3.622.537-7.412.8-11.447m69.257-1.347a11.9,11.9,0,0,0-10.317-12.566c-5.788-.773-11.828,3.222-12.772,8.434,7.125,4.413,15.022,4.506,23.089,4.132m-69.88-4.18A11.852,11.852,0,0,0,29.575,101.2c-6.076,1.527-9.633,7.336-8.962,12.355,7.977.36,15.875.279,23.078-4.187m29.815,33.661a23.781,23.781,0,0,1-12.9.007c-.076,2.935-.188,5.644,1.2,8.3,1.67,3.194,2.961,6.584,4.419,9.889.233.527.476,1.05.8,1.773.279-.589.465-.962.633-1.341,1.582-3.579,3.01-7.235,4.79-10.712,1.31-2.558.983-5.15,1.05-7.912M55.393,144.56a14.631,14.631,0,0,1,.013-1.891c.2-1.386-.419-2.164-1.493-3.05a58.4,58.4,0,0,1-5.468-5.416,15.2,15.2,0,0,1-1.573-2.466c-1.219,1.279-2.2,2.747-3.566,3.633a4.015,4.015,0,0,0-1.879,4.435c.018.127.034.254.054.412,4.564,1.413,9.458,1.752,13.911,4.342M92.672,140.2c0-.822.039-1.555-.015-2.281a2.121,2.121,0,0,0-.346-1.269c-1.675-1.619-3.418-3.169-5.162-4.764a23.347,23.347,0,0,1-8.038,8.615,1.033,1.033,0,0,0-.4.719c-.044,1.049-.019,2.1-.019,3.342,4.429-2.583,9.316-2.937,13.983-4.363m-56.459-.9H28.5a9.228,9.228,0,0,0,.72,5.189c.693,1.33,1.185,2.765,1.767,4.154l1.254,2.994.343-.029c1.1-4.161,4.283-7.691,3.623-12.308m61.72,0c-.465,2.257.235,4.382,1.21,6.486.888,1.919,1.657,3.893,2.479,5.842l.333-.02c1.108-4.174,4.32-7.722,3.648-12.308Zm-4.54,6.081-9.679,2.386.014.237L95.8,151.184l-2.4-5.8m-43.033,2.6c.006-.072.013-.145.02-.217l-9.692-2.375-2.4,5.764,12.071-3.172" transform="translate(-0.782 -57.684)" fill="#020201"/>
      <path id="Trazado_261136" data-name="Trazado 261136" d="M200.162,398.842h-1.553l-1.626-2.586c.407-2.028,1.9-3.027,3.532-2.377a2.994,2.994,0,0,1,1.716,2.374,3.293,3.293,0,0,1-2.068,2.59" transform="translate(-133.377 -266.303)" fill="#060404"/>
      <path id="Trazado_261139" data-name="Trazado 261139" d="M202.338,37.142c0,1.076.033,2.154-.009,3.229a2.581,2.581,0,1,1-5.155.015q-.072-3.227,0-6.457a2.64,2.64,0,0,1,2.633-2.764,2.687,2.687,0,0,1,2.53,2.749c0,.086,0,.172,0,.258q0,1.485,0,2.971" transform="translate(-133.483 -21.308)" fill="#020202"/>
      <path id="Trazado_261140" data-name="Trazado 261140" d="M237.191,17.656a10.475,10.475,0,0,1,1.968,1.6,2,2,0,0,1-.135,2.629c-1.459,1.579-2.969,3.123-4.576,4.549a2.332,2.332,0,0,1-3.183-.229,2.376,2.376,0,0,1-.27-3.272c1.39-1.58,2.915-3.046,4.445-4.5a6.652,6.652,0,0,1,1.751-.785" transform="translate(-156.002 -12.18)" fill="#040404"/>
      <path id="Trazado_261141" data-name="Trazado 261141" d="M154.267,17.918a11.751,11.751,0,0,1,2.1,1.173c1.213,1.091,2.355,2.264,3.481,3.447,1.2,1.259,1.256,2.709.221,3.79a2.608,2.608,0,0,1-3.885-.158c-1.212-1.157-2.4-2.342-3.545-3.565a2.3,2.3,0,0,1-.456-2.944,9.627,9.627,0,0,1,2.085-1.742" transform="translate(-102.861 -12.357)" fill="#040404"/>
      <path id="Trazado_261142" data-name="Trazado 261142" d="M59.6,25.274a10.9,10.9,0,0,1-.118,1.412,2.523,2.523,0,0,1-2.383,2,2.373,2.373,0,0,1-2.5-1.814,8.914,8.914,0,0,1-.128-2.809A2.507,2.507,0,0,1,57.144,21.8a2.593,2.593,0,0,1,2.413,2.568c.022.3,0,.6,0,.9l.039,0" transform="translate(-37.028 -14.975)" fill="#050505"/>
      <path id="Trazado_261143" data-name="Trazado 261143" d="M59.51,63.692c0,2.859-1.311,4.173-3.258,3.653-1.391-.372-1.961-1.447-1.925-3.632.028-1.7.724-2.761,2.014-3.068a2.546,2.546,0,0,1,3.1,2.009,5.912,5.912,0,0,1,.074,1.038" transform="translate(-36.967 -41.185)" fill="#050505"/>
      <path id="Trazado_261144" data-name="Trazado 261144" d="M35.622,48.936a6.474,6.474,0,0,1-1.938-.551,3.2,3.2,0,0,1-1.182-1.57,2.129,2.129,0,0,1,1-2.672,4.663,4.663,0,0,1,4.564-.032,2.284,2.284,0,0,1,1.124,2.655c-.251,1.409-1.395,2.055-3.571,2.171" transform="translate(-22.128 -29.666)" fill="#040404"/>
      <path id="Trazado_261145" data-name="Trazado 261145" d="M321.012,43.836c2.274,0,3.441.858,3.464,2.554.023,1.777-1.184,2.647-3.647,2.628-2.093-.016-3.256-.99-3.2-2.683.049-1.641,1.209-2.5,3.389-2.5" transform="translate(-214.907 -29.873)" fill="#040404"/>
      <path id="Trazado_261146" data-name="Trazado 261146" d="M344.864,25.281a7.8,7.8,0,0,1-.28,1.769,2.376,2.376,0,0,1-2.55,1.584,2.233,2.233,0,0,1-2.213-1.833,9.086,9.086,0,0,1-.082-2.807,2.5,2.5,0,0,1,2.548-2.254,2.617,2.617,0,0,1,2.484,2.5c.029.342,0,.689,0,1.033l.088.009" transform="translate(-229.806 -14.94)" fill="#060606"/>
      <path id="Trazado_261147" data-name="Trazado 261147" d="M344.871,64a11.189,11.189,0,0,1-.76,2.385,2.177,2.177,0,0,1-2.579.952c-1.422-.338-2.04-1.375-2.03-3.418q.014-2.854,2.047-3.31c1.858-.418,3.134.938,3.322,3.391" transform="translate(-229.694 -41.159)" fill="#060606"/>
      <path id="Trazado_261148" data-name="Trazado 261148" d="M74.565,48.962a9.365,9.365,0,0,1-1.032-.006,2.57,2.57,0,0,1,.074-5.138,11.323,11.323,0,0,1,1.807,0,2.576,2.576,0,0,1,.055,5.151c-.3.029-.6,0-.9,0v-.008" transform="translate(-48.29 -29.835)" fill="#050505"/>
      <path id="Trazado_261149" data-name="Trazado 261149" d="M359.7,49.057c-2.522-.06-3.892-1.5-3.248-3.454.45-1.368,1.53-1.866,3.864-1.784a2.669,2.669,0,0,1,2.8,2.008,2.481,2.481,0,0,1-1.763,3.009,11.169,11.169,0,0,1-1.652.221" transform="translate(-241.039 -29.855)" fill="#040404"/>
      <path id="Trazado_261150" data-name="Trazado 261150" d="M202.4,3.32a2.574,2.574,0,1,1-5.147-.029,2.574,2.574,0,0,1,5.147.029" transform="translate(-133.559 -0.764)" fill="#050505"/>
      <path id="Trazado_261151" data-name="Trazado 261151" d="M134.581,327.146l-5.665,0a2.994,2.994,0,0,0-1.716-2.374c-1.631-.649-3.125.349-3.532,2.377l-6.681,0c-.65-2.12-1.28-2.584-3.53-2.587q-5.111-.006-10.222-.007c-.085,0-.171-.021-.456-.058v-1.2c0-3.192.009-6.384,0-9.576-.008-1.908-.988-3.093-2.541-3.124-1.577-.031-2.626,1.211-2.632,3.172-.012,3.534,0,7.069,0,10.7H88.537c0-.6-.009-1.234,0-1.863.065-4.093-.26-8.239.284-12.268,1.081-8.013,5.78-13.3,13.541-15.6,4.364-1.292,8.84-2.2,13.373-3.312.7,1.577,1.378,3.1,2.049,4.625,1.961,4.451,3.934,8.9,5.869,13.36.535,1.234,1.238,2.208,2.714,2.185,1.41-.022,2.087-.969,2.6-2.155,2.461-5.642,4.969-11.264,7.415-16.913.332-.766.668-1.047,1.519-.836,3.968.987,7.967,1.855,11.922,2.889a18.608,18.608,0,0,1,14.177,17.105c.256,4.229.045,8.486.045,12.8h-8.935c-.018-.391-.051-.8-.052-1.216,0-3.192.009-6.384-.007-9.576-.01-1.878-1.038-3.089-2.575-3.1-1.557-.01-2.588,1.182-2.6,3.067-.015,3.575,0,7.15,0,10.895h-2.6c-3.148,0-6.3-.007-9.445,0-2.016.007-2.752.6-3.256,2.588" transform="translate(-60.063 -197.195)" fill="#fd5959"/>
      <path id="Trazado_261152" data-name="Trazado 261152" d="M151.359,163.614c2.551,0,5.133.05,7.713-.01a23.882,23.882,0,0,0,15.936-6.375,1.374,1.374,0,0,1,1.979-.216c2.78,1.72,5.61,3.361,8.454,4.973a1.554,1.554,0,0,1,.917,1.623c-.116,2.925.1,5.889-.3,8.772a17.507,17.507,0,0,1-34.654-.349,72.311,72.311,0,0,1-.051-8.418M168.367,181.2a7.477,7.477,0,0,0,5.095-1.855,2.56,2.56,0,0,0,.458-3.58,2.4,2.4,0,0,0-3.528-.487,2.6,2.6,0,0,1-3.5-.038,2.389,2.389,0,0,0-3.438.479,2.557,2.557,0,0,0,.388,3.579,6.952,6.952,0,0,0,4.523,1.9m11.542-12.676A2.621,2.621,0,0,0,177.346,166a2.665,2.665,0,0,0-2.551,2.566,2.59,2.59,0,0,0,2.651,2.564,2.54,2.54,0,0,0,2.462-2.6m-17.31.044a2.547,2.547,0,1,0-5.092.074,2.546,2.546,0,0,0,5.092-.074" transform="translate(-102.471 -106.14)" fill="#fccbaa"/>
      <path id="Trazado_261153" data-name="Trazado 261153" d="M186.187,118.633l-8.741-5.133c-2.189-1.286-3.051-1.185-4.74.632a19.3,19.3,0,0,1-14.455,6.394c-2.371.029-4.742,0-7.249,0-.436-6.477,1.485-11.985,6.643-15.984,5.984-4.64,12.6-5.236,19.266-1.683,6.082,3.24,9.007,8.611,9.277,15.769" transform="translate(-102.262 -68.217)" fill="#ffb500"/>
      <path id="Trazado_261154" data-name="Trazado 261154" d="M345.249,300.578h-5.126v-8.4c0-.862.011-1.724,0-2.586-.031-1.9-1.027-3.025-2.632-3-1.546.024-2.526,1.135-2.537,2.963-.021,3.233-.006,6.466-.006,9.7v1.313h-7.437a62.842,62.842,0,0,0-1.563-8.411c-.806-2.5-2.329-4.757-3.491-7.143a2.165,2.165,0,0,1-.286-1.477c1.618-4.03,3.315-8.028,5.057-12.2,3.936,1.188,8.16,1.363,11.786,3.487a11.859,11.859,0,0,1,6.191,10.144c.206,5.158.048,10.33.048,15.613" transform="translate(-217.943 -183.619)" fill="#ced371"/>
      <path id="Trazado_261155" data-name="Trazado 261155" d="M34.857,300.647H27.094v-4.632c0-2.156.021-4.313-.007-6.469-.024-1.8-1.047-2.911-2.6-2.9s-2.551,1.119-2.562,2.94c-.022,3.656-.006,7.313-.006,11.034H16.74c0-4.551-.025-9.066.016-13.581a17.826,17.826,0,0,1,.349-3.98c1.269-5.282,4.716-8.451,9.907-9.783,2.54-.651,5.1-1.217,7.785-1.852l2.417,5.791c.862,2.064,1.746,4.118,2.565,6.2a1.585,1.585,0,0,1,.007,1.271,24.755,24.755,0,0,0-4.928,15.961" transform="translate(-11.561 -183.681)" fill="#f3f9ff"/>
      <path id="Trazado_261156" data-name="Trazado 261156" d="M275.9,177.641c7.385,3.884,15.417,4.029,23.513,3.743.474,5.215-.3,9.829-4.664,13.093a11.283,11.283,0,0,1-11.718,1.478,10.868,10.868,0,0,1-7.07-9.144,87.34,87.34,0,0,1-.061-9.171" transform="translate(-186.646 -120.3)" fill="#fccbaa"/>
      <path id="Trazado_261157" data-name="Trazado 261157" d="M85.288,177.229c-.264,4.035.543,7.825-.8,11.448a11.3,11.3,0,0,1-10.354,7.876c-4.731.352-8.412-1.692-10.974-5.71-1.873-2.937-1.816-6.21-1.7-9.725,8.113.25,16.195.159,23.827-3.89" transform="translate(-41.756 -120.022)" fill="#fccbaa"/>
      <path id="Trazado_261158" data-name="Trazado 261158" d="M300.563,146.678c-8.067.373-15.964.281-23.089-4.132.944-5.212,6.984-9.207,12.772-8.434a11.9,11.9,0,0,1,10.317,12.566" transform="translate(-187.774 -90.817)" fill="#e2e2e2"/>
      <path id="Trazado_261159" data-name="Trazado 261159" d="M84.862,142.43c-7.2,4.466-15.1,4.547-23.079,4.187-.67-5.019,2.886-10.828,8.963-12.355a11.852,11.852,0,0,1,14.116,8.167" transform="translate(-41.953 -90.75)" fill="#e2e2e2"/>
      <path id="Trazado_261160" data-name="Trazado 261160" d="M198.145,264.013c-.067,2.762.26,5.354-1.05,7.912-1.78,3.477-3.209,7.134-4.79,10.712-.168.38-.354.752-.633,1.341-.328-.723-.571-1.246-.8-1.773-1.457-3.3-2.749-6.7-4.419-9.889-1.386-2.652-1.274-5.361-1.2-8.3a23.781,23.781,0,0,0,12.9-.007" transform="translate(-125.421 -178.672)" fill="#fcb285"/>
      <path id="Trazado_261163" data-name="Trazado 261163" d="M93.858,252.541c.66,4.617-2.521,8.147-3.623,12.308l-.343.029-1.254-2.994c-.582-1.389-1.074-2.823-1.767-4.154a9.225,9.225,0,0,1-.72-5.189Z" transform="translate(-58.428 -170.919)" fill="#fbb185"/>
      <path id="Trazado_261164" data-name="Trazado 261164" d="M300.152,252.541h7.669c.672,4.586-2.54,8.134-3.648,12.308l-.332.02c-.822-1.949-1.591-3.923-2.479-5.841-.974-2.1-1.674-4.23-1.209-6.487" transform="translate(-203.001 -170.919)" fill="#fbb185"/>
      <path id="Trazado_261165" data-name="Trazado 261165" d="M266.279,271.3l2.4,5.8-12.069-3.175c0-.079-.009-.158-.013-.237l9.679-2.386" transform="translate(-173.668 -183.596)" fill="#ced371"/>
      <path id="Trazado_261166" data-name="Trazado 261166" d="M128.552,273.911l-12.071,3.172,2.4-5.764,9.693,2.375c-.007.072-.013.145-.02.216" transform="translate(-78.973 -183.609)" fill="#f3f9ff"/>
      <path id="Trazado_261167" data-name="Trazado 261167" d="M192.64,218.8a6.95,6.95,0,0,1-4.523-1.9,2.557,2.557,0,0,1-.388-3.578,2.389,2.389,0,0,1,3.438-.479,2.6,2.6,0,0,0,3.5.038,2.4,2.4,0,0,1,3.528.487,2.56,2.56,0,0,1-.458,3.58,7.478,7.478,0,0,1-5.095,1.855" transform="translate(-126.745 -143.733)" fill="#050403"/>
      <path id="Trazado_261168" data-name="Trazado 261168" d="M228.99,187.941a2.54,2.54,0,0,1-2.462,2.6,2.59,2.59,0,0,1-2.651-2.564,2.665,2.665,0,0,1,2.551-2.566,2.621,2.621,0,0,1,2.562,2.528" transform="translate(-151.553 -125.552)" fill="#070504"/>
      <path id="Trazado_261169" data-name="Trazado 261169" d="M175.639,187.976a2.546,2.546,0,0,1-5.092.074,2.547,2.547,0,1,1,5.092-.074" transform="translate(-115.512 -125.543)" fill="#050403"/>
    </g>
  </g>
</svg>
