<svg xmlns="http://www.w3.org/2000/svg" width="112.067" height="115.972" viewBox="0 0 112.067 115.972">
  <g id="Grupo_893214" data-name="Grupo 893214" transform="translate(7612.8 7124.465)">
    <g id="Grupo_166750" data-name="Grupo 166750" transform="translate(-7612.8 -7124.465)">
      <g id="Grupo_166751" data-name="Grupo 166751" transform="translate(0 0)">
        <path id="Trazado_257871" data-name="Trazado 257871" d="M23.74,24.311c-1.292,0-2.454.017-3.614,0a1.948,1.948,0,0,1-2.175-2.153q-.033-3.622,0-7.244a1.954,1.954,0,0,1,2.142-2.188c.241-.008.483,0,.724,0H127.069c2.45,0,2.928.487,2.928,2.981,0,2.093.01,4.186,0,6.279-.01,1.639-.707,2.317-2.368,2.331-1.085.009-2.171,0-3.424,0V25.6q0,33.687,0,67.374c0,2.29-.536,2.82-2.85,2.82h-41.5v7.73c.612,0,1.208-.025,1.8.005a1.93,1.93,0,0,1,1.973,1.993,2.77,2.77,0,0,1,0,.483A22.513,22.513,0,0,0,86.4,119.311c1.057,2.019,1.851,4.179,2.729,6.29.744,1.788-.095,3.05-2.047,3.027-5.3-.062-3.866.72-6.928-3.483-2.053-2.818-4.06-5.669-6.177-8.631l-4.119,5.755c-1.263,1.765-2.454,3.59-3.828,5.265a3.7,3.7,0,0,1-2.111,1.059,16.751,16.751,0,0,1-3.132.041c-1.865-.031-2.711-1.275-1.984-2.992,1.641-3.878,3.35-7.726,4.961-11.617a8.052,8.052,0,0,0,.527-2.663c.081-1.727.022-3.46.024-5.191,0-2.059.589-2.644,2.652-2.651h1.142V95.794H26.518c-2.225,0-2.778-.551-2.778-2.768q0-33.627,0-67.254Zm3.9,67.546h92.624V24.383H27.64ZM21.856,20.392H126.073V16.639H21.856Zm46.356,90.793H79.7v-3.735H68.212Zm3.879-7.717h3.761v-7.62H72.09Zm-1.853,11.641a16.263,16.263,0,0,0-2.01.022,1.293,1.293,0,0,0-.911.494c-1.1,2.45-2.138,4.927-3.194,7.4l.3.195,5.815-8.108m13.275,8.126.306-.132-3.335-7.894H77.791l5.721,8.025" transform="translate(-17.934 -12.717)"/>
        <path id="Trazado_257872" data-name="Trazado 257872" d="M48.017,48.88h92.624v67.473H48.017Zm28.944,55.955c1.779,0,3.423.037,5.065-.017.718-.024,1,.225,1.285.889a7.5,7.5,0,0,0,7.209,4.911c2.534.061,5.071.03,7.606.008a7.751,7.751,0,0,0,7.786-6.963,7.467,7.467,0,0,0-6.4-8.294,50.764,50.764,0,0,0-10.35,0c-3.209.3-5.178,2.525-6.195,5.55H77.074c-.493-3.81-.493-3.81-4.409-3.81-.161,0-.323-.012-.483,0a6.415,6.415,0,0,1-4.305-1.262c-.233-.163-.543-.439-.548-.669-.044-1.914-.025-3.829-.025-5.8,1.237,0,2.32-.033,3.4.009a2.165,2.165,0,0,0,2.42-1.705c.333-1.115.783-2.2,1.094-3.316a.935.935,0,0,1,1.1-.8c1.972.036,3.946-.029,5.915.039A3.624,3.624,0,0,1,83,84.161c3.271,2.124,6.527,4.273,9.739,6.486a2.481,2.481,0,0,0,3.187.023c3.25-2.226,6.546-4.386,9.831-6.56a2.308,2.308,0,0,1,1.061-.5c1.989-.049,3.981-.024,6.083-.024-.329.988-.61,1.821-.883,2.656-.668,2.047.091,3.13,2.215,3.134q7.184.01,14.368,0c1.565,0,2.005-.327,2.525-1.87q1.751-5.194,3.485-10.393c.72-2.162-.048-3.189-2.377-3.193-1.671,0-3.342,0-4.985,0-.035-.257-.055-.336-.055-.414,0-2.938,0-5.876-.007-8.814-.01-3.833-2.418-6.221-6.28-6.226q-6.339-.008-12.678,0h-2.473c-1.522-4.211-4.5-5.989-8.8-5.811-2.129.088-4.266,0-6.4.019a7.751,7.751,0,0,0-7.783,6.965,7.459,7.459,0,0,0,6.4,8.29,50.8,50.8,0,0,0,10.349,0c3.212-.3,5.172-2.533,6.21-5.593,5.248,0,10.476-.016,15.7.014a1.714,1.714,0,0,1,1.838,1.721c.073,3.247.027,6.5.027,9.848-1.733,0-3.373,0-5.013,0-1.876,0-2.258.279-2.864,2.085-.32.951-.678,1.893-.934,2.862a1,1,0,0,1-1.179.866c-2.011-.05-4.025.018-6.036-.042a3.138,3.138,0,0,1-1.535-.521c-3.228-2.114-6.427-4.274-9.64-6.412-1.578-1.05-1.931-1.048-3.475-.018-3.212,2.141-6.417,4.293-9.639,6.419a2.722,2.722,0,0,1-1.292.532c-1.928.058-3.858.025-5.908.025.328-1,.632-1.91.921-2.822.6-1.884-.19-2.967-2.184-2.971-4.83-.009-9.659.017-14.489-.016a2.281,2.281,0,0,0-2.469,1.807c-1.13,3.517-2.342,7.008-3.508,10.513-.7,2.1.079,3.144,2.315,3.148,2.321,0,4.643,0,6.989,0v5.31c-2.662-.031-4.774,1.214-6.719,2.74a2.707,2.707,0,0,0-.9,1.827c-.092,3.056-.055,6.116-.036,9.175.01,1.483.741,2.192,2.259,2.195q8.331.017,16.662,0c1.635,0,2.309-.709,2.324-2.379.01-1.083,0-2.166,0-3.413" transform="translate(-38.312 -37.213)" fill="#d2e1f1"/>
        <rect id="Rectángulo_52707" data-name="Rectángulo 52707" width="104.217" height="3.753" transform="translate(3.921 3.922)" fill="#90bffe"/>
        <rect id="Rectángulo_52708" data-name="Rectángulo 52708" width="11.488" height="3.735" transform="translate(50.278 94.733)" fill="#a5cefe"/>
        <rect id="Rectángulo_52709" data-name="Rectángulo 52709" width="3.761" height="7.62" transform="translate(54.156 83.131)" fill="#7daefe"/>
        <path id="Trazado_257873" data-name="Trazado 257873" d="M167.215,330.047l-5.815,8.108-.3-.195c1.056-2.47,2.094-4.947,3.194-7.4a1.293,1.293,0,0,1,.911-.494,16.266,16.266,0,0,1,2.01-.022" transform="translate(-114.912 -227.656)" fill="#77a6f2"/>
        <path id="Trazado_257874" data-name="Trazado 257874" d="M209.189,338.427l-5.721-8.025h2.693L209.5,338.3l-.306.132" transform="translate(-143.611 -227.91)" fill="#77a6f2"/>
        <path id="Trazado_257875" data-name="Trazado 257875" d="M89.146,112.736c0,1.247.008,2.331,0,3.414-.015,1.669-.689,2.375-2.324,2.378q-8.331.015-16.662,0c-1.518,0-2.249-.712-2.259-2.194-.019-3.059-.056-6.119.036-9.175a2.707,2.707,0,0,1,.9-1.827c1.945-1.526,4.058-2.771,6.719-2.74v-5.31c-2.347,0-4.668,0-6.989,0-2.236,0-3.012-1.052-2.315-3.149,1.166-3.505,2.377-7,3.508-10.513A2.281,2.281,0,0,1,72.23,81.81c4.829.033,9.659.007,14.489.016,1.993,0,2.781,1.087,2.184,2.971-.289.912-.593,1.819-.921,2.821,2.05,0,3.98.033,5.908-.025a2.725,2.725,0,0,0,1.292-.532c3.222-2.126,6.427-4.278,9.639-6.419,1.544-1.029,1.9-1.032,3.475.018,3.213,2.138,6.411,4.3,9.64,6.412a3.131,3.131,0,0,0,1.535.521c2.011.06,4.025-.008,6.036.042a1,1,0,0,0,1.179-.865c.256-.969.614-1.911.934-2.863.607-1.806.989-2.083,2.864-2.085,1.64,0,3.28,0,5.013,0,0-3.352.046-6.6-.027-9.849a1.715,1.715,0,0,0-1.838-1.722c-5.227-.03-10.455-.014-15.7-.014-1.038,3.06-3,5.291-6.21,5.593a50.826,50.826,0,0,1-10.349,0,7.458,7.458,0,0,1-6.4-8.29,7.751,7.751,0,0,1,7.783-6.965c2.133-.02,4.269.069,6.4-.019,4.3-.177,7.274,1.6,8.8,5.811h2.474q6.339,0,12.678,0c3.863,0,6.27,2.392,6.28,6.226.007,2.938,0,5.876.007,8.814,0,.079.02.157.055.415,1.643,0,3.314,0,4.985,0,2.329,0,3.1,1.03,2.377,3.193q-1.732,5.2-3.485,10.392c-.52,1.542-.96,1.868-2.525,1.87q-7.184.007-14.368,0c-2.123,0-2.883-1.087-2.215-3.133.273-.836.554-1.668.883-2.656-2.1,0-4.094-.025-6.083.023a2.312,2.312,0,0,0-1.061.5c-3.286,2.174-6.581,4.334-9.831,6.56a2.481,2.481,0,0,1-3.188-.023c-3.212-2.212-6.468-4.361-9.738-6.485a3.621,3.621,0,0,0-1.766-.552c-1.97-.068-3.944,0-5.915-.039a.936.936,0,0,0-1.1.8c-.31,1.12-.761,2.2-1.094,3.316a2.164,2.164,0,0,1-2.419,1.705c-1.081-.041-2.164-.008-3.4-.008,0,1.968-.019,3.883.025,5.8.005.23.315.506.548.669a6.415,6.415,0,0,0,4.305,1.262c.16-.014.322,0,.483,0,3.916,0,3.916,0,4.409,3.81h5.895c1.016-3.025,2.986-5.247,6.195-5.55a50.738,50.738,0,0,1,10.35,0,7.467,7.467,0,0,1,6.4,8.293,7.75,7.75,0,0,1-7.786,6.963c-2.535.022-5.072.053-7.606-.008a7.506,7.506,0,0,1-7.209-4.911c-.281-.665-.567-.913-1.285-.889-1.641.055-3.286.017-5.064.017m17.43-48.3c-1.288,0-2.576-.022-3.864,0a3.857,3.857,0,1,0-.03,7.714q3.863.053,7.727,0a3.855,3.855,0,0,0,.03-7.71c-1.287-.035-2.576-.006-3.863-.007m-.042,50.23c1.248,0,2.5.016,3.743,0a3.86,3.86,0,1,0,.053-7.717q-3.8-.044-7.606,0a3.86,3.86,0,1,0,.067,7.717c1.248.02,2.5,0,3.743,0m-21.286-5.835a12.207,12.207,0,0,1-7.539-1.88c-1.9-1.059-3.826-.491-5.534.754a.89.89,0,0,0-.39.548c-.028,2.114-.018,4.229-.018,6.311H85.248ZM70.585,93.415c3.661,0,7.2.008,10.736-.017.259,0,.681-.189.75-.387.834-2.4,1.616-4.817,2.443-7.323-3.675,0-7.173-.011-10.671.02a1.047,1.047,0,0,0-.823.445c-.836,2.377-1.612,4.776-2.435,7.263m57.955,0c3.695,0,7.265.006,10.835-.016a.83.83,0,0,0,.651-.362c.83-2.41,1.618-4.835,2.447-7.349-3.691,0-7.229-.011-10.767.024a1.01,1.01,0,0,0-.757.53c-.821,2.341-1.588,4.7-2.41,7.173m-30.1-3.863c2.661,1.776,5.185,3.471,7.729,5.136a.824.824,0,0,0,.734-.008c2.545-1.662,5.071-3.353,7.738-5.128-2.673-1.779-5.2-3.47-7.745-5.133a.823.823,0,0,0-.734,0c-2.542,1.665-5.065,3.359-7.721,5.131" transform="translate(-50.496 -45.114)" fill="#010102"/>
        <path id="Trazado_257876" data-name="Trazado 257876" d="M175.447,72.588c1.288,0,2.576-.029,3.863.007a3.855,3.855,0,0,1-.03,7.71q-3.863.059-7.727,0a3.857,3.857,0,1,1,.03-7.714c1.288-.026,2.576,0,3.864,0" transform="translate(-119.367 -53.265)" fill="#a3314f"/>
        <path id="Trazado_257877" data-name="Trazado 257877" d="M175.405,212.047c-1.248,0-2.5.016-3.743,0a3.86,3.86,0,1,1-.068-7.717q3.8-.045,7.606,0a3.86,3.86,0,1,1-.053,7.717c-1.247.02-2.5,0-3.743,0" transform="translate(-119.367 -142.494)" fill="#a3314f"/>
        <path id="Trazado_257878" data-name="Trazado 257878" d="M97.343,205.105v5.734H83.862c0-2.083-.01-4.2.018-6.312a.891.891,0,0,1,.39-.548c1.708-1.244,3.633-1.813,5.534-.754a12.207,12.207,0,0,0,7.539,1.88" transform="translate(-62.591 -141.387)" fill="#ced371"/>
        <path id="Trazado_257879" data-name="Trazado 257879" d="M80.2,146.2c.823-2.486,1.6-4.885,2.435-7.263a1.049,1.049,0,0,1,.823-.445c3.5-.03,7-.02,10.671-.02-.826,2.506-1.608,4.924-2.443,7.323-.068.2-.491.385-.75.387-3.537.025-7.075.017-10.736.017" transform="translate(-60.114 -97.902)" fill="#ffb500"/>
        <path id="Trazado_257880" data-name="Trazado 257880" d="M259.842,146.2c.822-2.473,1.588-4.833,2.41-7.173a1.01,1.01,0,0,1,.757-.53c3.537-.035,7.075-.024,10.767-.024-.829,2.514-1.617,4.939-2.447,7.349a.831.831,0,0,1-.651.362c-3.57.023-7.14.016-10.835.016" transform="translate(-181.797 -97.904)" fill="#ffb500"/>
        <path id="Trazado_257881" data-name="Trazado 257881" d="M166.552,139.5c2.656-1.772,5.179-3.466,7.721-5.131a.823.823,0,0,1,.734,0c2.546,1.662,5.073,3.354,7.745,5.133-2.667,1.775-5.194,3.466-7.738,5.128a.824.824,0,0,1-.734.008c-2.543-1.665-5.067-3.36-7.729-5.136" transform="translate(-118.605 -95.062)" fill="#e2e2e2"/>
      </g>
    </g>
    <g id="Grupo_166753" data-name="Grupo 166753" transform="translate(-7536.999 -7070.256)">
      <g id="Grupo_166754" data-name="Grupo 166754" transform="translate(0 0)">
        <path id="Trazado_257882" data-name="Trazado 257882" d="M24.734,126.692v.234a.647.647,0,0,1-.561.2c-.436-.012-.873,0-1.31,0H21.677c0,.269,0,.516,0,.763,0,.35-.049.419-.363.528a.413.413,0,0,1-.344-.49c.011-.192,0-.385-.007-.577v-.2a.426.426,0,0,0-.078-.022c-.573-.033-.573-.033-.812.482a2.9,2.9,0,0,1-4.723.723,9.888,9.888,0,0,1-.8-1.2h-.6v1.789a2.142,2.142,0,0,1,1.694.049l.016,0,.006-.014.056.047L15.719,129l.1.056-.009-.006.083.061h0c.2.2.405.387.58.6a.341.341,0,0,0,.3.161q1.1-.01,2.2,0a.809.809,0,0,1,.838.844c0,.2,0,.39,0,.586v.989h1.161v-.27c0-.757,0-1.515,0-2.272a.385.385,0,0,1,.342-.448c.287.068.362.162.363.477,0,.757,0,1.513,0,2.27v.271c1.156-.113,2,.2,2.157,1.479a.87.87,0,0,1,.9.672v2.391a1.01,1.01,0,0,1-1.074.631q-10.933-.016-21.866-.007c-.094,0-.188,0-.281-.006a.8.8,0,0,1-.774-.787q-.018-1.054,0-2.109a.8.8,0,0,1,.738-.774l.169-.021a1.521,1.521,0,0,1,1.264-1.482v-5.183H2.615c-.508,0-1.016.011-1.523-.012a.439.439,0,0,1-.315-.215.456.456,0,0,1,.068-.356c.043-.071.172-.09.262-.132h3.1v-.559h-3.1c-.282-.089-.392-.21-.369-.4s.175-.308.471-.31c.211,0,.422,0,.633,0h1.09a1.757,1.757,0,0,1,.387-1.3,3.559,3.559,0,0,1-.326-.44,1.061,1.061,0,0,1-.07-1.068.86.86,0,0,1,.9-.412.787.787,0,0,0,.778-.367,1.363,1.363,0,0,1,1.227-.594c.851,0,1.7.011,2.554,0a1.459,1.459,0,0,1,1.343.649.67.67,0,0,0,.638.313,2.76,2.76,0,0,1,.3,0,.811.811,0,0,1,.8.9,1.435,1.435,0,0,1-.518,1,1.875,1.875,0,0,1,.424,1.3h1.87a1.787,1.787,0,0,1,.39-1.289,3.317,3.317,0,0,1-.317-.42,1.074,1.074,0,0,1-.076-1.089.863.863,0,0,1,.9-.408.786.786,0,0,0,.776-.37,1.361,1.361,0,0,1,1.228-.591c.828,0,1.656.016,2.483,0a1.533,1.533,0,0,1,1.442.69.61.61,0,0,0,.563.273q.152,0,.3,0a.817.817,0,0,1,.835.956,1.454,1.454,0,0,1-.514.948,1.9,1.9,0,0,1,.424,1.32c.866,0,1.708.006,2.55,0a.5.5,0,0,1,.5.246v.234l-.375.237H20.39v.56h3.969l.375.281m-10.78-1.781-.01.213h.576v-1.078l-.342.251-.224.615M3.865,124.3l-.223.615-.01.213h.576v-1.078l-.343.25m16.876.006c-.09-.116-.178-.234-.35-.172v1h.583c0-.081-.008-.149-.012-.216l-.222-.608m-10.313,0c-.09-.116-.178-.234-.35-.172v1h.583l-.012-.216-.222-.608m.223,3.05v-.2a.411.411,0,0,0-.077-.022c-.574-.034-.574-.034-.813.481a2.9,2.9,0,0,1-4.724.724,9.858,9.858,0,0,1-.795-1.2h-.6v.214c0,.265,0,.531-.013.8a.231.231,0,0,0,.182.268,1.425,1.425,0,0,1,.836,1.8,1.452,1.452,0,0,1-1,.949v1.13H4.78c0-.508,0-1,0-1.491a.833.833,0,0,1,.924-.929c.976,0,1.952,0,2.929,0a.816.816,0,0,1,.866.865c0,.183,0,.367,0,.538h1.15Zm-8.259,6.231-.029.214H23.1l-.029-.214a.781.781,0,0,0-.881-.567H7.8c-.062,0-.125,0-.187,0-.268-.01-.368-.1-.427-.366a.369.369,0,0,1,.423-.339c.394,0,.788,0,1.19,0,0-.538,0-1.044,0-1.55,0-.127-.053-.184-.181-.184-.982,0-1.964,0-2.946.008-.062,0-.175.1-.176.152-.013.519-.008,1.039-.008,1.574.144,0,.26,0,.375,0a.366.366,0,0,1,.423.338c-.062.283-.164.366-.472.366-.879,0-1.757,0-2.636,0a.75.75,0,0,0-.784.566m10.318,3.2H23.7c.332,0,.333,0,.333-.341q0-.773,0-1.546c0-.388,0-.388-.378-.388H1.816a1.382,1.382,0,0,1-.14,0c-.185-.019-.245.066-.242.247.008.547,0,1.093,0,1.64,0,.389,0,.389.378.389H12.71M9.338,126.769l-.043-.08c-.272,0-.545,0-.817,0a1.638,1.638,0,1,1-.015-3.274c.531-.009,1.062,0,1.593,0a.667.667,0,0,0,.661-.43c.119-.28.059-.373-.244-.363a1.434,1.434,0,0,1-1.343-.647.7.7,0,0,0-.638-.314q-1.347.006-2.694,0a.7.7,0,0,0-.641.311,1.435,1.435,0,0,1-1.342.65c-.311-.011-.373.093-.242.381a.665.665,0,0,0,.581.409c.078.007.156,0,.234,0,.436,0,.533.1.533.538,0,.742,0,1.484,0,2.225a2.737,2.737,0,0,0,.04.512.241.241,0,0,0,.165.158q2.014.013,4.029,0c.06,0,.121-.052.181-.08m6.406-5.049a.858.858,0,0,0-.133.091c-.134.152-.253.319-.4.457a1.487,1.487,0,0,1-1.13.351c-.249-.008-.285.042-.231.27a.7.7,0,0,0,.78.524c.539,0,.6.068.6.608.006.867.017,1.734.025,2.6,0,.171.062.238.252.237,1.3-.009,2.609,0,3.914-.006.06,0,.12-.01.2-.017.015-.2.039-.4.041-.589,0-.7,0-1.406,0-2.109s.014-.708.7-.725a.678.678,0,0,0,.666-.457c.1-.267.049-.348-.234-.336a1.462,1.462,0,0,1-1.381-.669,1.484,1.484,0,0,0-.2-.2c-.04,1.482-.637,2.251-1.733,2.254a1.7,1.7,0,0,1-1.208-.484,2.1,2.1,0,0,1-.534-1.8m-2.519,5.422H11.382V132.3h1.844ZM15.8,132.3h3.312c0-.521,0-1.027,0-1.534,0-.146-.071-.187-.2-.187q-1.452,0-2.9,0c-.137,0-.205.05-.205.188,0,.506,0,1.012,0,1.533m-.1-2.4a1.348,1.348,0,0,0-1.583-.282.275.275,0,0,0-.174.289c.009.546,0,1.092,0,1.638,0,.5.122.63.621.676.108.01.218,0,.327,0,.148,0,.2-.064.2-.215-.009-.374.006-.749,0-1.123a.91.91,0,0,1,.611-.986m.729-8.227a7.193,7.193,0,0,0,.048.791,1.021,1.021,0,0,0,2,.029,5.012,5.012,0,0,0,.008-.82ZM5.3,127.568a2.193,2.193,0,0,0,1.907.978,2.164,2.164,0,0,0,1.773-.978Zm13.993,0H15.617a2.213,2.213,0,0,0,3.675,0m-9.944-3.449c-.341,0-.66-.016-.977,0a.935.935,0,0,0-.878.9.915.915,0,0,0,.8.94,9.474,9.474,0,0,0,1.052.008Zm5.179,1.735h-4.45v.568h4.45ZM9.506,132.3h1.136v-.285H9.506Zm-5.863-3.179v1.271a.68.68,0,0,0,.374-.617.694.694,0,0,0-.374-.653" transform="translate(-0.729 -114.311)" fill="#040404"/>
        <path id="Trazado_257884" data-name="Trazado 257884" d="M7.139,11.821a.38.38,0,0,1-.427.34c-1.367,0-2.734,0-4.1,0a.805.805,0,0,1-.852-.806c-.011-.178,0-.358,0-.551-.111-.016-.21-.028-.307-.045a.777.777,0,0,1-.622-.98,16.023,16.023,0,0,1,.65-1.5A.73.73,0,0,1,2.112,7.9a2.492,2.492,0,0,1,.257-.005q10.416,0,20.831-.006a1,1,0,0,1,1.065.691c.161.418.349.825.526,1.237v.375c-.078.113-.133.262-.24.331a5.956,5.956,0,0,1-.669.331l-.055-.052c0,.153,0,.307,0,.46a.823.823,0,0,1-.9.9q-7.207,0-14.413,0c-.311,0-.392-.06-.474-.338.067-.3.156-.365.521-.365q6.994,0,13.989,0c.627,0,.585.149.57-.609,0-.013-.013-.026-.023-.043H2.459c0,.119,0,.22,0,.321,0,.333,0,.333.339.333H6.665c.317,0,.41.075.474.364m5.652-1.741H23.713c.062,0,.125,0,.187,0,.172-.005.221-.078.146-.241-.146-.318-.3-.636-.418-.964A.383.383,0,0,0,23.2,8.59Q12.791,8.6,2.385,8.6a.523.523,0,0,0-.163,0c-.067.023-.158.054-.183.108-.181.388-.348.782-.521,1.174-.053.122,0,.179.117.194a1.6,1.6,0,0,0,.211,0H12.791" transform="translate(-0.787 -7.887)" fill="#010203"/>
        <path id="Trazado_257887" data-name="Trazado 257887" d="M24.005,354.139H13.111c-.378,0-.378,0-.378-.389,0-.547.005-1.093,0-1.64,0-.181.056-.266.242-.247a1.4,1.4,0,0,0,.14,0H34.948c.378,0,.378,0,.378.388q0,.773,0,1.546c0,.34,0,.341-.333.341H24.005" transform="translate(-12.025 -331.667)" fill="#e2f3fe"/>
        <path id="Trazado_257888" data-name="Trazado 257888" d="M53.9,138.118c-.06.028-.121.08-.181.08q-2.015.007-4.029,0a.241.241,0,0,1-.165-.158,2.733,2.733,0,0,1-.04-.512c0-.742,0-1.484,0-2.225,0-.44-.1-.537-.533-.538-.078,0-.157,0-.234,0a.665.665,0,0,1-.581-.409c-.132-.288-.069-.392.242-.381a1.435,1.435,0,0,0,1.342-.651.7.7,0,0,1,.641-.311q1.347.008,2.694,0a.7.7,0,0,1,.639.314,1.434,1.434,0,0,0,1.343.647c.3-.011.364.083.244.363a.667.667,0,0,1-.661.43c-.531,0-1.062-.007-1.593,0a1.638,1.638,0,1,0,.015,3.274c.272.006.545,0,.817,0l.044.08m-4.088-1.811a1.627,1.627,0,0,0,.233.427.3.3,0,0,0,.436-.048.694.694,0,0,0,0-.742.3.3,0,0,0-.435-.056,1.555,1.555,0,0,0-.239.419" transform="translate(-45.289 -125.66)" fill="#fff"/>
        <path id="Trazado_257889" data-name="Trazado 257889" d="M225.772,134.085a2.1,2.1,0,0,0,.534,1.8,1.7,1.7,0,0,0,1.208.484c1.1,0,1.694-.772,1.733-2.254a1.5,1.5,0,0,1,.2.2,1.462,1.462,0,0,0,1.381.669c.283-.011.332.069.234.336a.678.678,0,0,1-.666.457c-.687.017-.7.031-.7.725s0,1.406,0,2.109c0,.193-.026.385-.041.589-.083.007-.143.017-.2.017-1.3,0-2.609,0-3.914.006-.19,0-.251-.066-.252-.237-.007-.867-.019-1.733-.025-2.6,0-.541-.066-.606-.6-.608a.7.7,0,0,1-.78-.524c-.053-.227-.018-.277.232-.27a1.487,1.487,0,0,0,1.13-.351c.147-.138.266-.305.4-.457a.861.861,0,0,1,.133-.091m.623,3.236a1.573,1.573,0,0,0-.139-.365.337.337,0,0,0-.494-.013.717.717,0,0,0,.007.778.334.334,0,0,0,.493-.028,1.619,1.619,0,0,0,.134-.372m2.2-.012.022.005c0,.046,0,.093,0,.139a.347.347,0,0,0,.693.027.874.874,0,0,0-.034-.409.389.389,0,0,0-.265-.209.478.478,0,0,0-.33.146c-.064.065-.06.2-.086.3" transform="translate(-210.757 -126.676)" fill="#fff"/>
        <path id="Trazado_257890" data-name="Trazado 257890" d="M33.834,320.22c.06.27.16.356.427.366.062,0,.125,0,.187,0h14.4a.781.781,0,0,1,.881.567H29.042a.75.75,0,0,1,.784-.566c.879,0,1.757,0,2.636,0,.308,0,.409-.083.472-.366h.9" transform="translate(-27.38 -301.883)" fill="#5be067"/>
        <path id="Trazado_257891" data-name="Trazado 257891" d="M57.11,229.7v3.926H55.96c0-.171,0-.354,0-.538a.816.816,0,0,0-.866-.865c-.976-.005-1.952,0-2.929,0a.833.833,0,0,0-.924.929c0,.492,0,.983,0,1.491H50.1v-1.13a1.452,1.452,0,0,0,1-.949,1.425,1.425,0,0,0-.836-1.8.231.231,0,0,1-.182-.268c.014-.265.009-.53.013-.8a2.51,2.51,0,0,0,.281,0c.188-.023.277.048.361.231a3.114,3.114,0,0,0,5.625.186.594.594,0,0,1,.743-.41" transform="translate(-47.189 -216.66)" fill="#fff"/>
        <path id="Trazado_257892" data-name="Trazado 257892" d="M264.382,230.765q0,.443,0,.887a.385.385,0,0,0-.342.448c.005.757,0,1.515,0,2.272v.27H262.88v-.989c0-.2,0-.391,0-.586a.809.809,0,0,0-.838-.844q-1.1-.011-2.2,0a.341.341,0,0,1-.3-.161c-.175-.216-.385-.4-.58-.6a1.4,1.4,0,0,1,.26.062,3.088,3.088,0,0,0,4.069-1.412.6.6,0,0,1,.743-.412c0,.192.019.386.007.577a.413.413,0,0,0,.344.49" transform="translate(-243.798 -216.658)" fill="#fff"/>
        <path id="Trazado_257895" data-name="Trazado 257895" d="M28.582,336.135H49.266l.028.214H28.553l.029-.214" transform="translate(-26.92 -316.864)" fill="#1ebb6b"/>
        <path id="Trazado_257896" data-name="Trazado 257896" d="M227.53,266.653a.91.91,0,0,0-.611.986c.011.374,0,.749,0,1.123,0,.151-.052.217-.2.215-.109,0-.219.007-.327,0-.5-.046-.621-.181-.621-.676,0-.546.005-1.092,0-1.637a.275.275,0,0,1,.174-.289,1.349,1.349,0,0,1,1.583.282" transform="translate(-212.561 -251.064)" fill="#727997"/>
        <path id="Trazado_257897" data-name="Trazado 257897" d="M268.112,133.292h2.059a5.009,5.009,0,0,1-.008.82,1.021,1.021,0,0,1-2-.029,7.2,7.2,0,0,1-.047-.791" transform="translate(-252.414 -125.93)" fill="#727997"/>
        <path id="Trazado_257898" data-name="Trazado 257898" d="M78.563,233.707h3.68a2.164,2.164,0,0,1-1.773.978,2.193,2.193,0,0,1-1.907-.978" transform="translate(-73.993 -220.449)" fill="#f4a67f"/>
        <path id="Trazado_257899" data-name="Trazado 257899" d="M257.986,233.7a2.213,2.213,0,0,1-3.675,0Z" transform="translate(-239.423 -220.445)" fill="#f4a67f"/>
        <path id="Trazado_257900" data-name="Trazado 257900" d="M117.784,174.855v1.851a9.458,9.458,0,0,1-1.052-.008.915.915,0,0,1-.8-.94.935.935,0,0,1,.878-.9c.317-.02.636,0,.977,0m-1.076.809c0,.332.067.485.263.5a.522.522,0,0,0,.36-.135.605.605,0,0,0-.014-.677.5.5,0,0,0-.372-.107c-.223.046-.249.248-.237.422" transform="translate(-109.165 -165.046)" fill="#727997"/>
        <path id="Trazado_257901" data-name="Trazado 257901" d="M164.4,204.5v.568h-4.45V204.5Z" transform="translate(-150.604 -192.962)" fill="#636363"/>
        <path id="Trazado_257902" data-name="Trazado 257902" d="M339.577,204.446q0,.28,0,.56h-3.969v-.56Z" transform="translate(-315.947 -192.906)" fill="#636363"/>
        <path id="Trazado_257903" data-name="Trazado 257903" d="M232.983,226.216a.6.6,0,0,0-.743.412,3.088,3.088,0,0,1-4.069,1.412,1.4,1.4,0,0,0-.26-.062h0l-.083-.061.009.006-.1-.055.006.006-.056-.047-.007.014-.016,0a.685.685,0,0,0-.107-.172,2.577,2.577,0,0,1-.84-1.016.576.576,0,0,0-.747-.437V226h.6a9.872,9.872,0,0,0,.8,1.2,2.9,2.9,0,0,0,4.723-.723c.239-.515.239-.515.812-.482a.422.422,0,0,1,.078.022Z" transform="translate(-212.75 -213.176)" fill="#727997"/>
        <path id="Trazado_257904" data-name="Trazado 257904" d="M57.324,226.2a.594.594,0,0,0-.743.41,3.114,3.114,0,0,1-5.625-.186c-.083-.183-.172-.254-.361-.231a2.514,2.514,0,0,1-.281,0v-.214h.6a9.849,9.849,0,0,0,.795,1.2,2.9,2.9,0,0,0,4.724-.724c.239-.515.239-.515.813-.481a.41.41,0,0,1,.077.022Z" transform="translate(-47.403 -213.157)" fill="#727997"/>
        <path id="Trazado_257905" data-name="Trazado 257905" d="M7.174,205.011v-.559h3.1v.559Z" transform="translate(-6.796 -192.912)" fill="#636363"/>
        <path id="Trazado_257906" data-name="Trazado 257906" d="M225.974,229.624a.576.576,0,0,1,.747.437,2.577,2.577,0,0,0,.84,1.016.686.686,0,0,1,.107.172,2.142,2.142,0,0,0-1.694-.049Z" transform="translate(-212.75 -216.587)" fill="#fff"/>
        <rect id="Rectángulo_52711" data-name="Rectángulo 52711" width="1.136" height="0.285" transform="translate(8.777 17.7)" fill="#597f9b"/>
        <path id="Trazado_257907" data-name="Trazado 257907" d="M50.355,260.081a.694.694,0,0,1,.373.653.68.68,0,0,1-.373.617Z" transform="translate(-47.442 -245.275)" fill="#727997"/>
        <path id="Trazado_257908" data-name="Trazado 257908" d="M160.532,175.631l.012.216h-.583v-1c.172-.063.26.056.35.172-.049.016-.138.028-.14.049a1.973,1.973,0,0,0-.013.5c.005.035.184.046.283.064a.422.422,0,0,0,.092,0" transform="translate(-150.613 -165.033)" fill="#727997"/>
        <path id="Trazado_257909" data-name="Trazado 257909" d="M336.189,175.631l.012.216h-.583v-1c.172-.063.26.056.35.172-.049.016-.138.028-.14.049a1.976,1.976,0,0,0-.013.5c.005.035.184.046.283.064a.422.422,0,0,0,.092,0" transform="translate(-315.957 -165.033)" fill="#727997"/>
        <path id="Trazado_257910" data-name="Trazado 257910" d="M50.4,173.95l.343-.25v1.078h-.576l.01-.213h.374a3.187,3.187,0,0,0-.007-.461c-.009-.058-.094-.1-.144-.154" transform="translate(-47.26 -163.965)" fill="#727997"/>
        <path id="Trazado_257911" data-name="Trazado 257911" d="M226.053,173.95l.342-.251v1.078h-.576l.01-.213c.436,0,.367.039.374-.368,0-.039.015-.089,0-.114a1,1,0,0,0-.146-.133" transform="translate(-212.604 -163.964)" fill="#727997"/>
        <path id="Trazado_257912" data-name="Trazado 257912" d="M339.158,178.661a.426.426,0,0,1-.092,0c-.1-.018-.278-.029-.283-.064a1.973,1.973,0,0,1,.013-.5c0-.021.091-.033.14-.049l.222.608" transform="translate(-318.925 -168.063)" fill="#fff"/>
        <path id="Trazado_257913" data-name="Trazado 257913" d="M163.5,178.661a.426.426,0,0,1-.092,0c-.1-.018-.278-.029-.283-.064a1.974,1.974,0,0,1,.013-.5c0-.021.091-.033.14-.049l.221.608" transform="translate(-153.581 -168.063)" fill="#fff"/>
        <path id="Trazado_257914" data-name="Trazado 257914" d="M226.211,177.966a.994.994,0,0,1,.146.133c.019.025,0,.075,0,.114-.007.408.062.369-.374.368l.224-.615" transform="translate(-212.762 -167.981)" fill="#fff"/>
        <path id="Trazado_257915" data-name="Trazado 257915" d="M50.552,177.958c.05.051.135.1.144.154a3.186,3.186,0,0,1,.007.461h-.374l.223-.615" transform="translate(-47.417 -167.973)" fill="#fff"/>
        <path id="Trazado_257916" data-name="Trazado 257916" d="M256.044,258.112l.1.056-.1-.056" transform="translate(-241.055 -243.422)" fill="#fbeadd"/>
        <path id="Trazado_257917" data-name="Trazado 257917" d="M257.609,258.953l.083.061-.083-.061" transform="translate(-242.528 -244.213)" fill="#fbeadd"/>
        <path id="Trazado_257918" data-name="Trazado 257918" d="M255.206,257.419l.056.047-.056-.047" transform="translate(-240.266 -242.769)" fill="#fbeadd"/>
        <path id="Trazado_257919" data-name="Trazado 257919" d="M33.894,58.56c-.064-.29-.158-.364-.474-.364H29.554c-.339,0-.339,0-.339-.333,0-.1,0-.2,0-.321H49.849c.009.017.022.03.023.043.015.757.057.608-.57.609q-6.994.007-13.989,0c-.365,0-.454.064-.521.365h-.9" transform="translate(-27.542 -54.626)" fill="#64bcfe"/>
        <path id="Trazado_257920" data-name="Trazado 257920" d="M24.144,21.358H13.2a1.6,1.6,0,0,1-.211,0c-.114-.015-.17-.072-.117-.194.172-.392.339-.787.521-1.174.025-.054.116-.085.183-.108a.523.523,0,0,1,.163,0q10.406,0,20.812-.005a.383.383,0,0,1,.431.283c.12.328.272.646.418.964.075.164.026.236-.146.241-.062,0-.125,0-.187,0H24.144" transform="translate(-12.14 -19.166)" fill="#dff0fb"/>
        <path id="Trazado_257921" data-name="Trazado 257921" d="M77.745,181.372a1.555,1.555,0,0,1,.239-.419.3.3,0,0,1,.435.056.694.694,0,0,1,0,.742.3.3,0,0,1-.436.048,1.628,1.628,0,0,1-.233-.427" transform="translate(-73.223 -170.726)" fill="#070606"/>
        <path id="Trazado_257922" data-name="Trazado 257922" d="M255.144,181.513a1.618,1.618,0,0,1-.134.372.334.334,0,0,1-.493.028.717.717,0,0,1-.007-.778.337.337,0,0,1,.494.013,1.568,1.568,0,0,1,.139.366" transform="translate(-239.506 -170.867)" fill="#070606"/>
        <path id="Trazado_257923" data-name="Trazado 257923" d="M304.492,181.83c.026-.1.021-.236.086-.3a.478.478,0,0,1,.33-.146.389.389,0,0,1,.265.209.875.875,0,0,1,.034.409.347.347,0,0,1-.693-.027c0-.046,0-.093,0-.139l-.022-.005" transform="translate(-286.658 -171.197)" fill="#070606"/>
        <path id="Trazado_257924" data-name="Trazado 257924" d="M129.167,181.874c-.012-.174.014-.376.237-.422a.5.5,0,0,1,.372.107.605.605,0,0,1,.014.677.522.522,0,0,1-.36.135c-.2-.012-.264-.165-.263-.5" transform="translate(-121.624 -171.257)" fill="#020304"/>
      </g>
    </g>
  </g>
</svg>
