<svg xmlns="http://www.w3.org/2000/svg" width="117.03" height="126.203" viewBox="0 0 117.03 126.203">
  <g id="Grupo_894253" data-name="Grupo 894253" transform="translate(-14.006 -0.853)">
    <g id="Grupo_238175" data-name="Grupo 238175" transform="translate(14.006 0.853)">
      <path id="Trazado_266898" data-name="Trazado 266898" d="M115.413,44.67c1.468.441,1.745.828,1.745,2.5q0,23.78,0,47.561v1.521c1.99,0,3.942-.022,5.893.008a18.451,18.451,0,0,1,3.425.213,5.57,5.57,0,0,1,4.5,5.318c.081,5.132.09,10.268,0,15.4a5.706,5.706,0,0,1-5.2,5.481,16.393,16.393,0,0,1-1.844.082q-13.061.008-26.121,0c-4.349,0-5.851-1.034-7.389-5.152-1.234,0-2.5-.042-3.769.03a1.351,1.351,0,0,0-.892.628,16.6,16.6,0,0,1-12.622,8.608c-.051.007-.089.12-.132.183H68.32c-1.019-.523-2.063-1.027-1.9-2.461.506-1.188,1.356-1.456,2.648-1.4a17.5,17.5,0,0,0,5.572-.4A13.048,13.048,0,0,0,79.2,100.1a12.394,12.394,0,0,0-11.3-2.6c-9.355,2.155-13.32,13.975-7.089,20.969a9.37,9.37,0,0,0,.859,1.029,2.1,2.1,0,0,1,.478,2.861c-1.335.876-2.062.858-3.1-.326a24.211,24.211,0,0,1-2.573-3.432,1.814,1.814,0,0,0-1.832-1.017c-6.449.04-12.9.033-19.348.017-3.714-.009-6.442-1.962-7.263-5.248a11.207,11.207,0,0,1-.227-2.687q-.019-24.031-.009-48.062V60.1a17.186,17.186,0,0,1-9.366-5.211A16.782,16.782,0,0,1,26.68,27.286c.956-.236,1.137-.608,1.125-1.473-.042-3.162-.032-6.326-.013-9.489.029-4.6,2.86-7.4,7.482-7.413,4.888-.009,9.777.017,14.665-.032A2.054,2.054,0,0,0,51.3,8.191a4.173,4.173,0,0,1,3.453-1.548c3.324.026,6.649.008,9.969.008,1.318-3.545,3.731-5.7,7.517-5.8,4.021-.1,6.577,2.1,8,5.8,3.3,0,6.579.025,9.861-.011a4.151,4.151,0,0,1,3.7,1.782,1.7,1.7,0,0,0,1.228.466c4.888.031,9.776.013,14.665.022,4.607.009,7.456,2.845,7.462,7.431.009,7.024-.013,14.049.016,21.073.005,1.3-.434,2.138-1.762,2.388-1.533-.354-1.93-.848-1.931-2.486-.005-7.058.007-14.116-.009-21.174a3.2,3.2,0,0,0-3.485-3.545c-.737-.012-1.476.02-2.213.032h-1.2v1.412q0,24.155-.029,48.311c0,1,.292,1.527,1.213,1.759a6.268,6.268,0,0,1,3.014,5.794c-.068,4.382-.091,8.767.009,13.148a6.54,6.54,0,0,1-3.018,6.051c-.4.328-1.115.639-1.133.987-.109,2.014-.053,4.037-.053,6.122h6.9V94.387q0-23.56,0-47.12c0-1.765.377-2.261,1.933-2.6M90.446,108.3v-7.381H85.423l2.324,7.415v5.544h2.7ZM89,10.351a6.608,6.608,0,0,0-.729-.079q-16.559-.006-33.119,0a6.866,6.866,0,0,0-.851.106v4.929H90.713c0-1.193,0-2.33,0-3.467,0-1.7,0-1.7-1.709-1.489M59.052,66.8l-.309-.255a12.55,12.55,0,0,0-11.564-2.332c-8.943,2.361-12.7,13.91-6.754,20.7l.248.288-.017-.013a12.606,12.606,0,0,0,12,4.652A13.208,13.208,0,0,0,63.342,80.5a13.019,13.019,0,0,0-4.277-13.711ZM44.42,92.5l-2.46-1.265c.029.615.052,1.079.074,1.543V97.1a3.96,3.96,0,0,0,.526.077c5.747,0,11.5.015,17.242-.017a2.5,2.5,0,0,0,1.32-.507,16.8,16.8,0,0,1,19.685-.028,3.149,3.149,0,0,0,1.672.533c3.284.05,6.568.035,9.853.014a7.578,7.578,0,0,0,1.427-.243,22.745,22.745,0,0,1,3.213-.639c1.955-.1,3.919-.03,5.9-.03V89.876H98.394c-.451-.014-.9-.039-1.352-.039-6.94,0-13.879.014-20.819-.01a5.788,5.788,0,0,1-5.952-5.649q-.109-7.575,0-15.151A5.731,5.731,0,0,1,76.1,63.4c4.023-.053,8.048-.008,12.072-.018,3.406-.009,6.812-.037,10.218-.057h4.478V12.638H94.755c-.449,1.781-.577,3.516-1.321,4.926-.908,1.72-2.908,1.5-4.6,1.5a7.41,7.41,0,0,1-10.7,6.983,3.634,3.634,0,0,0-2.548.124,7.346,7.346,0,0,1-5.854.066,4.171,4.171,0,0,0-3.633.024,7.148,7.148,0,0,1-9.611-4.634,23.47,23.47,0,0,1-.463-2.6c-1.715.1-3.642.187-4.52-1.489-.755-1.442-.877-3.214-1.287-4.871H41.982c0,3.048-.021,6,.01,8.949a1.935,1.935,0,0,1-1.759,2.242c-1.439-.317-1.887-.809-1.912-2.245-.03-1.682-.008-3.364-.008-5.046V12.584c-1.116,0-2.052,0-2.988,0-2.675.014-3.891,1.219-3.907,3.92-.018,3.036-.007,6.072,0,9.108,0,.352.049.7.08,1.122A18.742,18.742,0,0,1,40.143,29.5a3.07,3.07,0,0,0,.348.342,16.777,16.777,0,0,1,1.982,25.775c-.2.191-.459.449-.463.681-.037,2.015-.021,4.031-.021,6.163.528-.275.848-.459,1.181-.612,6.541-3.007,12.784-2.447,18.293,2.175s7.271,10.7,5.321,17.633c-1.479,5.258-5.044,8.8-10.04,10.93A17.8,17.8,0,0,1,44.42,92.5M20.5,51.6a12.8,12.8,0,0,0,13.589,4.639,12.512,12.512,0,0,0,9.5-9.953,12.393,12.393,0,0,0-4.621-12.92A12.178,12.178,0,0,0,28.4,30.664a12.473,12.473,0,0,0-9.918,8.43A12.377,12.377,0,0,0,20.5,51.6M94.216,116.7c.084,1.67.882,2.4,2.717,2.4q8.676.018,17.354,0c3.446,0,6.892.011,10.338,0,1.716-.008,2.717-.781,2.735-2.326q.085-7.261,0-14.522c-.015-1.462-.823-2.147-2.34-2.286-2.5-.014-5-.039-7.507-.041q-10.342-.008-20.684,0c-1.657,0-2.638.784-2.646,2.246-.024,4.841.014,9.682.029,14.523M31.5,108.284c-.034.364-.095.728-.1,1.093-.034,3.455,1.078,4.577,4.525,4.577h18.3v-5.647l2.314-7.454H55.471c-4.479,0-8.958.01-13.437,0-2.528-.008-3.7-1.184-3.718-3.7-.015-2.671.024-5.343-.027-8.012a2.711,2.711,0,0,0-.513-1.551,16.7,16.7,0,0,1-.068-21.352,2.091,2.091,0,0,0,.57-1.044c.053-2.123.026-4.248.026-6.334a55.9,55.9,0,0,1-5.444,1.321c-1.066.155-1.43.383-1.428,1.519q.039,22.62-.012,45.24c0,.449.053.9.082,1.347m73.31-41.168c-2.914-.026-5.827-.07-8.741-.075q-9.737-.016-19.474,0c-1.72,0-2.661.711-2.671,2.211-.033,4.885.023,9.771.044,14.656.125,1.46.826,2.232,2.214,2.234q14.288.028,28.577,0a2.11,2.11,0,0,0,2.3-2.193q.059-7.328,0-14.657c-.01-1.4-.786-2.072-2.257-2.179M59.872,19.1c-.042,3.176,2.412,4.872,5.263,3.623a6.393,6.393,0,0,1,5.683.038,3.43,3.43,0,0,0,3.2.043,6.742,6.742,0,0,1,6.032,0c2.671,1.154,5.177-.718,5.008-3.7ZM68.748,6.6h7.413a4.087,4.087,0,0,0-3.226-2.09A4.265,4.265,0,0,0,68.748,6.6" transform="translate(-14.006 -0.853)" fill="#040303"/>
      <path id="Trazado_266899" data-name="Trazado 266899" d="M298.648,113.016a6.54,6.54,0,0,0,3.018-6.051c-.1-4.381-.076-8.766-.009-13.148a6.268,6.268,0,0,0-3.014-5.794q.006-25.741.012-51.482c.738-.012,1.476-.044,2.213-.032a3.2,3.2,0,0,1,3.485,3.545c.015,7.058,0,14.116.009,21.173,0,1.637.4,2.132,1.931,2.486q0,2.433,0,4.866c-1.556.336-1.933.832-1.933,2.6q0,23.56,0,47.12v1.828h-5.711q0-3.554,0-7.109" transform="translate(-204.888 -24.763)" fill="#b06d3d"/>
      <path id="Trazado_266900" data-name="Trazado 266900" d="M157.425,324.414a2.1,2.1,0,0,0-.478-2.861,9.309,9.309,0,0,1-.858-1.03,14.08,14.08,0,0,0,1.456.11c1.625-.038,3.25-.109,4.875-.167,2.157,1.548,4.444,1.925,6.739.43a5.425,5.425,0,0,0,2.385-6.087,12.221,12.221,0,0,0,3.125-7.778,45.99,45.99,0,0,0-.186-4.881,13.048,13.048,0,0,1-4.563,22.7,17.511,17.511,0,0,1-5.572.4c-1.292-.056-2.142.212-2.648,1.4l-4.274-2.234" transform="translate(-109.289 -202.907)" fill="#ced371"/>
      <path id="Trazado_266901" data-name="Trazado 266901" d="M109.958,116.58c5-2.129,8.561-5.672,10.04-10.93,1.949-6.93.186-13.012-5.321-17.633s-11.752-5.181-18.293-2.175c-.334.153-.653.337-1.181.612,0-2.132-.015-4.148.021-6.163,0-.231.266-.49.463-.681A16.777,16.777,0,0,0,93.7,53.837a3.045,3.045,0,0,1-.348-.342l.091-5.64a1.935,1.935,0,0,0,1.758-2.242c-.032-2.95-.01-5.9-.01-8.949h8.234c.409,1.657.532,3.429,1.287,4.871.878,1.677,2.8,1.589,4.52,1.489a23.393,23.393,0,0,0,.463,2.6,7.147,7.147,0,0,0,9.611,4.634,4.172,4.172,0,0,1,3.633-.024,7.346,7.346,0,0,0,5.855-.066,3.634,3.634,0,0,1,2.548-.124,7.41,7.41,0,0,0,10.7-6.983c1.691,0,3.691.221,4.6-1.5.744-1.41.872-3.145,1.321-4.926h3.648q-.007,25.342-.014,50.685c-3.406.02-6.812.048-10.219.057-4.024.01-8.049-.036-12.072.018a5.732,5.732,0,0,0-5.827,5.629q-.106,7.575,0,15.151a5.789,5.789,0,0,0,5.952,5.649c6.939.025,13.879.007,20.819.01.451,0,.9.025,1.352.039.038,2.784-.083,2.906-2.892,2.906q-18.665,0-37.33-.008a10.848,10.848,0,0,1-1.427-.186m13.917-62.264c-4.684,0-9.367-.019-14.05.006-3.88.021-6.294,2.457-6.3,6.319q-.015,6.779,0,13.557c0,4.171,2.4,6.579,6.554,6.58q13.68,0,27.361,0c4.2,0,6.6-2.361,6.611-6.52q.019-6.717,0-13.434c-.011-4.124-2.376-6.495-6.491-6.506-4.56-.012-9.12,0-13.68,0" transform="translate(-67.219 -24.846)" fill="#f6f3f6"/>
      <path id="Trazado_266902" data-name="Trazado 266902" d="M195.945,218.652c-.022-4.885-.077-9.771-.044-14.656.01-1.5.951-2.208,2.671-2.211q9.737-.016,19.474,0c2.914,0,5.827.048,8.741.074q0,6.963,0,13.926c0,2.122-.74,2.866-2.865,2.866H195.945m16.549-9.472c2.83,0,5.659.011,8.489,0,1.432-.008,2.3-.72,2.3-1.829s-.851-1.816-2.291-1.825c-2.378-.015-4.757,0-7.135,0-3.363,0-6.725-.014-10.088.009-1.414.01-2.336.958-2.082,2.11a1.94,1.94,0,0,0,2.191,1.547c2.87-.009,5.741,0,8.611,0m-5.968,8.012h2.71c.041,0,.082,0,.123,0a1.791,1.791,0,0,0,1.971-1.742,1.768,1.768,0,0,0-1.82-1.905q-3.014-.092-6.033,0a1.819,1.819,0,1,0,.094,3.636c.984.032,1.97.007,2.956.009" transform="translate(-135.981 -135.596)" fill="#dbd8ea"/>
      <path id="Trazado_266903" data-name="Trazado 266903" d="M66.955,226.376c-.029-.449-.082-.9-.082-1.346q.014-22.62.012-45.241c0-1.137.362-1.364,1.428-1.519a55.9,55.9,0,0,0,5.444-1.321c0,2.086.027,4.211-.026,6.334a2.089,2.089,0,0,1-.57,1.043,16.7,16.7,0,0,0,.068,21.352,2.709,2.709,0,0,1,.513,1.551c.051,2.67.013,5.342.027,8.012.014,2.516,1.191,3.692,3.718,3.7,4.479.014,8.958,0,13.437,0H92L89.686,226.4l-22.731-.023" transform="translate(-49.459 -118.946)" fill="#c4855b"/>
      <path id="Trazado_266904" data-name="Trazado 266904" d="M257.447,318.406c-.014-4.841-.053-9.683-.029-14.523.007-1.462.988-2.244,2.646-2.245q10.342-.012,20.684,0c2.5,0,5,.027,7.507.041q0,7.267,0,14.534c0,1.589-.622,2.2-2.238,2.2q-14.287,0-28.575,0m16.514-9.367c2.871,0,5.742.008,8.613,0,1.355-.005,2.182-.682,2.221-1.769.04-1.139-.815-1.9-2.22-1.905q-8.551-.018-17.1,0c-1.425,0-2.3.725-2.3,1.846s.862,1.826,2.3,1.83c2.83.009,5.66,0,8.49,0m-1.977,4.388c-2.212,0-4.425-.012-6.637,0-1.337.01-2.172.727-2.17,1.81a1.923,1.923,0,0,0,2.17,1.846q6.576.035,13.152,0c1.381-.008,2.138-.714,2.139-1.845s-.754-1.8-2.139-1.811c-2.171-.016-4.343,0-6.515,0" transform="translate(-177.237 -202.559)" fill="#dbd8ea"/>
      <path id="Trazado_266905" data-name="Trazado 266905" d="M27.862,111.761a13.079,13.079,0,0,1,7.9-20.941,12.179,12.179,0,0,1,10.578,2.707,5.838,5.838,0,0,0,.024.983,14.3,14.3,0,0,1-1.052,8.855,12.724,12.724,0,0,1-5.339,6.18c-.013-3.975-.042-7.95-.032-11.926,0-1.168-.366-2.1-1.594-2.246a16.3,16.3,0,0,0-3.676.012,1.623,1.623,0,0,0-1.472,1.931,1.678,1.678,0,0,0,1.68,1.637c.432.04.868.044,1.328.066v12.5a15.315,15.315,0,0,1-8.338.244" transform="translate(-21.366 -61.01)" fill="#d7db8d"/>
      <path id="Trazado_266906" data-name="Trazado 266906" d="M88.355,212.875c-5.943-6.785-2.189-18.335,6.754-20.7a12.551,12.551,0,0,1,11.564,2.332l.309.255.013-.007a5.869,5.869,0,0,0-.056,1.332,14.1,14.1,0,0,1-1.138,8.34,15.634,15.634,0,0,1-4.594,5.923H98.616c1.037-1.457,2.034-2.744,2.9-4.113a18.144,18.144,0,0,0,1.89-3.565,5.323,5.323,0,0,0-3.658-6.879,5.567,5.567,0,0,0-6.874,3.637c-.385,1.288,0,2.264,1.049,2.658s1.866-.1,2.407-1.429c.046-.114.091-.229.147-.339a1.883,1.883,0,0,1,2.383-.978,1.765,1.765,0,0,1,1.052,2.314,11.543,11.543,0,0,1-1.3,2.357c-1.516,2.145-3.072,4.261-4.648,6.362a2.728,2.728,0,0,0-.584,2.634,4.569,4.569,0,0,1-1.207.321c-1.2-.016-2.391-.119-3.586-.187l.017.013-.248-.288" transform="translate(-61.936 -128.821)" fill="#d7db8d"/>
      <path id="Trazado_266907" data-name="Trazado 266907" d="M168.351,296.063a46.093,46.093,0,0,1,.186,4.881,12.222,12.222,0,0,1-3.124,7.778l-1.138-2.34c1.3-2.063,1.575-3.338,1.09-5.14a5.55,5.55,0,0,0-10.75.158,1.891,1.891,0,0,0,1.123,2.311,1.847,1.847,0,0,0,2.363-1.193,5.584,5.584,0,0,1,.258-.686,1.877,1.877,0,1,1,2.113,2.7c-.315.088-.653.093-.963.189-.9.278-1.489.963-1.24,1.833a4.016,4.016,0,0,0,1.381,1.641c.274.233.807.127,1.168.295a1.735,1.735,0,0,1,1.054,2.013,1.882,1.882,0,0,1-3.653.206c-.06-.194-.057-.406-.1-.606-.264-1.261-1.028-1.868-2.129-1.7-1.029.159-1.531.9-1.494,2.174a5.987,5.987,0,0,0,1.8,3.8c-1.625.058-3.25.129-4.875.167a14.2,14.2,0,0,1-1.456-.11c-6.232-6.994-2.266-18.814,7.088-20.969a12.4,12.4,0,0,1,11.3,2.6" transform="translate(-103.159 -196.821)" fill="#d7db8d"/>
      <path id="Trazado_266908" data-name="Trazado 266908" d="M270.185,87.316q.007-25.343.014-50.685h4.463V87.316Z" transform="translate(-185.804 -24.846)" fill="#dbd8e9"/>
      <path id="Trazado_266909" data-name="Trazado 266909" d="M113.808,273.835a10.8,10.8,0,0,0,1.427.187q18.665.015,37.33.008c2.81,0,2.931-.122,2.893-2.906h4.476V277.5c-1.978,0-3.942-.075-5.9.03a22.742,22.742,0,0,0-3.213.639,7.552,7.552,0,0,1-1.427.242c-3.284.022-6.569.037-9.853-.013a3.152,3.152,0,0,1-1.672-.534,16.8,16.8,0,0,0-19.685.028,2.5,2.5,0,0,1-1.32.507c-5.747.033-11.5.022-17.243.018a4.043,4.043,0,0,1-.526-.077v-4.316l2.386-.278a17.8,17.8,0,0,0,12.324.085" transform="translate(-71.07 -182.101)" fill="#d9d6e7"/>
      <path id="Trazado_266910" data-name="Trazado 266910" d="M33.727,117.808a15.315,15.315,0,0,0,8.338-.244c.307,1.5.983,2.134,2.135,1.993,1.071-.131,1.576-.888,1.592-2.371.006-.532.026-1.063.04-1.595a12.724,12.724,0,0,0,5.339-6.18,14.3,14.3,0,0,0,1.052-8.856,5.838,5.838,0,0,1-.024-.983,13.083,13.083,0,0,1-4.883,22.873,12.8,12.8,0,0,1-13.589-4.639" transform="translate(-27.231 -67.057)" fill="#ced371"/>
      <path id="Trazado_266911" data-name="Trazado 266911" d="M94.914,219.432c1.2.069,2.39.171,3.586.187a4.557,4.557,0,0,0,1.207-.321c.459.317.907.891,1.377.908,2.69.1,5.388.146,8.077.049a1.613,1.613,0,0,0,1.506-1.906,1.731,1.731,0,0,0-1.786-1.673c-.448-.027-.9-.027-1.346-.04a15.638,15.638,0,0,0,4.595-5.923,14.1,14.1,0,0,0,1.138-8.34,5.848,5.848,0,0,1,.056-1.331,13.018,13.018,0,0,1,4.277,13.711,13.208,13.208,0,0,1-10.685,9.331,12.606,12.606,0,0,1-12-4.652" transform="translate(-68.264 -135.103)" fill="#ced371"/>
      <path id="Trazado_266912" data-name="Trazado 266912" d="M66.921,327.009l22.731.023v5.647h-18.3c-3.447,0-4.559-1.123-4.525-4.577,0-.364.064-.728.1-1.093" transform="translate(-49.425 -219.578)" fill="#a9693b"/>
      <path id="Trazado_266913" data-name="Trazado 266913" d="M257.522,318.5q14.287,0,28.575,0c1.616,0,2.237-.609,2.238-2.2q0-7.267,0-14.534c1.517.139,2.325.823,2.34,2.286q.073,7.26,0,14.522c-.018,1.545-1.018,2.318-2.735,2.326-3.446.016-6.892,0-10.338,0q-8.676,0-17.353,0c-1.836,0-2.633-.735-2.717-2.4" transform="translate(-177.312 -202.652)" fill="#c8c6de"/>
      <path id="Trazado_266914" data-name="Trazado 266914" d="M136.354,32.8V29.548a6.852,6.852,0,0,1,.85-.106q16.559-.008,33.119,0a6.518,6.518,0,0,1,.729.079c.077,2.566-.627,3.291-3.2,3.29l-31.5-.01" transform="translate(-96.055 -20.023)" fill="#e17f85"/>
      <path id="Trazado_266915" data-name="Trazado 266915" d="M75.664,47.742q-.045,2.82-.091,5.64a18.739,18.739,0,0,0-8.645-2.766c-.031-.419-.079-.77-.08-1.122-.006-3.036-.017-6.072,0-9.108.016-2.7,1.232-3.906,3.907-3.921.936,0,1.873,0,2.988,0V40.45c0,1.682-.022,3.365.008,5.046.025,1.436.473,1.929,1.912,2.245" transform="translate(-49.437 -24.733)" fill="#c2845b"/>
      <path id="Trazado_266916" data-name="Trazado 266916" d="M196.056,218.819h27.975c2.124,0,2.865-.744,2.865-2.866q0-6.963,0-13.926c1.471.106,2.248.778,2.258,2.179q.051,7.328,0,14.657a2.111,2.111,0,0,1-2.3,2.193q-14.288.024-28.576,0c-1.388,0-2.089-.774-2.214-2.234" transform="translate(-136.092 -135.763)" fill="#cfcde5"/>
      <path id="Trazado_266917" data-name="Trazado 266917" d="M153.251,56.24h25.182c.169,2.982-2.337,4.853-5.008,3.7a6.741,6.741,0,0,0-6.032,0A3.431,3.431,0,0,1,164.2,59.9a6.392,6.392,0,0,0-5.683-.038c-2.851,1.249-5.306-.447-5.264-3.623" transform="translate(-107.385 -37.996)" fill="#f6f3f6"/>
      <path id="Trazado_266918" data-name="Trazado 266918" d="M136.354,32.776l31.5.01c2.573,0,3.278-.725,3.2-3.29,1.708-.21,1.708-.21,1.709,1.489,0,1.137,0,2.274,0,3.467H136.354Z" transform="translate(-96.055 -19.997)" fill="#d1606a"/>
      <path id="Trazado_266919" data-name="Trazado 266919" d="M296.185,36.611q-.006,25.741-.012,51.482c-.922-.232-1.216-.754-1.213-1.759q.062-24.155.029-48.311V36.611Z" transform="translate(-202.418 -24.833)" fill="#b97d56"/>
      <path id="Trazado_266920" data-name="Trazado 266920" d="M233.151,312.067l-2.324-7.414h5.022v7.381l-2.7.034" transform="translate(-159.41 -204.586)" fill="#c4855b"/>
      <path id="Trazado_266921" data-name="Trazado 266921" d="M237.884,327.095l2.7-.034v5.577h-2.7Z" transform="translate(-164.142 -219.613)" fill="#a9693b"/>
      <path id="Trazado_266922" data-name="Trazado 266922" d="M180.2,14.008a4.265,4.265,0,0,1,4.187-2.09,4.087,4.087,0,0,1,3.226,2.09Z" transform="translate(-125.458 -8.256)" fill="#e8e8e8"/>
      <path id="Trazado_266923" data-name="Trazado 266923" d="M296.212,268.787q0,3.554,0,7.109h-1.188c0-2.085-.056-4.108.053-6.122.019-.348.738-.659,1.133-.987" transform="translate(-202.452 -180.534)" fill="#b97d56"/>
      <path id="Trazado_266924" data-name="Trazado 266924" d="M101.334,276.519l-2.386.278c-.022-.464-.044-.929-.074-1.543l2.46,1.266" transform="translate(-70.92 -184.87)" fill="#e8e8e8"/>
      <path id="Trazado_266925" data-name="Trazado 266925" d="M150.136,200.543l-.309-.255.309.255" transform="translate(-105.09 -134.597)" fill="#93d3a1"/>
      <path id="Trazado_266926" data-name="Trazado 266926" d="M94.214,256.039l.248.288-.248-.288" transform="translate(-67.795 -171.985)" fill="#93d3a1"/>
      <path id="Trazado_266927" data-name="Trazado 266927" d="M171.651,322.685a5.984,5.984,0,0,1-1.795-3.8c-.037-1.269.465-2.016,1.494-2.175,1.1-.17,1.864.438,2.128,1.7.042.2.039.413.1.607a1.882,1.882,0,0,0,3.653-.207,1.735,1.735,0,0,0-1.055-2.013c-.36-.167-.894-.063-1.167-.295a4.019,4.019,0,0,1-1.381-1.641c-.249-.87.34-1.555,1.24-1.833.311-.1.649-.1.963-.188a1.877,1.877,0,1,0-2.113-2.7,5.632,5.632,0,0,0-.258.686,1.847,1.847,0,0,1-2.363,1.193,1.891,1.891,0,0,1-1.123-2.31,5.55,5.55,0,0,1,10.75-.158c.486,1.8.21,3.076-1.09,5.139l1.138,2.34a5.426,5.426,0,0,1-2.385,6.087c-2.294,1.494-4.581,1.117-6.738-.43" transform="translate(-118.52 -205.126)" fill="#030403"/>
      <path id="Trazado_266928" data-name="Trazado 266928" d="M144.558,90.31c4.56,0,9.12-.009,13.68,0,4.115.011,6.48,2.382,6.491,6.506q.017,6.717,0,13.434c-.012,4.16-2.413,6.52-6.611,6.52q-13.68,0-27.361,0c-4.151,0-6.55-2.41-6.554-6.58q-.006-6.779,0-13.557c.009-3.862,2.422-6.3,6.3-6.319,4.683-.025,9.367-.006,14.05-.006m-16.631,20.545a2.138,2.138,0,0,0,2.35,2.243q14.22.025,28.441,0a2.174,2.174,0,0,0,2.357-2.3q.074-7.263,0-14.527c-.015-1.455-.84-2.132-2.354-2.238a6.728,6.728,0,0,0-.728-.078q-13.666-.006-27.332,0a5.275,5.275,0,0,0-.736.039,2.143,2.143,0,0,0-2.032,2.219c-.015,4.882.019,9.764.035,14.645" transform="translate(-87.903 -60.839)" fill="#020202"/>
      <path id="Trazado_266929" data-name="Trazado 266929" d="M224.217,216.787c-2.871,0-5.741-.006-8.612,0a1.939,1.939,0,0,1-2.191-1.547c-.254-1.152.668-2.1,2.082-2.11,3.362-.023,6.725-.009,10.088-.009,2.378,0,4.757-.011,7.135,0,1.439.009,2.3.711,2.291,1.825s-.873,1.822-2.3,1.829c-2.829.015-5.659,0-8.489,0" transform="translate(-147.704 -143.202)" fill="#070707"/>
      <path id="Trazado_266930" data-name="Trazado 266930" d="M218.269,241.052c-.985,0-1.971.024-2.956-.008a1.838,1.838,0,0,1-1.907-1.7,1.819,1.819,0,0,1,1.813-1.934q3.014-.1,6.033,0a1.768,1.768,0,0,1,1.82,1.905,1.791,1.791,0,0,1-1.971,1.742c-.041,0-.082,0-.123,0h-2.71" transform="translate(-147.725 -159.457)" fill="#050405"/>
      <path id="Trazado_266931" data-name="Trazado 266931" d="M285.7,316.617c-2.83,0-5.66.006-8.49,0-1.433,0-2.3-.7-2.295-1.83s.87-1.843,2.3-1.845q8.551-.014,17.1,0c1.405,0,2.26.766,2.22,1.905-.038,1.087-.866,1.764-2.221,1.769-2.871.011-5.742,0-8.613,0" transform="translate(-188.976 -210.137)" fill="#040303"/>
      <path id="Trazado_266932" data-name="Trazado 266932" d="M283.724,337.435c2.172,0,4.343-.012,6.515,0,1.385.011,2.14.67,2.139,1.811s-.758,1.837-2.139,1.845q-6.576.038-13.152,0a1.924,1.924,0,0,1-2.17-1.847c0-1.083.833-1.8,2.17-1.81,2.212-.016,4.425,0,6.637,0" transform="translate(-188.977 -226.567)" fill="#060607"/>
      <path id="Trazado_266933" data-name="Trazado 266933" d="M56.663,119.15c-.014.532-.034,1.063-.04,1.595-.015,1.483-.52,2.239-1.592,2.371-1.152.141-1.828-.489-2.135-1.993v-12.5c-.46-.022-.9-.026-1.328-.066a1.678,1.678,0,0,1-1.68-1.637,1.623,1.623,0,0,1,1.472-1.931,16.277,16.277,0,0,1,3.676-.012c1.228.142,1.6,1.078,1.594,2.246-.01,3.975.018,7.95.032,11.926" transform="translate(-38.063 -70.615)" fill="#030403"/>
      <path id="Trazado_266934" data-name="Trazado 266934" d="M115.975,218.282c.449.013.9.013,1.346.04a1.731,1.731,0,0,1,1.787,1.673A1.613,1.613,0,0,1,117.6,221.9c-2.689.1-5.387.053-8.077-.049-.47-.018-.919-.592-1.377-.908a2.728,2.728,0,0,1,.584-2.634c1.576-2.1,3.133-4.217,4.649-6.362a11.532,11.532,0,0,0,1.3-2.357,1.765,1.765,0,0,0-1.052-2.314,1.883,1.883,0,0,0-2.383.978c-.056.11-.1.225-.147.339-.541,1.331-1.364,1.82-2.406,1.429s-1.434-1.37-1.049-2.658a5.568,5.568,0,0,1,6.874-3.637,5.323,5.323,0,0,1,3.657,6.879,18.125,18.125,0,0,1-1.89,3.565c-.868,1.369-1.865,2.656-2.9,4.113Z" transform="translate(-76.704 -136.748)" fill="#030403"/>
      <path id="Trazado_266935" data-name="Trazado 266935" d="M135.439,118.281c-.016-4.882-.05-9.764-.036-14.645a2.144,2.144,0,0,1,2.032-2.22,5.278,5.278,0,0,1,.736-.039q13.666,0,27.333,0a6.664,6.664,0,0,1,.728.078q.009,7.2.017,14.409c0,1.754-.685,2.418-2.484,2.418q-14.164,0-28.327,0m16.49-1.468q4.244,0,8.488,0c1.52,0,2.4-.7,2.369-1.862-.027-1.128-.87-1.8-2.327-1.8q-8.488-.011-16.976,0c-1.435,0-2.3.7-2.316,1.82s.842,1.835,2.275,1.839c2.829.008,5.659,0,8.488,0M152,105.154c-2.834,0-5.668-.006-8.5,0-1.471,0-2.313.658-2.329,1.776s.842,1.831,2.282,1.834q8.5.014,17,0c1.482,0,2.305-.656,2.322-1.787s-.809-1.818-2.274-1.823c-2.834-.01-5.668,0-8.5,0" transform="translate(-95.415 -68.265)" fill="#d9d6e8"/>
      <path id="Trazado_266936" data-name="Trazado 266936" d="M135.519,118.445q14.163,0,28.327,0c1.8,0,2.484-.664,2.484-2.418q0-7.2-.017-14.409c1.514.106,2.339.784,2.354,2.238q.077,7.263,0,14.527a2.174,2.174,0,0,1-2.357,2.3q-14.221.03-28.441,0a2.138,2.138,0,0,1-2.35-2.243" transform="translate(-95.495 -68.429)" fill="#c7c5dc"/>
      <path id="Trazado_266937" data-name="Trazado 266937" d="M163.669,140.775c-2.829,0-5.659.006-8.488,0-1.432,0-2.289-.708-2.275-1.839s.881-1.819,2.316-1.82q8.488-.011,16.976,0c1.458,0,2.3.67,2.327,1.8.028,1.163-.848,1.859-2.369,1.862q-4.244.007-8.488,0" transform="translate(-107.155 -92.227)" fill="#050405"/>
      <path id="Trazado_266938" data-name="Trazado 266938" d="M163.76,112.842c2.834,0,5.668-.007,8.5,0,1.465.005,2.291.682,2.274,1.823s-.839,1.785-2.321,1.787q-8.5.012-17,0c-1.44,0-2.3-.715-2.282-1.834s.857-1.771,2.329-1.775c2.834-.008,5.668,0,8.5,0" transform="translate(-107.17 -75.953)" fill="#010101"/>
    </g>
  </g>
</svg>
