<svg xmlns="http://www.w3.org/2000/svg" xmlns:xlink="http://www.w3.org/1999/xlink" width="172" height="172" viewBox="0 0 172 172">
  <defs>
    <filter id="Elipse_5848" x="0" y="0" width="172" height="172" filterUnits="userSpaceOnUse">
      <feOffset dy="3" input="SourceAlpha"/>
      <feGaussianBlur stdDeviation="3" result="blur"/>
      <feFlood flood-opacity="0.161"/>
      <feComposite operator="in" in2="blur"/>
      <feComposite in="SourceGraphic"/>
    </filter>
    <clipPath id="clip-path">
      <rect id="Rect치ngulo_334227" data-name="Rect치ngulo 334227" width="83.271" height="86.905" fill="none"/>
    </clipPath>
  </defs>
  <g id="Grupo_899803" data-name="Grupo 899803" transform="translate(-13343 7880)">
    <g transform="matrix(1, 0, 0, 1, 13343, -7880)" filter="url(#Elipse_5848)">
      <circle id="Elipse_5848-2" data-name="Elipse 5848" cx="77" cy="77" r="77" transform="translate(9 6)" fill="#fff"/>
    </g>
    <g id="Grupo_898153" data-name="Grupo 898153" transform="translate(13392.372 -7840.453)">
      <g id="Grupo_898153-2" data-name="Grupo 898153" clip-path="url(#clip-path)">
        <path id="Trazado_624856" data-name="Trazado 624856" d="M27.962,5.773h-1.05c-1.611,0-3.221-.017-4.831.013-1,.019-1.535.5-1.508,1.482.023.842-.317.984-1.061.98Q11.876,8.208,4.24,8.24A4.036,4.036,0,0,0,.153,11.29a7.5,7.5,0,0,0-.14,1.8Q0,37.111.007,61.134.007,71.7,0,82.268A4.551,4.551,0,0,0,.809,85.2a4.435,4.435,0,0,0,3.77,1.708q28.084-.015,56.169-.007c.23,0,.461,0,.69-.01a4.066,4.066,0,0,0,3.846-3.36,12.312,12.312,0,0,0,.114-2.66,2.174,2.174,0,0,1,.762-1.79A55.221,55.221,0,0,0,83.27,39.752a1.653,1.653,0,0,0-.964-1.7c-5.366-3.059-10.7-6.174-16.067-9.232a1.456,1.456,0,0,1-.838-1.489c.032-4.83.02-9.661.016-14.492,0-2.926-1.675-4.6-4.6-4.6q-7.42-.007-14.841,0H44.951c-.032-.276-.061-.442-.069-.61-.06-1.4-.5-1.838-1.9-1.849-1.064-.009-2.128,0-3.192,0H37.31a5.394,5.394,0,0,0-1-4.032A4.548,4.548,0,0,0,32.622,0c-2.754.021-4.257,1.858-4.66,5.772" transform="translate(-0.001 0)" fill="#fff"/>
        <path id="Trazado_624857" data-name="Trazado 624857" d="M27.961,5.772C28.364,1.858,29.868.021,32.622,0a4.548,4.548,0,0,1,3.689,1.74,5.4,5.4,0,0,1,1,4.032h2.48c1.064,0,2.128-.006,3.192,0,1.4.011,1.839.447,1.9,1.849.007.167.037.334.069.61h1.029q7.42,0,14.84,0c2.921,0,4.593,1.678,4.6,4.6,0,4.831.017,9.661-.015,14.492a1.457,1.457,0,0,0,.837,1.489c5.367,3.059,10.7,6.173,16.067,9.232a1.653,1.653,0,0,1,.964,1.7A55.221,55.221,0,0,1,66.161,79.078a2.173,2.173,0,0,0-.761,1.79,12.3,12.3,0,0,1-.115,2.659,4.066,4.066,0,0,1-3.846,3.36c-.229.015-.46.01-.69.01q-28.085,0-56.17.007A4.435,4.435,0,0,1,.809,85.2,4.553,4.553,0,0,1,0,82.267Q.018,71.7.006,61.134q0-24.024.006-48.048a7.515,7.515,0,0,1,.14-1.8A4.036,4.036,0,0,1,4.239,8.239q7.636-.021,15.272.009c.744,0,1.084-.138,1.061-.98-.027-.98.509-1.464,1.508-1.482,1.61-.03,3.221-.011,4.832-.013h1.05M40.824,39.813c-.184-1.018.372-1.4,1.042-1.781q8.265-4.737,16.5-9.534a1.413,1.413,0,0,0,.7-.914c.046-4.227.032-8.455.029-12.682a1.055,1.055,0,0,0-1.161-1.194q-6.256-.014-12.513.008a.708.708,0,0,0-.554.351c-.438,1.643-1.607,2.078-3.147,2.069-4.027-.026-8.054-.009-12.081-.009-2.129,0-4.257.014-6.386-.006a2.393,2.393,0,0,1-2.585-1.727c-.156-.666-.491-.7-1.021-.7-3.826.012-7.651.006-11.477.007-1.683,0-1.893.209-1.893,1.876q0,31.965,0,63.929c0,1.669.241,1.915,1.871,1.916h49.1a1.717,1.717,0,0,0,.683-.02,2.431,2.431,0,0,0,1.048-.722c.109-.178-.181-.7-.412-.968-2.326-2.658-4.7-5.274-7-7.952a1.763,1.763,0,0,0-1.5-.734q-12.34.032-24.68.006c-.528,0-1.325.227-1.307-.661.018-.858.8-.649,1.338-.649q11.779-.014,23.558-.006h1.1c-.206-.351-.3-.524-.406-.689a54.4,54.4,0,0,1-5.847-12.162,1.017,1.017,0,0,0-1.165-.819c-5.149.025-10.3.014-15.447.013a22.854,22.854,0,0,1-2.413-.035c-.267-.029-.5-.4-.743-.621a2.957,2.957,0,0,1,.7-.6,2.329,2.329,0,0,1,.854-.033q8.155,0,16.31,0c.361,0,.722-.03,1.14-.049a4.876,4.876,0,0,0-.078-.5,52.613,52.613,0,0,1-2.03-12.3c-.026-.654-.281-.807-.892-.8-4.861.021-9.722.013-14.584.009a2.426,2.426,0,0,1-.933-.083.828.828,0,0,1-.449-.609c.009-.2.281-.469.5-.573a1.914,1.914,0,0,1,.766-.04H40.824M62.262,81.1a71.482,71.482,0,0,0,5.953-6.636,60.084,60.084,0,0,0,8.122-17.909,74.184,74.184,0,0,0,2.934-17.208,1.987,1.987,0,0,0-1.207-2.087q-7.544-4.271-15.02-8.661a1.673,1.673,0,0,0-1.952-.005c-5.621,3.258-11.28,6.448-16.9,9.71-2.425,1.407-2.042.547-1.894,3.474a54.132,54.132,0,0,0,8.024,25.733A58.3,58.3,0,0,0,62.262,81.1m-2.049.531c-.76,1.185-1.914,1.244-3.135,1.239-5.608-.022-11.216-.01-16.825-.01q-16.264,0-32.527,0A2.607,2.607,0,0,1,4.815,80c0-.316,0-.633,0-.949q0-24.886,0-49.771,0-7.073,0-14.146a2.618,2.618,0,0,1,2.607-2.926,8.285,8.285,0,0,1,.948-.028c3.451,0,6.9,0,10.353,0,1.777,0,1.593.194,1.637-1.615.016-.679-.22-.892-.9-.892-5.118,0-10.237-.031-15.356-.037a2.639,2.639,0,0,0-2.694,2.58c-.018.315-.012.632-.012.949Q1.4,47.578,1.4,82c0,.23,0,.46,0,.69A2.782,2.782,0,0,0,4.342,85.51q11.949-.02,23.9-.036c10.469-.006,20.937,0,31.406-.022a2.109,2.109,0,0,0,1.369-.486c1.266-1.265,1.051-2.165-.8-3.338M32.75,14.758q4.57,0,9.14,0c1.289,0,1.618-.342,1.622-1.647,0-1.667-.035-3.335.017-5,.024-.754-.2-1.007-.967-.989-1.838.043-3.678,0-5.518.009-.757,0-1.113-.34-1.086-1.1.018-.516.014-1.035-.01-1.551a3.269,3.269,0,0,0-2.933-3.1,3.215,3.215,0,0,0-3.448,2.388,9.839,9.839,0,0,0-.159,2.05c-.029,1.146-.159,1.31-1.285,1.318-1.724.013-3.451.045-5.173-.012-.852-.028-1.086.284-1.06,1.095.052,1.636.011,3.275.017,4.913,0,1.33.3,1.628,1.617,1.63q4.613.008,9.226,0M60.523,26.983a1.656,1.656,0,0,0,1.453-1.893c-.066-3.936-.019-7.875-.034-11.812a9.382,9.382,0,0,0-.179-1.795,2.026,2.026,0,0,0-2.219-1.8H49.8c-1.351,0-2.7.016-4.053-.007-.55-.009-.81.182-.759.75a3.039,3.039,0,0,1,0,.689c-.114.826.219,1.09,1.055,1.082,3.708-.039,7.417-.021,11.125-.011a7.093,7.093,0,0,1,1.367.126,2.374,2.374,0,0,1,1.983,2.367c.024,1.034.008,2.069.008,3.1,0,3.043,0,6.087,0,9.2" transform="translate(0 0.001)"/>
        <path id="Trazado_624858" data-name="Trazado 624858" d="M61.82,85.652H46.343a1.905,1.905,0,0,0-.766.04c-.22.1-.492.368-.5.573a.829.829,0,0,0,.449.609,2.426,2.426,0,0,0,.933.083c4.861,0,9.722.012,14.584-.009.612,0,.867.15.892.8a52.613,52.613,0,0,0,2.03,12.3,4.876,4.876,0,0,1,.078.5c-.418.018-.779.048-1.14.049q-8.155,0-16.31,0a2.324,2.324,0,0,0-.854.033,2.947,2.947,0,0,0-.7.6c.247.217.476.593.743.621a22.917,22.917,0,0,0,2.413.035c5.149,0,10.3.011,15.447-.013a1.016,1.016,0,0,1,1.165.819,54.4,54.4,0,0,0,5.847,12.162c.106.165.2.338.406.689h-1.1q-11.779,0-23.558.007c-.536,0-1.32-.209-1.338.649-.018.888.779.661,1.307.662q12.34.016,24.68-.006a1.764,1.764,0,0,1,1.5.734c2.3,2.677,4.676,5.294,7,7.952.231.264.521.79.412.968a2.429,2.429,0,0,1-1.048.722,1.717,1.717,0,0,1-.683.02h-49.1c-1.63,0-1.871-.247-1.871-1.915q0-31.965,0-63.929c0-1.667.211-1.875,1.893-1.876,3.826,0,7.652.005,11.477-.007.53,0,.865.036,1.021.7a2.393,2.393,0,0,0,2.585,1.727c2.128.02,4.257.006,6.386.006,4.027,0,8.054-.017,12.081.009,1.54.01,2.709-.425,3.147-2.068a.708.708,0,0,1,.554-.351q6.256-.028,12.513-.008a1.055,1.055,0,0,1,1.161,1.194c0,4.227.017,8.455-.029,12.682a1.414,1.414,0,0,1-.7.914q-8.23,4.8-16.5,9.534c-.67.384-1.226.763-1.042,1.781M36.138,91.337c1.379,0,2.759-.019,4.137.008.7.014.982-.28.978-.973q-.022-4.093,0-8.187c0-.709-.32-.969-1-.966q-4.051.019-8.1,0c-.689,0-.987.293-.983.986q.021,4.093,0,8.187c0,.7.313.967,1,.953,1.321-.027,2.643-.008,3.965-.008m5.11-20.02c0-1.352-.018-2.7.008-4.055.013-.7-.267-.985-.969-.98q-4.056.026-8.112,0c-.676,0-1.009.232-1,.95q.025,4.1,0,8.2c0,.651.261.938.926.934q4.1-.022,8.2,0c.714,0,.971-.305.958-.992-.024-1.351-.007-2.7-.007-4.055M36.222,96.2c-1.35,0-2.7.019-4.052-.008-.693-.014-1,.262-1,.96q.017,4.094,0,8.188c0,.693.3.987.986.984q4.052-.018,8.1,0c.682,0,1-.267.993-.972q-.023-4.094,0-8.188c0-.694-.278-.986-.98-.972-1.35.027-2.7.008-4.052.008m.012,14.987c-1.378,0-2.756.016-4.133-.007-.668-.011-.93.284-.927.93q.014,4.132,0,8.265c0,.616.283.889.887.888q4.133-.006,8.267,0c.647,0,.929-.281.925-.94q-.023-4.089,0-8.178c0-.7-.271-.983-.974-.967-1.349.029-2.7.008-4.047.009M60.591,70.666H46.362a1.724,1.724,0,0,0-.763.037,1.051,1.051,0,0,0-.519.655c-.021.181.273.461.49.586a1.472,1.472,0,0,0,.677.049q14.358,0,28.717,0a1.629,1.629,0,0,0,.758-.071.9.9,0,0,0,.455-.624c-.009-.21-.281-.48-.5-.59a1.861,1.861,0,0,0-.765-.04H60.591" transform="translate(-20.995 -45.838)" fill="#dee4f0"/>
        <path id="Trazado_624859" data-name="Trazado 624859" d="M203.475,175.763a58.286,58.286,0,0,1-11.938-13.588,54.13,54.13,0,0,1-8.024-25.733c-.148-2.927-.531-2.066,1.894-3.474,5.618-3.261,11.278-6.452,16.9-9.71a1.673,1.673,0,0,1,1.952.005q7.479,4.384,15.02,8.661a1.987,1.987,0,0,1,1.207,2.086,74.184,74.184,0,0,1-2.934,17.208,60.077,60.077,0,0,1-8.122,17.909,71.413,71.413,0,0,1-5.953,6.636m-11.2-29.259c0,1.063-.006,2.126,0,3.189.007,1.009.215,1.228,1.2,1.236,1.466.012,2.934.05,4.4-.014.829-.036,1.034.281,1.01,1.045-.046,1.464-.025,2.931-.006,4.4.012.944.315,1.264,1.236,1.272q3.147.027,6.295,0c.932-.007,1.172-.263,1.178-1.188.01-1.437,0-2.873,0-4.31,0-1.2,0-1.2,1.157-1.2,1.437,0,2.874.007,4.311,0,.984-.007,1.238-.251,1.243-1.218q.018-3.1,0-6.207c0-1.058-.254-1.3-1.343-1.3-1.494-.008-2.99-.027-4.483.009-.662.016-.922-.176-.9-.878.047-1.522.02-3.045.012-4.568-.005-.98-.238-1.243-1.209-1.253q-3.1-.031-6.208,0c-.982.008-1.283.318-1.295,1.3-.017,1.379,0,2.758-.006,4.138,0,1.246,0,1.247-1.207,1.248-1.38,0-2.759-.007-4.139,0-1.04.008-1.245.224-1.252,1.282-.006,1.006,0,2.012,0,3.017" transform="translate(-141.213 -94.666)" fill="#dee4f0"/>
        <path id="Trazado_624860" data-name="Trazado 624860" d="M64.91,113.875c1.852,1.174,2.067,2.073.8,3.339a2.109,2.109,0,0,1-1.369.486c-10.468.027-20.937.016-31.406.022q-11.949.007-23.9.035A2.782,2.782,0,0,1,6.1,114.934c-.007-.23,0-.46,0-.69q0-34.417,0-68.834c0-.316-.006-.633.012-.949a2.639,2.639,0,0,1,2.694-2.58c5.119.006,10.237.042,15.356.037.675,0,.912.212.9.892-.044,1.809.14,1.611-1.637,1.615-3.451.007-6.9,0-10.353,0a8.232,8.232,0,0,0-.948.028,2.618,2.618,0,0,0-2.607,2.926q-.012,7.073,0,14.146V111.3c0,.316,0,.633,0,.949a2.607,2.607,0,0,0,2.912,2.855q16.264.006,32.527,0c5.608,0,11.216-.012,16.824.01,1.221,0,2.376-.054,3.135-1.24M7.325,55.388c0,.629,0,1.257,0,1.886,0,.533.282.974.791.9a1.16,1.16,0,0,0,.749-.825,29.853,29.853,0,0,0,0-3.852,1.177,1.177,0,0,0-.717-.865c-.572-.085-.824.395-.829.952-.005.6,0,1.2,0,1.8" transform="translate(-4.697 -32.248)" fill="#a3314f"/>
        <path id="Trazado_624861" data-name="Trazado 624861" d="M106.017,19.3q-4.613,0-9.226,0c-1.318,0-1.612-.3-1.617-1.63-.006-1.638.035-3.277-.017-4.913-.026-.81.209-1.122,1.06-1.095,1.723.056,3.449.025,5.173.012,1.126-.009,1.256-.173,1.285-1.318a9.87,9.87,0,0,1,.159-2.05,3.216,3.216,0,0,1,3.448-2.388,3.268,3.268,0,0,1,2.933,3.1c.024.516.028,1.035.01,1.551-.026.763.33,1.106,1.086,1.1,1.839-.007,3.68.034,5.518-.009.762-.018.991.235.967.989-.053,1.665-.013,3.333-.017,5,0,1.3-.333,1.644-1.621,1.647q-4.57.009-9.14,0" transform="translate(-73.267 -4.537)" fill="#6e2034"/>
        <path id="Trazado_624862" data-name="Trazado 624862" d="M211.032,59.372c0-3.114,0-6.158,0-9.2,0-1.035.016-2.07-.008-3.1A2.374,2.374,0,0,0,209.04,44.7a7.093,7.093,0,0,0-1.367-.126c-3.708-.01-7.417-.028-11.125.011-.836.009-1.169-.256-1.055-1.082a3.039,3.039,0,0,0,0-.689c-.052-.568.209-.759.759-.75,1.351.023,2.7.007,4.053.007h9.745a2.026,2.026,0,0,1,2.219,1.8,9.383,9.383,0,0,1,.179,1.795c.015,3.937-.031,7.875.034,11.812a1.656,1.656,0,0,1-1.453,1.893" transform="translate(-150.509 -32.389)" fill="#a3314f"/>
        <path id="Trazado_624863" data-name="Trazado 624863" d="M49.2,163.936c-1.322,0-2.644-.019-3.965.008-.688.014-1-.248-1-.953q.019-4.093,0-8.187c0-.693.295-.989.984-.986q4.051.018,8.1,0c.677,0,1,.257,1,.966q-.024,4.093,0,8.187c0,.693-.275.987-.978.973-1.379-.027-2.758-.008-4.137-.008m3.739-4.989c0-1.032-.011-2.065.005-3.1.007-.469-.162-.668-.652-.664q-3.011.025-6.023,0c-.485,0-.663.191-.661.661.01,2.007.013,4.015,0,6.022,0,.511.18.708.7.7q2.968-.031,5.937,0c.526.006.712-.187.7-.7-.024-.974-.007-1.95-.007-2.925" transform="translate(-34.062 -118.437)"/>
        <path id="Trazado_624864" data-name="Trazado 624864" d="M54.313,93.914c0,1.352-.017,2.7.007,4.055.012.687-.245,1-.958.992q-4.1-.028-8.2,0c-.665,0-.929-.283-.926-.934q.018-4.1,0-8.2c0-.718.328-.954,1-.95q4.055.024,8.111,0c.7,0,.982.283.968.98-.026,1.351-.008,2.7-.008,4.055m-5.031,3.668c.976,0,1.952-.022,2.927.008.568.018.748-.213.742-.76-.02-1.951-.017-3.9,0-5.853,0-.5-.166-.73-.695-.725q-2.97.023-5.941,0c-.523,0-.707.219-.7.723.013,1.951.016,3.9,0,5.853-.005.546.183.778.748.761.975-.029,1.951-.008,2.927-.008" transform="translate(-34.061 -68.435)"/>
        <path id="Trazado_624865" data-name="Trazado 624865" d="M49.289,218.935c1.351,0,2.7.019,4.052-.008.7-.014.984.278.98.972q-.022,4.094,0,8.188c0,.7-.311.975-.993.972q-4.052-.019-8.1,0c-.689,0-.989-.291-.986-.984q.02-4.094,0-8.188c0-.7.305-.974,1-.96,1.35.027,2.7.008,4.052.008M45.6,227.692H52.95V220.3H45.6Z" transform="translate(-34.062 -168.569)"/>
        <path id="Trazado_624866" data-name="Trazado 624866" d="M49.309,284.087c1.349,0,2.7.02,4.047-.008.7-.015.978.27.974.967q-.027,4.089,0,8.178c0,.659-.278.942-.925.94q-4.133-.011-8.266,0c-.6,0-.889-.272-.887-.888q.012-4.132,0-8.265c0-.646.26-.941.927-.93,1.377.023,2.755.007,4.133.007m3.728,1.313c-2.427,0-4.722-.013-7.016.027-.166,0-.461.395-.465.61-.035,2.069-.013,4.139-.027,6.208,0,.5.222.637.683.634,2.041-.014,4.083-.018,6.124,0,.523.005.714-.18.706-.7-.021-1.379-.006-2.759-.005-4.139,0-.853,0-1.706,0-2.645" transform="translate(-34.07 -218.734)"/>
        <path id="Trazado_624867" data-name="Trazado 624867" d="M120.212,107.855h14.315a1.86,1.86,0,0,1,.765.04c.223.11.495.38.5.59a.9.9,0,0,1-.454.624,1.629,1.629,0,0,1-.758.071q-14.358,0-28.717,0a1.472,1.472,0,0,1-.677-.049c-.217-.125-.511-.405-.49-.586a1.051,1.051,0,0,1,.519-.655,1.724,1.724,0,0,1,.763-.037h14.229" transform="translate(-80.616 -83.028)"/>
        <path id="Trazado_624868" data-name="Trazado 624868" d="M221.992,188.52c0-1.006-.005-2.012,0-3.017.007-1.058.212-1.274,1.252-1.282,1.38-.011,2.759,0,4.139,0,1.2,0,1.205,0,1.207-1.248,0-1.379-.011-2.759.006-4.138.012-.987.312-1.3,1.295-1.3q3.1-.024,6.208,0c.971.01,1.2.273,1.209,1.253.008,1.523.035,3.047-.012,4.568-.021.7.239.894.9.878,1.494-.036,2.989-.016,4.484-.009,1.089.006,1.339.243,1.343,1.3q.013,3.1,0,6.207c-.006.967-.26,1.211-1.243,1.218-1.437.011-2.874,0-4.311,0-1.156,0-1.156,0-1.157,1.2,0,1.437.007,2.874,0,4.31-.007.925-.246,1.181-1.178,1.188q-3.147.025-6.294,0c-.922-.008-1.225-.327-1.237-1.272-.018-1.465-.039-2.932.006-4.4.024-.764-.181-1.081-1.01-1.045-1.463.063-2.931.026-4.4.014-.989-.008-1.2-.227-1.2-1.236-.008-1.063,0-2.126,0-3.189m13.9,9.6c0-1.808,0-3.557,0-5.307,0-1.206.087-1.295,1.258-1.3,1.582,0,3.164-.016,4.746.007.52.008.712-.167.7-.7q-.038-2.242,0-4.485c.008-.527-.184-.7-.7-.7-1.582.023-3.164.01-4.746.007-1.183,0-1.255-.078-1.257-1.3,0-1.746,0-3.493,0-5.276h-5.81v1c0,1.38,0,2.76,0,4.141s-.052,1.427-1.387,1.428q-1.769,0-3.538,0h-1.673v5.862c1.877,0,3.685.031,5.491-.014.843-.021,1.132.328,1.113,1.121-.027,1.15-.006,2.3-.006,3.451,0,.674,0,1.348,0,2.047Z" transform="translate(-170.927 -136.682)"/>
        <path id="Trazado_624869" data-name="Trazado 624869" d="M11.415,91.358c0-.6-.005-1.2,0-1.8.005-.558.257-1.038.829-.952a1.177,1.177,0,0,1,.717.865,29.811,29.811,0,0,1,0,3.852,1.159,1.159,0,0,1-.749.825c-.51.07-.788-.372-.792-.9,0-.629,0-1.257,0-1.886" transform="translate(-8.787 -68.217)"/>
        <path id="Trazado_624870" data-name="Trazado 624870" d="M57.537,163.529c0,.975-.017,1.95.007,2.925.012.514-.173.706-.7.7q-2.968-.033-5.937,0c-.524.006-.708-.191-.7-.7.015-2.007.012-4.015,0-6.022,0-.47.176-.665.661-.661q3.011.024,6.023,0c.49,0,.659.2.652.664-.017,1.032-.005,2.064,0,3.1m-4.048.593c-.476-.385-.855-.686-1.228-1-.4-.327-.831-.646-1.269-.149s-.063.888.333,1.218c.484.4.984.788,1.451,1.21a.956.956,0,0,0,1.6-.108c.749-.9,1.544-1.768,2.316-2.653.343-.394.771-.826.232-1.324s-.929-.034-1.278.359c-.7.788-1.4,1.581-2.156,2.443" transform="translate(-38.656 -123.019)" fill="#d5ea79"/>
        <path id="Trazado_624871" data-name="Trazado 624871" d="M53.871,102.181c-.976,0-1.952-.021-2.927.008-.565.017-.753-.215-.748-.761.019-1.951.016-3.9,0-5.853,0-.5.181-.727.7-.723q2.97.022,5.94,0c.529,0,.7.223.695.725-.015,1.951-.018,3.9,0,5.853.006.547-.174.777-.742.76-.975-.03-1.951-.008-2.927-.008m-.388-3a8.889,8.889,0,0,0-1.419-1.114c-.3-.15-.745,0-1.125.009.078.35.045.8.256,1.03a20.68,20.68,0,0,0,1.7,1.448.866.866,0,0,0,1.4-.124c.82-.957,1.661-1.9,2.491-2.845.321-.366.6-.779.151-1.2-.492-.463-.885-.123-1.23.269l-2.222,2.527" transform="translate(-38.65 -73.033)" fill="#d5ea79"/>
        <rect id="Rect치ngulo_334226" data-name="Rect치ngulo 334226" width="7.347" height="7.392" transform="translate(11.541 51.731)" fill="#ffcd0d"/>
        <path id="Trazado_624872" data-name="Trazado 624872" d="M57.322,289.82c0,.939,0,1.792,0,2.645,0,1.38-.015,2.76.005,4.139.008.519-.183.7-.706.7-2.041-.021-4.083-.017-6.124,0-.461,0-.687-.134-.683-.634.014-2.069-.008-4.139.027-6.208,0-.215.3-.607.465-.61,2.294-.04,4.588-.027,7.016-.027" transform="translate(-38.356 -223.154)" fill="#ffcd0d"/>
        <path id="Trazado_624873" data-name="Trazado 624873" d="M240.889,203.373h-5.81c0-.7,0-1.373,0-2.047,0-1.15-.021-2.3.006-3.451.019-.793-.271-1.142-1.113-1.121-1.806.045-3.614.014-5.491.014v-5.862h1.673q1.769,0,3.538,0c1.335,0,1.384-.049,1.387-1.428s0-2.76,0-4.141v-1h5.81c0,1.783,0,3.529,0,5.275,0,1.217.074,1.293,1.257,1.3,1.582,0,3.164.016,4.746-.007.52-.008.712.17.7.7q-.037,2.242,0,4.485c.009.528-.183.7-.7.7-1.582-.023-3.164-.01-4.746-.007-1.172,0-1.257.091-1.258,1.3,0,1.75,0,3.5,0,5.307" transform="translate(-175.925 -141.934)" fill="#d5ea79"/>
        <path id="Trazado_624874" data-name="Trazado 624874" d="M55.455,168.578c.76-.861,1.456-1.654,2.156-2.443.349-.392.728-.866,1.278-.359s.111.93-.232,1.324c-.771.885-1.567,1.75-2.316,2.653a.956.956,0,0,1-1.6.108c-.467-.422-.967-.807-1.451-1.21-.4-.33-.78-.71-.333-1.218s.874-.179,1.269.149c.373.309.753.61,1.228,1" transform="translate(-40.622 -127.474)"/>
        <path id="Trazado_624875" data-name="Trazado 624875" d="M55.969,103.551l2.222-2.527c.345-.392.739-.732,1.23-.269.448.421.171.833-.151,1.2-.831.948-1.671,1.888-2.491,2.845a.866.866,0,0,1-1.4.124,20.678,20.678,0,0,1-1.7-1.448c-.211-.226-.178-.68-.256-1.03.38-.013.827-.159,1.125-.009a8.891,8.891,0,0,1,1.419,1.114" transform="translate(-41.135 -77.407)"/>
      </g>
    </g>
  </g>
</svg>
