<svg xmlns="http://www.w3.org/2000/svg" width="104.584" height="101.268" viewBox="0 0 104.584 101.268">
  <g id="Grupo_894362" data-name="Grupo 894362" transform="translate(7.164 -23.753)">
    <g id="Grupo_236904" data-name="Grupo 236904" transform="translate(-7.164 23.753)">
      <path id="Trazado_261741" data-name="Trazado 261741" d="M84.821,62.182c4.072.037,6.97,2.754,7.837,7.219a11.954,11.954,0,0,1-1.348,8.357c-.159.285-.276.86-.125,1.009C92.75,80.3,92.86,82.455,93.6,84.333c.316.8.513,1.653.766,2.49,3.08-1.612,3.91-1.52,6.5.663,1.812,1.529,3.636,3.046,5.442,4.559a4.856,4.856,0,0,1,6.422,2.125,1.817,1.817,0,0,1-.22,2.2c-2.055,2.458-4.1,4.922-6.2,7.348a1.9,1.9,0,0,1-2.921.177c-.434-.344-.85-.709-1.271-1.069-1.821-1.555-2.007-2.576-.789-4.729-1.24-1.046-2.489-2.117-3.764-3.156-.167-.136-.606-.226-.675-.14a1.088,1.088,0,0,0-.227.785c.341,1.824.752,3.635,1.091,5.46a72.25,72.25,0,0,1,1.555,16.022,15.741,15.741,0,0,1-.2,2.242c-.215,1.166-.435,2.23.723,3.148.389.309.474,1.154.486,1.759.051,2.571.046,5.144.015,7.716-.025,2.037-1.137,3.083-3.207,3.107-.4,0-.791,0-1.187,0-6.478.09-12.956.267-19.434.253-11.5-.024-23.009-.174-34.513-.242a3.131,3.131,0,0,1-3.257-2.451c-1.1.511-2.138,1.054-3.222,1.474a14.126,14.126,0,0,1-2.722.767,4.623,4.623,0,0,1-5.668-4.008c-.639-3.69-.089-7.335.576-10.959A67.8,67.8,0,0,1,31.86,105.95c-2.49-1.372-3.388-3.481-3.362-6.222q.107-10.98.007-21.963c-.032-4.025,1.569-6.914,5.322-8.548a1.315,1.315,0,0,0,.586-.944c.084-.862.006-1.739.039-2.609a2.789,2.789,0,0,1,2.774-2.813c1.106-.048,2.216-.026,3.324-.01a2.877,2.877,0,0,1,3.116,2.99c.048,1.1.009,2.21.009,3.19l4.019,2.406A37.769,37.769,0,0,0,49.2,62.34c.286-4.136.411-8.293,1.865-12.26,2.72-7.423,9.145-11.773,16.955-11.23A13.092,13.092,0,0,1,78.76,45.707,3.862,3.862,0,0,0,80.2,46.914c.751.423,1.6.674,2.37,1.064,2.733,1.383,3.565,3.139,3.15,6.2-.361,2.657-.6,5.329-.9,8M32.35,109.663c-.919,3.419-1.969,6.81-2.719,10.266a27.958,27.958,0,0,0-.673,10.345c.331,2.093,1.5,3.117,3.552,2.6a36.4,36.4,0,0,0,5.861-2.384c.23-.1.362-.647.369-.99.036-1.777-.093-3.566.066-5.33a3.592,3.592,0,0,1,1.078-2.336,2.505,2.505,0,0,0,.9-2.086c.245-2.039-.337-3.236-2.44-4.065a8.639,8.639,0,0,1-5.55-6.034l-.169-.4-.277.4M43.778,84.21c-2.142,4-4.45,7.919-6.369,12.022a43.44,43.44,0,0,0-3.012,8.8,7.768,7.768,0,0,0,5.893,9.352,19,19,0,0,1,5.816-11.745c2.011-1.953,4.343-3.023,7.226-1.829.48-1.007.918-1.974,1.4-2.919s1.015-1.873,1.508-2.817c.309-.591.723-1,1.408-.656.77.39.582,1,.247,1.609-.6,1.109-1.216,2.215-1.773,3.347-1.227,2.492-1.192,2.476.869,4.413a3.435,3.435,0,0,0,3.864.914,11.325,11.325,0,0,1,7.114-.161,1.911,1.911,0,0,0,1.84-.347q10.217-7.21,20.469-14.369c2.556-1.791,2.558-1.789,1.576-4.72a.823.823,0,0,0-.135-.192l-.845-2.9c-.418.208-.723.37-1.037.514q-8.433,3.876-16.87,7.741a6.2,6.2,0,0,1-5.058.129c-4.139-1.648-8.295-3.253-12.445-4.873-3.4-1.329-6.809-2.654-10.286-4.01l-1.4,2.69M62.247,61.57c-.307-2.773-.614-5.442-.9-8.114a4.857,4.857,0,0,1,2.61-5.148,17.867,17.867,0,0,1,7.513-2.347c1.659-.114,3.333-.021,5.061-.021a10.866,10.866,0,0,0-6.127-4.728C64.268,39.29,57.268,42.3,53.976,48.268a24.917,24.917,0,0,0-2.634,10.723c-.3,4.774-.511,9.571-2.174,14.124-.834,2.285-1.869,4.5-2.825,6.772a4.268,4.268,0,0,0,.457.234c7.2,2.806,14.417,5.592,21.61,8.426a4.551,4.551,0,0,0,3.775-.02q8.541-3.936,17.084-7.866a3.278,3.278,0,0,0,.568-.431c-.249-.161-.442-.189-.569-.11a3.99,3.99,0,0,1-3.868.148,37.325,37.325,0,0,1-4.365-2.108c-1.078-.632-2-.913-3.1-.106a3.67,3.67,0,0,1-1.333.459,8.844,8.844,0,0,1-7.95-2.057,5.128,5.128,0,0,1-5.847,3.252c-4.145-.47-6.279-2.021-7.324-5.622a12.825,12.825,0,0,1-.186-6.564c.91-3.929,2.382-5.277,6.353-5.834.151-.021.3-.058.6-.117M94.857,96.178c-7.3,5.146-14.371,10.128-21.429,15.132a1.26,1.26,0,0,0-.474.844,23.74,23.74,0,0,1-1.823,8.821H96.977c1.307-8.387-.48-16.484-2.119-24.8M67.318,106.337a10.015,10.015,0,0,0-6.037.215,4.888,4.888,0,0,1-5.344-1.174,30.634,30.634,0,0,0-2.493-2.187c-1.695-1.269-3.1-1.378-4.782-.113A15.333,15.333,0,0,0,42.29,115.1c-.076,1.644.257,2.1,1.872,2.338,2.887.425,5.8.726,8.7.969a11.7,11.7,0,0,1,5.154,1.5,30.455,30.455,0,0,0,5.676,2.6,4.2,4.2,0,0,0,5.163-1.583c1.777-2.585,1.939-5.58,2.152-8.556-3.3-.6-4.533-2.634-3.694-6.033m-34.807-2.254c.236-.883.419-1.65.647-2.4,1.388-4.606,3.7-8.792,5.949-13,2.437-4.557,4.861-9.121,7.343-13.654.616-1.124.235-1.793-.642-2.495A12,12,0,0,0,33.79,71.376a5.832,5.832,0,0,0-3.337,5.352c-.046,7.989-.03,15.979-.011,23.969a3.788,3.788,0,0,0,2.068,3.386M81.046,64.206c.641-.619,1.7-1.147,1.8-1.826.5-3.117.739-6.275,1.051-9.421a2.8,2.8,0,0,0-1.563-2.947,17.673,17.673,0,0,0-17.554.013,2.711,2.711,0,0,0-1.558,2.724c.264,2.943.611,5.879.93,8.863,1.816.1,3.454.533,4.456,2.173,4.316-3.227,8.047-3.13,12.434.422m-8.1,58.819c-1.6.068-3.093-.353-4.5.774a3.81,3.81,0,0,1-2.543.762,52,52,0,0,1-5.394-1.113,11.015,11.015,0,0,0-1.942-.425q-2.847-.087-5.7,0a2.864,2.864,0,0,0-1.512.5q-5.086,3.695-10.1,7.488a1.6,1.6,0,0,0-.562,1.139c.019.992.8.99,1.552.99q14.843-.008,29.686-.007c.338,0,.676-.047,1.012-.071Zm32.241-29.411c-2.039-1.721-4-3.376-5.96-5.029-1.489-1.256-2.044-1.28-3.657-.148Q87.515,94.09,79.46,99.747c-3.139,2.2-6.29,4.387-9.42,6.6-1.388.982-1.53,2.5-.372,3.493.917.788,1.757.544,2.67-.1,7.9-5.6,15.833-11.16,23.73-16.766a1.574,1.574,0,0,1,2.292.107c1.374,1.226,2.818,2.373,4.283,3.6l2.546-3.063M74.877,128.026c0,1.385,0,2.771,0,4.156a1.07,1.07,0,0,0,1.234,1.225c2.731-.012,5.462-.016,8.193,0,.913.006,1.275-.408,1.268-1.3q-.03-4.037,0-8.074c.006-.89-.368-1.32-1.27-1.316q-4.037.014-8.074,0c-.949,0-1.365.457-1.354,1.388.016,1.306,0,2.613,0,3.919m12.617,5.108c3.367,0,6.636.011,9.906-.008.824,0,1.024-.576,1.021-1.3-.009-2.448-.035-4.9.011-7.343.02-1.077-.427-1.5-1.471-1.493-2.329.022-4.659.006-6.988.006h-2.48ZM80.93,76.09c1.9.879,3.637,1.719,5.406,2.488a2.068,2.068,0,0,0,2.619-.742,10,10,0,0,0,.217-11.721c-1.937-2.514-4.758-2.659-7.025-.344A9,9,0,0,1,80.93,76.09M63.887,70.473A9.727,9.727,0,0,0,62.3,64.979c-1.193-1.615-2.675-1.6-3.882.009-2.04,2.717-2.035,8.166.011,10.881,1.205,1.6,2.692,1.6,3.881-.018a9.776,9.776,0,0,0,1.579-5.378m6.09.492a11.871,11.871,0,0,1-.385,2.271c-.426,1.062.128,1.646.856,2.186a6.4,6.4,0,0,0,7.242.665,6.487,6.487,0,0,0,3.6-6.67,6.633,6.633,0,0,0-4.533-5.7,6.414,6.414,0,0,0-6.88,1.607,1.4,1.4,0,0,0-.353,1.014c.086.918.287,1.826.493,3.027.736-1.638,1.531-2.944,3.119-3.453a4.413,4.413,0,0,1,4.647,7.217,5.676,5.676,0,0,1-3.029,1.33c-2.369.286-3.7-1.32-4.776-3.5M111.094,95.11c-.636-.535-1.167-.944-1.654-1.4-.743-.694-1.346-.609-1.979.178-1.087,1.35-2.244,2.644-3.342,3.986-2.1,2.564-2.52,2.12.474,4.531.054.043.145.04.3.079l6.2-7.374M63.825,63.6c2.666,4.865,2.7,9.532-.418,14.1,1.681.309,2.552-.082,3.353-1.763a13.847,13.847,0,0,0,.719-9.829c-.564-2.093-1.428-2.621-3.654-2.512M40.657,129.213l8.014-5.927a45.2,45.2,0,0,0-7.029-.221c-.343.015-.912.69-.94,1.091-.11,1.566-.045,3.143-.045,5.056m33.884-56.6a2.521,2.521,0,1,0-2.506-2.6,2.562,2.562,0,0,0,2.506,2.6m-32.763-4.16c0-.857.01-1.681,0-2.505a1.086,1.086,0,0,0-1.248-1.216,26.629,26.629,0,0,0-3.064.049,1.515,1.515,0,0,0-1.062.93,16.138,16.138,0,0,0-.05,2.742Zm.939,50.822v1.846c2.78,0,5.5.023,8.211-.027.375-.007.742-.383,1.205-.639l-9.416-1.179m13.264,1.638c-.02.064-.071.14-.051.181s.11.064.169.094c.019-.056.069-.131.049-.166-.029-.051-.108-.073-.167-.109" transform="translate(-26.836 -34.03)" fill="#040304"/>
      <path id="Trazado_261742" data-name="Trazado 261742" d="M274.788,43.592a8.665,8.665,0,0,1,.081,12.479c-3.4,3.294-8.383,3.249-12.236-.188-.182.173-.37.349-.554.529a3.4,3.4,0,0,1-4.134.656,3.319,3.319,0,0,1-1.738-3.8c.352-1.233-.209-1.778-1.158-2.212s-1.508-.053-2,.82a3.309,3.309,0,0,1-3.638,1.645,3.525,3.525,0,0,1-2.734-2.655,3.344,3.344,0,0,1,1.592-3.669,1.549,1.549,0,0,0,.709-2.28,1.415,1.415,0,0,0-1.959-.935,3.291,3.291,0,0,1-3.753-1.343,3.387,3.387,0,0,1-.03-3.9,3.315,3.315,0,0,1,3.728-1.4,1.558,1.558,0,0,0,2.056-1.051,1.48,1.48,0,0,0-.775-2.146,3.262,3.262,0,0,1-1.63-3.639,3.371,3.371,0,0,1,2.77-2.73,3.253,3.253,0,0,1,3.548,1.587,1.735,1.735,0,0,0,3.212-1.273,3.314,3.314,0,0,1,1.354-3.747,3.592,3.592,0,0,1,3.914-.009,3.476,3.476,0,0,1,1.395,3.75,1.708,1.708,0,0,0,1.843,2.254,1.844,1.844,0,0,0,1.175-.779c1.014-1.489,2.3-2.177,3.764-1.885a3.471,3.471,0,0,1,2.752,2.77,3.331,3.331,0,0,1-1.842,3.752,1.492,1.492,0,0,0-.581,2.132,1.389,1.389,0,0,0,1.747,1.008c2.1-.47,3.448.032,4.287,1.538.855,1.535.5,3.06-1.165,4.723m-14.577,6.831a8.954,8.954,0,0,1,2.226-6.226c2.734-2.918,6.016-3.51,9.766-2.3a2.257,2.257,0,0,0,1.87-.429,1.952,1.952,0,0,0,.126-1.7c-.283-.757-1.046-.86-1.818-.692-2.135.463-3.44-.159-4.222-1.994a3.347,3.347,0,0,1,1.449-4.559c.666-.439,1.1-1.038.791-1.781-.2-.476-.78-1.131-1.16-1.112a2.479,2.479,0,0,0-1.7.911,3.369,3.369,0,0,1-4.49,1.4,3.253,3.253,0,0,1-2.13-4.162,1.478,1.478,0,0,0-.846-1.955,1.665,1.665,0,0,0-1.5.208,2.766,2.766,0,0,0-.479,1.892,3.39,3.39,0,0,1-2.258,4.025,3.184,3.184,0,0,1-4.309-1.284c-.435-.7-.985-1.261-1.808-.973a2.142,2.142,0,0,0-1.168,1.147c-.316.876.262,1.44,1.01,1.9a3.167,3.167,0,0,1,1.2,4.33,3.245,3.245,0,0,1-3.951,2.166c-.825-.208-1.581-.159-1.956.6a2.162,2.162,0,0,0-.017,1.641c.364.808,1.165.747,1.964.64a4.283,4.283,0,0,1,2.056.058,3.785,3.785,0,0,1,2.238,3.388,3.188,3.188,0,0,1-1.624,3.185,2.35,2.35,0,0,0-.827,1.731c0,.384.674.938,1.156,1.113.754.274,1.3-.216,1.764-.855a4.549,4.549,0,0,1,1.568-1.508,3.532,3.532,0,0,1,3.849.783,2.962,2.962,0,0,1,1.15,3.362A1.439,1.439,0,0,0,258.8,55.3a2.215,2.215,0,0,0,1.725-.134c.756-.435.652-1.215.392-2.007-.342-1.042-.551-2.128-.7-2.74m3.382,3.487,9.208-9.348a6.616,6.616,0,0,0-9.208,9.348m1.492,1.5a6.628,6.628,0,0,0,8.754-1,6.4,6.4,0,0,0,.4-8.306l-9.158,9.306" transform="translate(-174.163 -23.753)" fill="#070506"/>
      <path id="Trazado_261743" data-name="Trazado 261743" d="M292.528,232.943a7.044,7.044,0,0,1,1.031.7q8.194,8.162,16.368,16.344c.5.5.8,1.056.2,1.637-.563.548-1.076.218-1.536-.242q-8.217-8.224-16.419-16.46a1.807,1.807,0,0,1-.387-1.227c.008-.235.437-.456.743-.747" transform="translate(-207.718 -166.569)" fill="#0f0f0f"/>
      <path id="Trazado_261744" data-name="Trazado 261744" d="M302.166,263.019c-.124,1.892-.788,2.933-2.1,3.528a2.9,2.9,0,0,1-3.385-.541c-.268-.294-.232-.864-.334-1.308.481-.063,1.091-.342,1.417-.146.809.487,1.487.565,2.1-.17.67-.81.327-1.508-.34-2.17q-4.08-4.045-8.124-8.125a1.916,1.916,0,0,1-.64-.944c-.029-.3.275-.861.509-.906a1.582,1.582,0,0,1,1.227.314c1.743,1.661,3.428,3.383,5.131,5.086,1.145,1.145,2.346,2.24,3.41,3.456a9.885,9.885,0,0,1,1.131,1.926" transform="translate(-207.017 -179.727)" fill="#060606"/>
      <path id="Trazado_261745" data-name="Trazado 261745" d="M325.022,240.3a3.607,3.607,0,0,1-2.074,3.408,2.921,2.921,0,0,1-3.5-.581q-4.446-4.357-8.793-8.814a1.45,1.45,0,0,1-.108-1.4c.437-.6,1.022-.311,1.5.166,2.763,2.771,5.539,5.529,8.3,8.3.607.61,1.242,1.051,2.066.444a1.294,1.294,0,0,0,.327-2.045c-.434-.546-.589-1.091.03-1.533.677-.484,1.229-.082,1.574.5a11.746,11.746,0,0,1,.681,1.542" transform="translate(-220.438 -166.323)" fill="#050505"/>
      <path id="Trazado_261746" data-name="Trazado 261746" d="M107.574,182.61a.83.83,0,0,1,.135.192c.983,2.93.981,2.928-1.576,4.72Q95.893,194.7,85.664,201.89a1.911,1.911,0,0,1-1.84.347,11.326,11.326,0,0,0-7.115.161,3.435,3.435,0,0,1-3.864-.914c-2.061-1.937-2.1-1.921-.868-4.413.557-1.132,1.169-2.238,1.773-3.347.334-.614.523-1.22-.247-1.61-.685-.346-1.1.065-1.408.656-.493.944-1.026,1.868-1.508,2.817s-.917,1.911-1.4,2.919c-2.882-1.194-5.214-.124-7.226,1.829a19,19,0,0,0-5.816,11.745,7.767,7.767,0,0,1-5.893-9.352,43.438,43.438,0,0,1,3.012-8.8c1.918-4.1,4.226-8.024,6.368-12.023,7.375,2.861,14.744,5.739,22.132,8.567,1.565.6,3.135,1.5,4.884,1.1a27.914,27.914,0,0,0,5.173-1.605c5.284-2.379,10.505-4.895,15.751-7.358" transform="translate(-42.691 -131.725)" fill="#f9d65b"/>
      <path id="Trazado_261747" data-name="Trazado 261747" d="M104.219,65.506c-.295.058-.444.1-.6.117-3.971.557-5.443,1.9-6.353,5.834a12.828,12.828,0,0,0,.186,6.564c1.045,3.6,3.18,5.152,7.324,5.622a5.129,5.129,0,0,0,5.847-3.252,8.844,8.844,0,0,0,7.95,2.057,3.671,3.671,0,0,0,1.333-.459c1.094-.807,2.019-.526,3.1.106a37.372,37.372,0,0,0,4.365,2.108,3.99,3.99,0,0,0,3.868-.148c.126-.079.32-.05.569.11a3.266,3.266,0,0,1-.568.431q-8.538,3.941-17.084,7.866a4.55,4.55,0,0,1-3.775.02c-7.193-2.834-14.406-5.62-21.61-8.426a4.277,4.277,0,0,1-.458-.234c.957-2.275,1.991-4.487,2.825-6.772C92.8,72.5,93.009,67.7,93.313,62.927A24.915,24.915,0,0,1,95.947,52.2c3.292-5.967,10.292-8.978,16.431-7.056a10.87,10.87,0,0,1,6.128,4.728c-1.729,0-3.4-.093-5.062.021a17.869,17.869,0,0,0-7.513,2.347,4.857,4.857,0,0,0-2.61,5.148c.283,2.672.589,5.341.9,8.114" transform="translate(-68.808 -37.966)" fill="#f8d55b"/>
      <path id="Trazado_261748" data-name="Trazado 261748" d="M190.168,219.626c1.639,8.313,3.426,16.41,2.119,24.8H166.443a23.74,23.74,0,0,0,1.823-8.821,1.26,1.26,0,0,1,.474-.844c7.058-5,14.13-9.986,21.429-15.132" transform="translate(-122.147 -157.477)" fill="#f9d65b"/>
      <path id="Trazado_261749" data-name="Trazado 261749" d="M100.548,242.7c-.84,3.4.4,5.436,3.694,6.034-.213,2.976-.375,5.971-2.152,8.556a4.2,4.2,0,0,1-5.163,1.583,30.456,30.456,0,0,1-5.676-2.6,11.7,11.7,0,0,0-5.154-1.5c-2.909-.243-5.817-.544-8.7-.969-1.615-.238-1.948-.695-1.872-2.338a15.332,15.332,0,0,1,6.373-12.025c1.681-1.266,3.087-1.157,4.782.112a30.576,30.576,0,0,1,2.493,2.188,4.889,4.889,0,0,0,5.344,1.174,10.015,10.015,0,0,1,6.037-.215" transform="translate(-60.066 -170.396)" fill="#f59545"/>
      <path id="Trazado_261750" data-name="Trazado 261750" d="M40.229,171.779a3.788,3.788,0,0,1-2.068-3.386c-.019-7.99-.036-15.98.011-23.969a5.833,5.833,0,0,1,3.337-5.352,12,12,0,0,1,12.017,1.152c.878.7,1.258,1.37.642,2.495-2.482,4.533-4.906,9.1-7.343,13.653-2.252,4.211-4.561,8.4-5.949,13-.227.754-.41,1.521-.647,2.4" transform="translate(-34.555 -101.725)" fill="#b6b6cd"/>
      <path id="Trazado_261751" data-name="Trazado 261751" d="M159.318,83.312c-4.388-3.552-8.118-3.648-12.434-.421-1-1.64-2.64-2.069-4.456-2.173-.318-2.984-.665-5.92-.93-8.863a2.711,2.711,0,0,1,1.558-2.724,17.673,17.673,0,0,1,17.554-.013,2.8,2.8,0,0,1,1.563,2.946c-.313,3.146-.555,6.3-1.052,9.421-.108.679-1.163,1.207-1.8,1.826" transform="translate(-105.108 -53.135)" fill="#e4e3ef"/>
      <path id="Trazado_261752" data-name="Trazado 261752" d="M102.777,304.141V314.18c-.335.025-.674.071-1.012.071q-14.843.006-29.686.007c-.749,0-1.532,0-1.552-.99a1.6,1.6,0,0,1,.562-1.139q5.015-3.791,10.1-7.488a2.865,2.865,0,0,1,1.512-.5q2.848-.087,5.7,0a10.991,10.991,0,0,1,1.943.425,52.183,52.183,0,0,0,5.394,1.113,3.812,3.812,0,0,0,2.544-.762c1.4-1.126,2.9-.706,4.5-.774" transform="translate(-56.665 -215.146)" fill="#7f7690"/>
      <path id="Trazado_261754" data-name="Trazado 261754" d="M195.674,198.635l-2.546,3.063c-1.466-1.223-2.909-2.371-4.283-3.6a1.575,1.575,0,0,0-2.293-.107c-7.9,5.607-15.826,11.168-23.729,16.766-.914.647-1.753.892-2.671.1-1.157-.995-1.015-2.511.373-3.493,3.129-2.215,6.281-4.4,9.42-6.6q8.058-5.653,16.112-11.311c1.613-1.132,2.168-1.108,3.657.148,1.961,1.653,3.921,3.308,5.96,5.029" transform="translate(-117.321 -139.05)" fill="#7e758f"/>
      <path id="Trazado_261755" data-name="Trazado 261755" d="M128.174,176.822c-5.245,2.463-10.467,4.979-15.751,7.358a27.914,27.914,0,0,1-5.173,1.605c-1.75.4-3.32-.5-4.884-1.1-7.388-2.828-14.757-5.706-22.132-8.567l1.4-2.69c3.477,1.355,6.882,2.681,10.286,4.01,4.15,1.62,8.306,3.225,12.445,4.873a6.2,6.2,0,0,0,5.058-.129q8.446-3.847,16.871-7.741c.313-.144.619-.306,1.037-.514l.844,2.9" transform="translate(-63.291 -125.937)" fill="#f5b650"/>
      <path id="Trazado_261756" data-name="Trazado 261756" d="M178.232,308.581c0-1.306.011-2.613,0-3.919-.011-.931.405-1.392,1.355-1.388q4.037.015,8.074,0c.9,0,1.276.426,1.27,1.316q-.029,4.037,0,8.074c.007.892-.355,1.306-1.268,1.3-2.731-.019-5.462-.014-8.193,0a1.07,1.07,0,0,1-1.234-1.225c0-1.385,0-2.771,0-4.156" transform="translate(-130.192 -214.584)" fill="#7e7590"/>
      <path id="Trazado_261757" data-name="Trazado 261757" d="M218.01,314.28V304.147h2.48c2.329,0,4.659.016,6.988-.006,1.044-.01,1.491.417,1.471,1.493-.046,2.447-.02,4.9-.011,7.343,0,.72-.2,1.291-1.021,1.3-3.27.019-6.539.008-9.906.008" transform="translate(-157.352 -215.176)" fill="#7e758f"/>
      <path id="Trazado_261758" data-name="Trazado 261758" d="M197.322,130.573a9.005,9.005,0,0,0,1.217-10.321c2.267-2.315,5.088-2.169,7.025.344a10,10,0,0,1-.217,11.721,2.069,2.069,0,0,1-2.619.742c-1.769-.768-3.506-1.609-5.405-2.487" transform="translate(-143.228 -88.512)" fill="#b5b5cc"/>
      <path id="Trazado_261759" data-name="Trazado 261759" d="M128.553,124.2a9.775,9.775,0,0,1-1.579,5.377c-1.19,1.622-2.676,1.618-3.881.018-2.046-2.715-2.051-8.165-.011-10.881,1.208-1.608,2.69-1.624,3.882-.009a9.726,9.726,0,0,1,1.589,5.494" transform="translate(-91.502 -87.756)" fill="#b4b4cb"/>
      <path id="Trazado_261760" data-name="Trazado 261760" d="M161.655,123.716c1.076,2.175,2.407,3.781,4.776,3.5a5.677,5.677,0,0,0,3.029-1.33,4.413,4.413,0,0,0-4.647-7.217c-1.587.51-2.382,1.815-3.119,3.453-.206-1.2-.407-2.109-.493-3.027a1.4,1.4,0,0,1,.353-1.014,6.414,6.414,0,0,1,6.88-1.607,6.633,6.633,0,0,1,4.533,5.7,6.487,6.487,0,0,1-3.6,6.67,6.4,6.4,0,0,1-7.242-.665c-.729-.54-1.283-1.123-.856-2.186a11.871,11.871,0,0,0,.385-2.271" transform="translate(-118.514 -86.781)" fill="#6d637f"/>
      <path id="Trazado_261761" data-name="Trazado 261761" d="M273.782,212.235l-6.2,7.374c-.154-.039-.245-.036-.3-.079-2.993-2.41-2.572-1.967-.474-4.531,1.1-1.342,2.256-2.635,3.342-3.986.633-.787,1.236-.872,1.979-.178.488.456,1.018.865,1.654,1.4" transform="translate(-189.524 -151.154)" fill="#9d9ab1"/>
      <path id="Trazado_261762" data-name="Trazado 261762" d="M142.516,116.917c2.226-.109,3.09.419,3.654,2.512a13.847,13.847,0,0,1-.719,9.829c-.8,1.681-1.672,2.072-3.353,1.763,3.119-4.573,3.084-9.24.417-14.1" transform="translate(-105.527 -87.348)" fill="#9d9ab1"/>
      <path id="Trazado_261763" data-name="Trazado 261763" d="M70.355,310.414c0-1.913-.065-3.491.045-5.056.028-.4.6-1.076.94-1.091a45.2,45.2,0,0,1,7.029.22l-8.014,5.927" transform="translate(-56.534 -215.23)" fill="#7a718b"/>
      <path id="Trazado_261764" data-name="Trazado 261764" d="M171.791,134.523a2.522,2.522,0,1,1,2.623-2.488,2.554,2.554,0,0,1-2.623,2.488" transform="translate(-124.086 -95.935)" fill="#7e758f"/>
      <path id="Trazado_261765" data-name="Trazado 261765" d="M62.175,124.205H56.748a16.138,16.138,0,0,1,.05-2.742,1.515,1.515,0,0,1,1.062-.93,26.627,26.627,0,0,1,3.064-.049,1.086,1.086,0,0,1,1.248,1.216c.012.824,0,1.648,0,2.505" transform="translate(-47.233 -89.778)" fill="#9d9ab1"/>
      <path id="Trazado_261766" data-name="Trazado 261766" d="M76.887,292.433l9.416,1.18c-.463.256-.831.632-1.205.639-2.714.051-5.43.027-8.211.027Z" transform="translate(-61.006 -207.183)" fill="#efce58"/>
      <path id="Trazado_261767" data-name="Trazado 261767" d="M44.659,261.249l-.446.008.277-.4.169.4" transform="translate(-38.699 -185.623)" fill="#060604"/>
      <path id="Trazado_261768" data-name="Trazado 261768" d="M118.572,297.594c.059.035.138.058.167.109.02.035-.03.109-.049.166-.059-.03-.145-.046-.169-.094s.03-.116.051-.181" transform="translate(-89.427 -210.706)" fill="#060604"/>
      <path id="Trazado_261769" data-name="Trazado 261769" d="M264.621,54.691c.153.612.361,1.7.7,2.74.26.792.365,1.572-.392,2.007a2.217,2.217,0,0,1-1.725.134,1.439,1.439,0,0,1-.669-1.932,2.963,2.963,0,0,0-1.151-3.362,3.531,3.531,0,0,0-3.849-.782A4.546,4.546,0,0,0,255.972,55c-.468.639-1.009,1.129-1.764.855-.482-.175-1.157-.729-1.156-1.112a2.349,2.349,0,0,1,.827-1.731A3.188,3.188,0,0,0,255.5,49.83a3.785,3.785,0,0,0-2.238-3.388,4.283,4.283,0,0,0-2.056-.058c-.8.107-1.6.168-1.964-.639a2.162,2.162,0,0,1,.017-1.641c.376-.762,1.132-.811,1.956-.6a3.245,3.245,0,0,0,3.952-2.166,3.168,3.168,0,0,0-1.2-4.33c-.748-.458-1.326-1.023-1.01-1.9a2.145,2.145,0,0,1,1.168-1.147c.823-.288,1.373.275,1.808.973a3.184,3.184,0,0,0,4.309,1.285A3.39,3.39,0,0,0,262.5,32.19a2.768,2.768,0,0,1,.479-1.892,1.665,1.665,0,0,1,1.5-.208,1.479,1.479,0,0,1,.846,1.955,3.253,3.253,0,0,0,2.13,4.162,3.369,3.369,0,0,0,4.49-1.4,2.481,2.481,0,0,1,1.7-.911c.38-.019.963.636,1.161,1.112.309.744-.125,1.342-.791,1.782a3.347,3.347,0,0,0-1.45,4.559c.782,1.835,2.087,2.456,4.222,1.993.772-.167,1.535-.065,1.818.692a1.95,1.95,0,0,1-.126,1.7,2.255,2.255,0,0,1-1.87.43c-3.751-1.211-7.032-.619-9.767,2.3a8.955,8.955,0,0,0-2.226,6.226m2.87-9.8a3.619,3.619,0,1,0-7.237.064,3.619,3.619,0,0,0,7.237-.064" transform="translate(-178.573 -28.021)" fill="#eb5173"/>
      <path id="Trazado_261770" data-name="Trazado 261770" d="M305.629,95.753a6.616,6.616,0,0,1,9.208-9.348l-9.208,9.348" transform="translate(-216.198 -65.596)" fill="#f8f8f8"/>
      <path id="Trazado_261771" data-name="Trazado 261771" d="M313.394,103.49l9.157-9.306a6.4,6.4,0,0,1-.4,8.306,6.628,6.628,0,0,1-8.754,1" transform="translate(-222.471 -71.837)" fill="#fbfbfb"/>
      <path id="Trazado_261772" data-name="Trazado 261772" d="M291.5,69.073a3.619,3.619,0,0,1-7.237.064,3.619,3.619,0,1,1,7.237-.064m-3.59,1.73a1.679,1.679,0,0,0,1.687-1.755,1.717,1.717,0,1,0-3.433.059,1.677,1.677,0,0,0,1.746,1.7" transform="translate(-202.586 -52.2)" fill="#070304"/>
      <path id="Trazado_261773" data-name="Trazado 261773" d="M292,74.922a1.677,1.677,0,0,1-1.746-1.7,1.717,1.717,0,1,1,3.433-.059A1.679,1.679,0,0,1,292,74.922" transform="translate(-206.676 -56.319)" fill="#e97a93"/>
    </g>
  </g>
</svg>
