<svg xmlns="http://www.w3.org/2000/svg" width="143.633" height="119.027" viewBox="0 0 143.633 119.027">
  <g id="Grupo_893215" data-name="Grupo 893215" transform="translate(7752.095 8010.027)">
    <g id="Grupo_166728" data-name="Grupo 166728" transform="translate(-7730.614 -8010.027)">
      <g id="Grupo_166729" data-name="Grupo 166729" transform="translate(0 0)">
        <path id="Trazado_257709" data-name="Trazado 257709" d="M270.923,118.868a25.227,25.227,0,0,1,9.038,8.418,23.431,23.431,0,0,1-1.649,27.023c-.353.427-.7.862-1.09,1.352,2.33,4.039,4.672,8.074,6.989,12.122,1.219,2.13,2.4,4.28,3.583,6.43.236.43.4.9.59,1.354v2.863a23.515,23.515,0,0,1-1.4,2.412,6.708,6.708,0,0,1-11.16-.44c-1.565-2.477-2.949-5.069-4.426-7.6a8.416,8.416,0,0,0-.63-.833c-1.756-3.117-3.509-6.236-5.283-9.343-.051-.089-.33-.048-.5-.067a21.544,21.544,0,0,1-10-.166c-2.443-.713-4.767-1.832-7.145-2.77a26.132,26.132,0,0,1-7.341-7.2c-.135-.241-.265-.486-.406-.723a22.716,22.716,0,0,1-2.937-16.261c2.483-13.083,14.66-21.187,27.83-18.643l5.94,2.075M276.41,161.5l-1.864-3.293-5.578,3.23,1.939,3.227c2.625,4.579,5.222,9.173,7.888,13.727a3.116,3.116,0,0,0,4.427,1.186,3.2,3.2,0,0,0,1.066-4.476c-2.595-4.551-5.248-9.07-7.878-13.6m-16.273-41.64c-10.872-.114-19.646,8.7-19.784,19.875-.134,10.824,8.677,19.621,19.933,19.691a19.746,19.746,0,0,0,19.653-19.9c.108-10.594-8.87-19.552-19.8-19.667" transform="translate(-166.231 -83.353)" fill="#040302"/>
        <path id="Trazado_257710" data-name="Trazado 257710" d="M107.949,62.651c-13.17-2.544-25.347,5.56-27.83,18.643a22.716,22.716,0,0,0,2.937,16.261c.141.238.271.482.405.723q-.017,1.89-.033,3.781a1.9,1.9,0,0,0-1.72,2.165c.02,1.5-.01,3.01.009,4.515s.67,2.147,2.2,2.164q3.207.035,6.416,0c1.3-.012,2.042-.581,2.151-1.58.115-1.054-.379-1.643-1.7-2.025q.009-.909.019-1.819c2.377.938,4.7,2.057,7.144,2.77a21.545,21.545,0,0,0,10,.166l.013,9.142c-.158.016-.316.045-.474.045q-46.377,0-92.753,0c-1.468,0-1.955-.523-1.955-2.052q0-36.362,0-72.724c0-1.5.507-2.007,2-2.015,2.464-.013,4.928-.034,7.391.008a2.028,2.028,0,0,0,2.336-1.7H28.02c.574,1.508.86,1.69,2.707,1.69q37.784,0,75.568,0c.476,0,.951.027,1.427.041a6.777,6.777,0,0,1,.24,1.266q.011,10.269-.014,20.537M66.607,72c-1.959-1.11-3.9-2.177-5.8-3.323a1.445,1.445,0,0,1-.567-1.088A6.043,6.043,0,0,0,54.259,61.1,5.949,5.949,0,0,0,48.366,67.5a1.171,1.171,0,0,1-.733,1.28q-2.407,1.3-4.755,2.709a1.382,1.382,0,0,1-1.764-.037,5.537,5.537,0,0,0-6.488-.04,5.6,5.6,0,0,0-2.638,5.839A5.926,5.926,0,0,0,43.771,76.1a1.337,1.337,0,0,1,.8-1.483c1.65-.866,3.232-1.862,4.884-2.722a1.574,1.574,0,0,1,1.327.018,6.042,6.042,0,0,0,6.94.031,1.583,1.583,0,0,1,1.326-.074c1.689.876,3.307,1.887,4.989,2.779a1.265,1.265,0,0,1,.758,1.4,5.834,5.834,0,0,0,3.653,5.852,5.969,5.969,0,0,0,7.429-8.489,1.4,1.4,0,0,1,.057-1.2c2.924-4.158,5.9-8.28,8.842-12.425a1.036,1.036,0,0,1,1.257-.5,5.932,5.932,0,0,0,6.78-7.515,5.685,5.685,0,0,0-4.728-4.179,5.582,5.582,0,0,0-5.743,2.356,5.857,5.857,0,0,0-.495,6.3,1.638,1.638,0,0,1,.067,1.332q-4.407,6.295-8.933,12.505a1.2,1.2,0,0,1-.922.484A6.355,6.355,0,0,0,66.607,72M59.718,96.649c0-3.972.011-7.944-.005-11.915-.007-1.735-.656-2.381-2.373-2.395-2.065-.017-4.131-.021-6.2,0-1.642.018-2.3.679-2.3,2.344q-.016,11.975,0,23.951c0,1.588.676,2.251,2.25,2.268,2.025.022,4.051.01,6.077,0,1.95-.006,2.541-.6,2.544-2.58q.011-5.839,0-11.677m5.551,4.556c0,2.465-.01,4.93,0,7.395.009,1.6.653,2.285,2.213,2.3q3.22.037,6.44,0c1.516-.018,2.182-.661,2.189-2.2q.038-7.514,0-15.028c-.008-1.542-.648-2.145-2.2-2.165-2.107-.027-4.214-.023-6.321,0-1.734.017-2.315.635-2.32,2.42-.008,2.425,0,4.85,0,7.276m-21.973,0c0-2.425.007-4.85,0-7.276-.007-1.813-.61-2.412-2.446-2.424-2.028-.013-4.055-.017-6.083,0-1.7.016-2.332.613-2.339,2.284q-.031,7.395,0,14.79c.007,1.674.663,2.307,2.321,2.321q3.1.025,6.2,0c1.709-.013,2.337-.665,2.345-2.421.011-2.425,0-4.85,0-7.276" transform="translate(-9.198 -29.211)" fill="#e2e2e2"/>
        <path id="Trazado_257711" data-name="Trazado 257711" d="M16.1,34.665a2.027,2.027,0,0,1-2.336,1.7c-2.463-.043-4.928-.022-7.391-.009-1.49.008-2,.518-2,2.015q-.006,36.362,0,72.724c0,1.53.488,2.052,1.955,2.052q46.376.007,92.753,0c.158,0,.316-.029.474-.045,1.3.037,2.645.007,2.95,1.737-.3,1.458-.788,1.881-2.263,1.887-3.372.013-6.744,0-10.249,0,0,1.157.005,2.254,0,3.352-.017,3.012-1.613,4.641-4.64,4.654-5.366.022-10.732.006-16.1.006H68.052c.235.5.4.88.594,1.253q3.79,7.408,7.589,14.812c.41.8.659,1.658-.074,2.291a2.244,2.244,0,0,1-1.781.532,2.946,2.946,0,0,1-1.429-1.428c-2.766-5.306-5.521-10.618-8.168-15.983a2.339,2.339,0,0,0-2.525-1.511c-5.564.078-11.129.062-16.693.007a1.871,1.871,0,0,0-2,1.183c-2.695,5.386-5.461,10.737-8.205,16.1a8.964,8.964,0,0,1-.515.937,1.667,1.667,0,0,1-2.291.628,1.623,1.623,0,0,1-.842-2.208,10.652,10.652,0,0,1,.508-1.073q3.651-7.145,7.305-14.288c.176-.345.335-.7.6-1.251h-1.4q-7.751,0-15.5,0c-3.535,0-5.02-1.474-5.022-4.966,0-.983,0-1.967,0-3.045-4.1,0-8.105.019-12.109-.007A5.04,5.04,0,0,1,.92,112.68,8.053,8.053,0,0,1,.8,111.022q-.008-36.25,0-72.5c0-3.71,2.033-5.737,5.75-5.745,2.424-.005,4.849-.013,7.274,0,1.461.01,1.937.424,2.283,1.885m66.24,86.45c1.06.033,2.123.121,3.177.064.317-.017.855-.423.874-.681.092-1.238.042-2.486.042-3.737H82.376c-.2-.008-.4-.022-.595-.022q-29.559,0-59.118,0c-.266,0-.532.024-.878.04,0,.946,0,1.812,0,2.678,0,1.7,0,1.7,1.683,1.7q28.785.006,57.569.01c.436,0,.871-.033,1.307-.05" transform="translate(-0.795 -24.763)" fill="#030302"/>
        <path id="Trazado_257712" data-name="Trazado 257712" d="M143.491,17.61c-.476-.014-.951-.041-1.427-.041q-37.784,0-75.568,0c-1.847,0-2.134-.182-2.708-1.69.417-1.553.855-1.888,2.535-1.889q10.311-.006,20.622,0h1.4c0-1.154-.016-2.216,0-3.278.049-2.779,1.73-4.616,4.471-4.676q5.421-.118,10.847,0a4.411,4.411,0,0,1,4.519,4.65c.018,1.065,0,2.13,0,3.305h37.349c4.083,0,6.032,1.966,6.033,6.082q0,7.688,0,15.377c0,1.583-.394,2.074-1.856,2.436a1.986,1.986,0,0,1-1.733-2.293c.028-5.286.016-10.573.009-15.859,0-1.652-.5-2.153-2.117-2.16-.794,0-1.588.027-2.381.041M100.539,9.663c-2.5-.023-5-.081-7.5-.032a1.373,1.373,0,0,0-1.045.8,32.417,32.417,0,0,0-.05,3.506h12.661c0-1.149,0-2.208,0-3.266A.971.971,0,0,0,103.492,9.6c-.984.01-1.968.042-2.952.064" transform="translate(-44.965 -5.973)" fill="#030302"/>
        <path id="Trazado_257713" data-name="Trazado 257713" d="M330.528,44.821c.794-.015,1.588-.045,2.381-.041,1.617.007,2.115.508,2.117,2.16.007,5.286.019,10.573-.008,15.859a1.986,1.986,0,0,0,1.733,2.294q-.028,1.8-.056,3.607l-5.94-2.075q.013-10.268.014-20.537a6.765,6.765,0,0,0-.24-1.266" transform="translate(-232.003 -33.184)" fill="#afafaf"/>
        <path id="Trazado_257714" data-name="Trazado 257714" d="M334.248,281.922c-.305-1.731-1.648-1.7-2.95-1.737q-.007-4.571-.013-9.142c.173.019.452-.022.5.067,1.774,3.107,3.527,6.226,5.283,9.343-.886.6-1.513,1.687-2.822,1.47" transform="translate(-232.533 -191.839)" fill="#afafaf"/>
        <path id="Trazado_257715" data-name="Trazado 257715" d="M268.641,128.151c10.933.115,19.91,9.073,19.8,19.667a19.746,19.746,0,0,1-19.653,19.9c-11.256-.071-20.067-8.867-19.933-19.691.138-11.176,8.912-19.99,19.784-19.875m12.823,11.767-2.28-2.878c.584-1.4.451-2.058-.57-2.813a16.954,16.954,0,1,0,5.591,6.971c-.612-1.378-1.232-1.667-2.742-1.279" transform="translate(-174.734 -91.643)" fill="#a3314f"/>
        <path id="Trazado_257716" data-name="Trazado 257716" d="M356.619,267.51c2.63,4.531,5.283,9.049,7.878,13.6a3.2,3.2,0,0,1-1.066,4.476A3.116,3.116,0,0,1,359,284.4c-2.666-4.554-5.263-9.149-7.888-13.727l5.5-3.164" transform="translate(-246.44 -189.362)" fill="#b55a72"/>
        <path id="Trazado_257717" data-name="Trazado 257717" d="M256.6,244.319q-.009.91-.019,1.819h-5.491c0-1.11.018-2.1,0-3.08-.031-1.363-.479-1.867-1.86-2.159q.017-1.891.033-3.781a26.118,26.118,0,0,0,7.341,7.2" transform="translate(-174.991 -168.051)" fill="#ced371"/>
        <path id="Trazado_257718" data-name="Trazado 257718" d="M352.068,259.783l-5.5,3.164-1.94-3.227,5.578-3.23,1.864,3.293" transform="translate(-241.888 -181.635)" fill="#c8395e"/>
        <path id="Trazado_257719" data-name="Trazado 257719" d="M111.5,91.655a6.355,6.355,0,0,1,5.453-1.429,1.2,1.2,0,0,0,.922-.484q4.508-6.222,8.933-12.505a1.638,1.638,0,0,0-.067-1.332,5.857,5.857,0,0,1,.495-6.3,5.581,5.581,0,0,1,5.743-2.355,5.685,5.685,0,0,1,4.728,4.178,5.932,5.932,0,0,1-6.78,7.515,1.035,1.035,0,0,0-1.257.5c-2.942,4.145-5.918,8.267-8.842,12.425a1.394,1.394,0,0,0-.057,1.2,5.969,5.969,0,0,1-7.429,8.489,5.834,5.834,0,0,1-3.652-5.851,1.266,1.266,0,0,0-.758-1.4c-1.681-.892-3.3-1.9-4.989-2.779a1.584,1.584,0,0,0-1.326.074,6.043,6.043,0,0,1-6.94-.031,1.575,1.575,0,0,0-1.327-.018c-1.652.861-3.234,1.856-4.884,2.722a1.337,1.337,0,0,0-.8,1.483,5.926,5.926,0,0,1-11.783,1.16,5.6,5.6,0,0,1,2.638-5.839,5.538,5.538,0,0,1,6.488.04,1.381,1.381,0,0,0,1.764.037q2.349-1.4,4.755-2.709a1.17,1.17,0,0,0,.733-1.28,5.95,5.95,0,0,1,5.894-6.409,6.044,6.044,0,0,1,5.977,6.491,1.447,1.447,0,0,0,.568,1.089c1.9,1.146,3.844,2.213,5.8,3.323m-12.324-7.31A2.454,2.454,0,0,0,96.8,86.686a2.37,2.37,0,1,0,4.739.011,2.46,2.46,0,0,0-2.367-2.351M85.107,96.008a2.443,2.443,0,0,0-2.366-2.34,2.482,2.482,0,0,0-2.367,2.354,2.4,2.4,0,0,0,2.439,2.369,2.376,2.376,0,0,0,2.293-2.383m30.483,2.383a2.416,2.416,0,0,0,2.384-2.312,2.5,2.5,0,0,0-2.435-2.417,2.431,2.431,0,0,0-2.3,2.408,2.33,2.33,0,0,0,2.346,2.321M129.682,73.12a2.361,2.361,0,0,0,2.354,2.346,2.421,2.421,0,0,0,2.342-2.385A2.449,2.449,0,0,0,132,70.724a2.392,2.392,0,0,0-2.316,2.4" transform="translate(-54.091 -48.868)" fill="#030303"/>
        <path id="Trazado_257720" data-name="Trazado 257720" d="M144.333,198.054q0,5.839,0,11.677c0,1.981-.594,2.575-2.544,2.581-2.026.006-4.051.018-6.077,0-1.574-.017-2.247-.68-2.25-2.268q-.021-11.975,0-23.95c0-1.665.658-2.326,2.3-2.344,2.065-.023,4.131-.019,6.2,0,1.717.014,2.366.66,2.373,2.395.016,3.972.005,7.944.005,11.916M140.688,187.4H137.1v21.257h3.59Z" transform="translate(-93.812 -130.615)" fill="#050505"/>
        <path id="Trazado_257721" data-name="Trazado 257721" d="M188.44,224.122c0-2.425-.006-4.85,0-7.276.006-1.785.587-2.4,2.32-2.42,2.107-.021,4.215-.025,6.321,0,1.554.02,2.194.623,2.2,2.165q.04,7.514,0,15.028c-.008,1.537-.674,2.18-2.189,2.2q-3.22.038-6.441,0c-1.56-.018-2.2-.7-2.213-2.3-.014-2.465,0-4.93,0-7.395m3.639,6.031H195.6V218.09h-3.523Z" transform="translate(-132.368 -152.128)" fill="#050606"/>
        <path id="Trazado_257722" data-name="Trazado 257722" d="M89.366,224.136c0,2.425.008,4.85,0,7.276-.008,1.756-.636,2.408-2.345,2.421q-3.1.024-6.2,0c-1.658-.013-2.314-.647-2.321-2.32q-.03-7.395,0-14.79c.007-1.672.641-2.269,2.339-2.284,2.027-.019,4.055-.015,6.083,0,1.836.012,2.438.611,2.446,2.424.01,2.425,0,4.85,0,7.276m-7.214,6.023H85.7V218.086h-3.55Z" transform="translate(-55.268 -152.139)" fill="#040404"/>
        <path id="Trazado_257723" data-name="Trazado 257723" d="M245.183,249.773c1.381.292,1.829.8,1.86,2.159.022.985,0,1.97,0,3.08h5.491c1.321.382,1.816.971,1.7,2.025-.109,1-.849,1.568-2.151,1.58q-3.208.03-6.416,0c-1.532-.017-2.182-.667-2.2-2.164s.012-3.01-.009-4.515a1.9,1.9,0,0,1,1.721-2.165" transform="translate(-170.952 -176.925)" fill="#030303"/>
        <path id="Trazado_257724" data-name="Trazado 257724" d="M131.6,318.162c-.436.017-.871.05-1.307.05q-28.785,0-57.569-.01c-1.683,0-1.683,0-1.683-1.7,0-.866,0-1.731,0-2.678.346-.016.612-.04.878-.04q29.559,0,59.118,0c.2,0,.4.015.595.022q-.016,2.177-.032,4.354" transform="translate(-50.052 -221.809)" fill="#ffb500"/>
        <path id="Trazado_257725" data-name="Trazado 257725" d="M273.714,318.216q.016-2.177.032-4.354h4.061c0,1.251.051,2.5-.042,3.737-.019.259-.558.664-.874.681-1.055.057-2.118-.031-3.177-.064" transform="translate(-192.165 -221.864)" fill="#ffb500"/>
        <path id="Trazado_257726" data-name="Trazado 257726" d="M166.578,22.48h-8.606a32.421,32.421,0,0,1,.05-3.507,1.373,1.373,0,0,1,1.045-.8c2.5-.049,5,.009,7.5.032q.006,2.138.013,4.277" transform="translate(-110.991 -14.513)" fill="#ffb500"/>
        <path id="Trazado_257727" data-name="Trazado 257727" d="M186.8,22.45l-.013-4.277c.984-.022,1.968-.054,2.952-.064a.971.971,0,0,1,1.115,1.075c0,1.059,0,2.117,0,3.266Z" transform="translate(-131.211 -14.482)" fill="#ffb500"/>
        <path id="Trazado_257728" data-name="Trazado 257728" d="M294.15,152.083l2.279,2.878c-1.343,1.042-.73,2.255-.3,3.452a13.387,13.387,0,0,1-21.807,14.265,13.387,13.387,0,0,1,16.593-20.87c1.061.688,2.065,1.242,3.235.274" transform="translate(-189.7 -106.685)" fill="#e2e2e2"/>
        <path id="Trazado_257729" data-name="Trazado 257729" d="M285.727,143.705c-1.17.969-2.174.415-3.235-.274a13.373,13.373,0,1,0,5.214,6.6c-.429-1.2-1.043-2.41.3-3.452,1.51-.388,2.13-.1,2.742,1.279a16.981,16.981,0,1,1-5.592-6.971c1.021.755,1.153,1.409.57,2.813" transform="translate(-181.277 -98.308)" fill="#030302"/>
        <path id="Trazado_257730" data-name="Trazado 257730" d="M146.115,124.7a2.46,2.46,0,0,1,2.367,2.351,2.37,2.37,0,1,1-4.739-.011,2.453,2.453,0,0,1,2.372-2.341" transform="translate(-101.029 -89.227)" fill="#ced371"/>
        <path id="Trazado_257731" data-name="Trazado 257731" d="M93.487,158.247a2.376,2.376,0,0,1-2.293,2.383,2.4,2.4,0,0,1-2.439-2.369,2.482,2.482,0,0,1,2.367-2.354,2.443,2.443,0,0,1,2.366,2.34" transform="translate(-62.472 -111.106)" fill="#ced371"/>
        <path id="Trazado_257732" data-name="Trazado 257732" d="M201.107,160.614a2.33,2.33,0,0,1-2.346-2.32,2.431,2.431,0,0,1,2.3-2.408,2.5,2.5,0,0,1,2.435,2.417,2.416,2.416,0,0,1-2.384,2.312" transform="translate(-139.608 -111.091)" fill="#ced371"/>
        <path id="Trazado_257733" data-name="Trazado 257733" d="M253.774,81.515a2.392,2.392,0,0,1,2.316-2.4,2.449,2.449,0,0,1,2.38,2.358,2.421,2.421,0,0,1-2.342,2.385,2.361,2.361,0,0,1-2.354-2.346" transform="translate(-178.183 -57.262)" fill="#ced371"/>
        <rect id="Rectángulo_52703" data-name="Rectángulo 52703" width="3.59" height="21.257" transform="translate(43.286 56.783)" fill="#ced371"/>
        <rect id="Rectángulo_52704" data-name="Rectángulo 52704" width="3.523" height="12.063" transform="translate(59.711 65.962)" fill="#ced371"/>
        <rect id="Rectángulo_52705" data-name="Rectángulo 52705" width="3.55" height="12.073" transform="translate(26.885 65.947)" fill="#ced371"/>
      </g>
    </g>
    <g id="Grupo_166731" data-name="Grupo 166731" transform="translate(-7752.095 -7944.819)">
      <g id="Grupo_166735" data-name="Grupo 166735" transform="translate(0 0)">
        <path id="Trazado_257735" data-name="Trazado 257735" d="M13.886,54.625c-.322-.283-.624-.577-.431-1.065s.6-.518,1.042-.515c1.067.007,2.134,0,3.241,0l.662-3.3A19.559,19.559,0,0,1,8.763,36.907,9.422,9.422,0,0,1,4.9,36.641a8.593,8.593,0,0,1-3.687-2.225c-.639-.664-.632-1.017.058-1.608a69.306,69.306,0,0,0,6.972-6.761c1.225-1.391,2.4-2.829,3.532-4.3a8.376,8.376,0,0,0,1.649-5.773A13.809,13.809,0,0,1,14.782,8.95a14.013,14.013,0,0,1,9.88-7.816A14.287,14.287,0,0,1,39.748,7.562a13.7,13.7,0,0,1,2.123,8.29,9.154,9.154,0,0,0,2.08,6.472,70.428,70.428,0,0,0,9.676,10.12c.335.29.627.631.939.948v.526A8.7,8.7,0,0,1,46.544,36.9a19.6,19.6,0,0,1-9.629,12.856l.659,3.287c1.135,0,2.237,0,3.338,0,.458,0,.838.1.971.608s-.18.76-.561.972H34.069c-.3-.305-.586-.629-.384-1.093.213-.491.665-.5,1.117-.486.379.01.758,0,1.165,0l-.529-2.58a19.466,19.466,0,0,1-15.57.006l-.516,2.574c.451,0,.853.01,1.253,0,.448-.015.865.05,1.037.526.178.494-.112.808-.5,1.054ZM8.948,27.718c-.129.111-.266.215-.387.334-1.281,1.268-2.549,2.55-3.843,3.8-.638.619-1.322,1.19-2.008,1.8A7.029,7.029,0,0,0,8.443,35.33a1.572,1.572,0,0,0,.018-.239A20.1,20.1,0,0,1,8.617,29.6c.112-.63.216-1.262.323-1.894l.076-.014L9,27.644l-.054.075m36.887,1.619a.888.888,0,0,1-.946-.793,17.465,17.465,0,0,0-2.66-5.884,10.538,10.538,0,0,1-1.919-7.235,8.7,8.7,0,0,0-.092-2.09,12.56,12.56,0,0,0-5.711-8.892,10.952,10.952,0,0,0-5-1.872A24.959,24.959,0,0,0,26.281,2.5,12.551,12.551,0,0,0,15.021,14.252c-.053.941.012,1.888-.015,2.832a11.291,11.291,0,0,1-2.133,5.93,17.368,17.368,0,0,0-2.388,14.2A17.733,17.733,0,0,0,24.9,50.283a35.535,35.535,0,0,0,3.7.154c1.021-.126,2.056-.182,3.059-.392a16.4,16.4,0,0,0,6.095-2.7,17.68,17.68,0,0,0,6.209-7.633,18.251,18.251,0,0,0,1.427-7.57c-.008-.491.134-.858.651-.992.672.061.911.281.923.946.019,1.06.005,2.122.005,3.217a6.656,6.656,0,0,0,5.544-1.638L46.35,27.748c.112.624.386,1.315-.515,1.59" transform="translate(-0.739 -0.806)" fill="#040302"/>
        <path id="Trazado_257738" data-name="Trazado 257738" d="M145.739,42.8c-.518.133-.659.5-.651.992a18.25,18.25,0,0,1-1.427,7.57A17.681,17.681,0,0,1,137.451,59a16.4,16.4,0,0,1-6.095,2.7c-1,.21-2.039.266-3.059.392-.332-.145-.659-.3-1-.433a18.346,18.346,0,0,1-7.893-5.939,17.821,17.821,0,0,1-3.4-7.185,18.483,18.483,0,0,1,2.906-14.757,8.424,8.424,0,0,0,1.7-5.543,3.147,3.147,0,0,0,.525-5.266c.271-.716.488-1.458.825-2.142a12.819,12.819,0,0,1,3.655-4.575A10.79,10.79,0,0,1,129.2,14.22a10.952,10.952,0,0,1,5,1.872,12.56,12.56,0,0,1,5.711,8.892,8.717,8.717,0,0,1,.092,2.09,10.537,10.537,0,0,0,1.919,7.235,17.466,17.466,0,0,1,2.66,5.884.888.888,0,0,0,.946.793l.213,1.816M132.351,30.595a10.035,10.035,0,0,0-.662-1.55A6.886,6.886,0,0,0,129,26.605a3.192,3.192,0,0,0-3.292-.01,7.69,7.69,0,0,0-2.68,2.381,3.228,3.228,0,0,0-.01,3.908,7.3,7.3,0,0,0,2.679,2.379,2.979,2.979,0,0,0,1.948.453,6.332,6.332,0,0,0,3.767-2.478,4,4,0,0,0,.938-2.643m.132-5.164c0,.21-.013.42,0,.629a2.439,2.439,0,0,0,2.1,2.264,2.358,2.358,0,0,0,2.679-1.75,5.6,5.6,0,0,0,0-2.222,2.366,2.366,0,0,0-2.779-1.733,2.49,2.49,0,0,0-2.009,2.813" transform="translate(-100.429 -12.454)" fill="#fedb63"/>
        <path id="Trazado_257739" data-name="Trazado 257739" d="M90,13.465a10.79,10.79,0,0,0-3.572,2.024,12.817,12.817,0,0,0-3.655,4.575c-.337.684-.553,1.426-.825,2.142-.126-.059-.25-.121-.377-.177a2.382,2.382,0,0,0-3.316,1.514,5.267,5.267,0,0,0,.017,2.368c.32,1.32,1.585,1.878,3.152,1.562a8.425,8.425,0,0,1-1.7,5.543,18.482,18.482,0,0,0-2.906,14.757,17.821,17.821,0,0,0,3.4,7.185A18.347,18.347,0,0,0,88.1,60.9c.338.13.664.288,1,.433a35.533,35.533,0,0,1-3.7-.154A17.733,17.733,0,0,1,70.98,48.107a17.368,17.368,0,0,1,2.388-14.2,11.29,11.29,0,0,0,2.133-5.93c.027-.943-.038-1.891.015-2.832A12.551,12.551,0,0,1,86.776,13.388,24.959,24.959,0,0,1,90,13.465" transform="translate(-61.234 -11.699)" fill="#fdc64f"/>
        <path id="Trazado_257740" data-name="Trazado 257740" d="M343.493,208.853l-.213-1.816c.9-.275.627-.966.515-1.59l6.171,5.932a6.656,6.656,0,0,1-5.544,1.638c0-1.1.014-2.157-.005-3.217-.012-.665-.251-.885-.923-.946" transform="translate(-298.184 -178.506)" fill="#e8ad4a"/>
        <path id="Trazado_257741" data-name="Trazado 257741" d="M21.94,205.137c-.107.631-.211,1.263-.323,1.894a20.1,20.1,0,0,0-.155,5.491,1.57,1.57,0,0,1-.018.238,7.028,7.028,0,0,1-5.734-1.669c.686-.613,1.37-1.185,2.008-1.8,1.294-1.255,2.562-2.536,3.843-3.8.121-.12.258-.223.387-.334l-.009-.012" transform="translate(-13.739 -178.236)" fill="#e7ac4a"/>
        <path id="Trazado_257742" data-name="Trazado 257742" d="M63.04,204.734l.054-.075.014.049-.076.014.009.012" transform="translate(-54.83 -177.821)" fill="#e7ac4a"/>
        <path id="Trazado_257743" data-name="Trazado 257743" d="M177.349,109.237a4,4,0,0,1-.938,2.643,6.332,6.332,0,0,1-3.767,2.478,2.978,2.978,0,0,1-1.948-.453,7.3,7.3,0,0,1-2.679-2.379,3.228,3.228,0,0,1,.01-3.908,7.69,7.69,0,0,1,2.68-2.381,3.192,3.192,0,0,1,3.292.01,6.886,6.886,0,0,1,2.688,2.44,10.046,10.046,0,0,1,.662,1.55m-7.924,1.386-.11-.026.07.065a7.4,7.4,0,0,0,.941,1.1c1.75,1.394,2.269,1.4,4.027.014a9.154,9.154,0,0,0,.885-.912l-.1-.139c-.154.053-.309.1-.461.16a5.111,5.111,0,0,1-3.118.431c-.725-.178-1.424-.46-2.135-.7m-.152-2.036c2.206,1.674,4.247,1.578,6.148,0a5.77,5.77,0,0,0-2.386-2.058,1.49,1.49,0,0,0-1.357-.011,5.721,5.721,0,0,0-2.406,2.073" transform="translate(-145.427 -91.096)" fill="#030301"/>
        <path id="Trazado_257744" data-name="Trazado 257744" d="M244.176,80.538a2.49,2.49,0,0,1,2.009-2.813,2.367,2.367,0,0,1,2.779,1.733,5.605,5.605,0,0,1,0,2.222,2.358,2.358,0,0,1-2.679,1.75,2.439,2.439,0,0,1-2.1-2.264c-.015-.209,0-.419,0-.629m3.265.055c.1-.706-.054-1.165-.52-1.242a1.3,1.3,0,0,0-.9.2c-.382.285-.317.735-.162,1.151a.642.642,0,0,0,.247.963,1.255,1.255,0,0,0,.992.026.78.78,0,0,0,.342-1.1" transform="translate(-212.123 -67.561)" fill="#040302"/>
        <path id="Trazado_257745" data-name="Trazado 257745" d="M132.375,83.3c-1.567.316-2.832-.241-3.152-1.562a5.265,5.265,0,0,1-.017-2.368,2.382,2.382,0,0,1,3.316-1.514c.127.056.251.118.377.177a3.147,3.147,0,0,1-.525,5.266m-.093-2.633c.218-.717.036-1.219-.5-1.378-.748-.221-1.21.323-1.08,1.27a.781.781,0,0,0,.342,1.1,1.255,1.255,0,0,0,.992-.026.644.644,0,0,0,.247-.963" transform="translate(-112.183 -67.528)" fill="#040302"/>
        <path id="Trazado_257746" data-name="Trazado 257746" d="M181.861,118.95a5.721,5.721,0,0,1,2.406-2.073,1.49,1.49,0,0,1,1.357.011,5.77,5.77,0,0,1,2.386,2.058c-1.9,1.583-3.942,1.679-6.148,0" transform="translate(-158.016 -101.459)" fill="#e78f4a"/>
        <path id="Trazado_257747" data-name="Trazado 257747" d="M182.758,149.128c.711.236,1.41.518,2.135.7a5.112,5.112,0,0,0,3.118-.431c.151-.059.307-.107.461-.16l.1.139a9.171,9.171,0,0,1-.885.912c-1.758,1.383-2.277,1.38-4.027-.014a7.4,7.4,0,0,1-.941-1.1l.04-.04" transform="translate(-158.76 -129.601)" fill="#c97339"/>
        <path id="Trazado_257748" data-name="Trazado 257748" d="M182.254,149l-.07-.065.11.026-.04.039" transform="translate(-158.296 -129.431)" fill="#c97339"/>
        <path id="Trazado_257749" data-name="Trazado 257749" d="M256.191,91.617c-.155-.416-.22-.866.162-1.151a1.3,1.3,0,0,1,.9-.2c.466.077.621.536.52,1.242-.61.559-.865.576-1.582.108" transform="translate(-222.454 -78.477)" fill="#f9f9f9"/>
        <path id="Trazado_257750" data-name="Trazado 257750" d="M256.2,99.9c.716.468.971.451,1.582-.108a.78.78,0,0,1-.342,1.1,1.255,1.255,0,0,1-.992-.026.642.642,0,0,1-.247-.963" transform="translate(-222.467 -86.762)" fill="#5c535f"/>
        <path id="Trazado_257751" data-name="Trazado 257751" d="M141.243,91.092c-.13-.947.332-1.491,1.08-1.27.538.159.721.661.5,1.378-.717.468-.971.451-1.582-.108" transform="translate(-122.726 -78.06)" fill="#f9f9f9"/>
        <path id="Trazado_257752" data-name="Trazado 257752" d="M140.736,99.793c.611.558.866.576,1.582.108a.644.644,0,0,1-.247.963,1.256,1.256,0,0,1-.992.026.781.781,0,0,1-.342-1.1" transform="translate(-122.219 -86.761)" fill="#5c535f"/>
      </g>
    </g>
    <path id="Trazado_620828" data-name="Trazado 620828" d="M166.65,229.048A10.8,10.8,0,0,1,177.7,240.066a11.016,11.016,0,0,1-22.03.072,10.8,10.8,0,0,1,10.979-11.091m-1.461,12.11c-.9-.823-1.762-1.635-2.653-2.408a1.84,1.84,0,0,0-2.662.006,1.773,1.773,0,0,0,.149,2.645c1.267,1.216,2.569,2.395,3.878,3.565a1.684,1.684,0,0,0,2.393.122q3.641-3.228,7.175-6.576a1.719,1.719,0,0,0-.19-2.7,1.825,1.825,0,0,0-2.493.228c-1.854,1.7-3.711,3.4-5.6,5.123" transform="translate(-7803.689 -8193.344)" fill="#ced371"/>
    <path id="Trazado_620829" data-name="Trazado 620829" d="M173.51,255.557c1.885-1.725,3.742-3.423,5.6-5.123a1.825,1.825,0,0,1,2.493-.228,1.719,1.719,0,0,1,.19,2.7q-3.529,3.35-7.175,6.576a1.684,1.684,0,0,1-2.393-.122c-1.308-1.17-2.611-2.349-3.878-3.565a1.773,1.773,0,0,1-.149-2.645,1.84,1.84,0,0,1,2.662-.006c.892.773,1.75,1.585,2.653,2.408" transform="translate(-7812.01 -8207.743)" fill="#040404"/>
  </g>
</svg>
