<svg id="Grupo_894257" data-name="Grupo 894257" xmlns="http://www.w3.org/2000/svg" xmlns:xlink="http://www.w3.org/1999/xlink" width="117.826" height="117.754" viewBox="0 0 117.826 117.754">
  <defs>
    <clipPath id="clip-path">
      <rect id="Rectángulo_332400" data-name="Rectángulo 332400" width="117.826" height="117.754" fill="none"/>
    </clipPath>
  </defs>
  <g id="Grupo_894254" data-name="Grupo 894254" clip-path="url(#clip-path)">
    <path id="Trazado_621366" data-name="Trazado 621366" d="M87.939,56.93a8.279,8.279,0,0,0-.5,1.905q-.042,16.745-.021,33.49c0,6.343-3.953,10.3-10.292,10.3q-19.6,0-39.2-.021c-1.043,0-1.429.3-1.931,1.294-1.93,3.808-1.94,7.831-1.8,11.911.019.553,0,1.108-.015,1.662a1.33,1.33,0,0,1-.091.287H7.584c0-2.724.014-5.405-.011-8.086a3.867,3.867,0,0,0-.26-1.611c-3.358-6.9-4.512-14.366-5.665-21.835C1.177,83.176.573,80.146.188,77.088a20.384,20.384,0,0,1,5.661-17.2c1.542-1.646,3.157-3.226,4.785-4.789a2.338,2.338,0,0,0,.768-1.863q-.031-21.5-.015-42.991C11.387,3.977,15.353,0,21.609,0Q49.405,0,77.2,0c6.252,0,10.214,3.978,10.217,10.25q0,7.838,0,15.677c0,.19.024.38.044.674,2.182,0,4.308.032,6.431-.032.353-.01.741-.392,1.033-.682,2.757-2.729,5.467-5.507,8.252-8.209a8.51,8.51,0,0,1,9.561-1.714,8.628,8.628,0,0,1,2.427,14.093c-1.568,1.564-3.146,3.117-4.793,4.746,2.348,1.532,4.067,4.11,7.4,3.082V56.841c-.061.047-.126.14-.181.134-3.7-.366-6.966,1.247-10.287,2.422-6.527,2.31-12.661,1.777-18.49-2-.165-.107-.347-.187-.878-.471M22.924,19.088V73.082c.391-1.5.668-2.687,1.013-3.858a6.363,6.363,0,0,1,12.453,1c.22,1.876.342,3.763.509,5.656H75.95v-7.2c-.425.155-.788.276-1.145.418-2.2.877-4.409,1.748-6.6,2.641a5.187,5.187,0,0,1-6.915-6.93c1.091-2.67,2.136-5.359,3.247-8.021a4.939,4.939,0,0,1,1.029-1.548c1.191-1.2,2.449-2.324,3.679-3.477-4.106-4.1-3.209-8.87.186-11.864,2.015-1.777,3.809-3.8,5.745-5.671A2.434,2.434,0,0,0,76,32.275c-.048-3.284-.02-6.569-.02-9.854V19.088Zm-1.78,60.527a4.274,4.274,0,0,1-2.232-3.691q.018-28.438.013-56.875a3.768,3.768,0,0,1,3.881-3.908q26.6-.015,53.207.036a4.95,4.95,0,0,1,2.566.979A3.406,3.406,0,0,1,79.9,19.182c-.028,3.349-.01,6.7-.01,10.174A27.626,27.626,0,0,1,82.677,27.8a1.286,1.286,0,0,0,.885-1.432c-.027-5.3-.014-10.607-.015-15.911,0-4.373-2.205-6.588-6.56-6.588H21.881c-4.434,0-6.623,2.2-6.624,6.642q0,37.046,0,74.093c0,.356-.012.713.008,1.068.047.85.491,1.562,1.308,1.572a2.073,2.073,0,0,0,1.592-.9c1.076-2.189,1.991-4.458,2.979-6.733M11.357,59.969c-1.234,1.193-2.407,2.155-3.374,3.292A16.306,16.306,0,0,0,4.005,76.583c.575,4.068,1.345,8.108,1.943,12.173.848,5.766,1.966,11.452,4.523,16.749.179.371.657.85,1,.852q9.439.077,18.878.013a1.149,1.149,0,0,0,.845-.571,31.942,31.942,0,0,0,2.841-16.048c-.235-2.52-.38-5.048-.577-7.572-.3-3.785-.582-7.571-.913-11.354a2.477,2.477,0,0,0-2.252-2.361,2.554,2.554,0,0,0-2.666,1.908c-.129.414-.211.843-.311,1.266a73.218,73.218,0,0,1-5.345,16.04c-1.365,2.733-3.743,4.055-6.317,3.45-2.732-.641-4.295-2.774-4.3-5.878q0-11.93,0-23.86V59.969M37.731,98.752H38.96q19.059,0,38.117,0c4.2,0,6.47-2.263,6.471-6.442q0-14.543,0-29.086V62.1a15.586,15.586,0,0,0-3.009,2.762,2.657,2.657,0,0,0-.624,1.528c-.058,3.007-.027,6.015-.029,9.022,0,3.049-1.44,4.478-4.512,4.478H37.26l.6,8.176c.139-2.779,1.462-4.477,3.7-4.5q7.836-.067,15.674,0a3.779,3.779,0,0,1,3.636,3.671,7.611,7.611,0,0,1-7.5,7.848c-2.612.025-5.225.041-7.837,0a7.492,7.492,0,0,1-7.007-4.62c-.148-.3-.268-.623-.364-.848-.142,2.971-.286,5.993-.436,9.14m66.764-49.313c-3.1,0-6.135.036-9.171-.03a3.317,3.317,0,0,1-1.8-.654c-1.929-1.45-3.784-3-5.684-4.491a11.194,11.194,0,0,0-6.577-2.409,2.916,2.916,0,0,0-3.18,2.117,2.85,2.85,0,0,0,1.485,3.407c4.2,2.535,8.391,5.087,12.633,7.549a13.16,13.16,0,0,0,9.7,1.813c4.091-.954,8.083-2.329,12.065-3.506V42.218l-5.912-4.333-7.8,7.781h4.235ZM87.234,39.05,94.9,44.781c5.954-5.933,11.91-11.84,17.826-17.787A4.267,4.267,0,0,0,113.9,23.05a4.76,4.76,0,0,0-8.143-2.488Q98.814,27.473,91.9,34.409c-1.565,1.564-3.136,3.122-4.662,4.641M84.6,54.953l-7.99-4.818-6.853,6.845,6.4,6.416L84.6,54.953M20.822,113.936h7.116c2.381,0,2.337,0,2.388-2.365.021-.964-.233-1.289-1.245-1.279-5.02.05-10.041.023-15.061.023-2.593,0-2.548,0-2.568,2.543-.008.945.356,1.107,1.188,1.094,2.727-.043,5.455-.016,8.183-.016M90.267,30.51a10.543,10.543,0,0,0-9.332,3.4c-2.082,2.219-4.292,4.317-6.444,6.47-1.062,1.062-2.16,2.092-3.17,3.2a3.161,3.161,0,0,0,.685,5.094c1.325-1.059,2.667-2.1,2.1-4.135a2.4,2.4,0,0,1,.1-1.053,6.817,6.817,0,0,1,7.009-5.51c.6,0,1.421.083,1.778-.255,2.431-2.3,4.764-4.7,7.275-7.21M56.947,87.492H41.867A3.7,3.7,0,0,0,45.6,91.2q3.79.063,7.582,0a3.724,3.724,0,0,0,3.768-3.707M67.139,60.858c-.764,1.924-1.593,3.915-2.339,5.936a1.12,1.12,0,0,0,1.3,1.457c2.088-.734,4.13-1.6,6.064-2.365l-5.021-5.028" transform="translate(0 0)"/>
    <path id="Trazado_621367" data-name="Trazado 621367" d="M72.393,60.279h53.059v3.333c0,3.285-.028,6.57.02,9.854a2.436,2.436,0,0,1-.832,1.956c-1.935,1.87-3.73,3.895-5.745,5.671-3.4,2.994-4.293,7.762-.186,11.864-1.23,1.153-2.488,2.282-3.679,3.477A4.934,4.934,0,0,0,114,97.983c-1.111,2.662-2.157,5.351-3.247,8.021a5.187,5.187,0,0,0,6.916,6.93c2.2-.894,4.4-1.764,6.6-2.641.356-.142.72-.264,1.145-.418v7.2H86.368c-.167-1.893-.288-3.78-.509-5.655a6.363,6.363,0,0,0-12.453-1c-.345,1.17-.623,2.361-1.013,3.857Zm49.274,3.758H76.1v11.3h45.57Zm-9.5,15.2H87.5v3.7h24.659Zm-.01,15.213H87.513v3.68h24.639Zm-3.792,7.593H87.5v3.7H108.36ZM87.485,113.364h20.851v-3.692H87.485Zm0-22.8h17.059v-3.7H87.481Zm20.929-.026h3.713V86.809H108.41Z" transform="translate(-49.469 -41.191)" fill="#dee4f0"/>
    <path id="Trazado_621368" data-name="Trazado 621368" d="M54.06,87.97c-.988,2.275-1.9,4.544-2.979,6.733a2.073,2.073,0,0,1-1.592.9c-.816-.009-1.261-.722-1.308-1.572-.02-.355-.007-.712-.007-1.068q0-37.046,0-74.092c0-4.447,2.189-6.642,6.624-6.643H109.9c4.354,0,6.559,2.215,6.56,6.588,0,5.3-.012,10.607.015,15.911a1.285,1.285,0,0,1-.885,1.432,27.567,27.567,0,0,0-2.791,1.553c0-3.476-.019-6.825.009-10.174a3.405,3.405,0,0,0-1.317-3.026,4.956,4.956,0,0,0-2.566-.979q-26.6-.084-53.207-.036A3.769,3.769,0,0,0,51.841,27.4q-.013,28.438-.012,56.875A4.273,4.273,0,0,0,54.06,87.97M74.7,19.749H89.892V15.966H74.7Zm30.488-1.873a1.965,1.965,0,1,0-1.954,1.946,1.927,1.927,0,0,0,1.954-1.946m5.6-1.982a1.964,1.964,0,1,0,2,1.9,1.925,1.925,0,0,0-2-1.9" transform="translate(-32.916 -8.355)" fill="#b55a72"/>
    <path id="Trazado_621369" data-name="Trazado 621369" d="M19.615,189.379V190.8q0,11.93,0,23.86c0,3.1,1.564,5.236,4.3,5.878,2.575.6,4.952-.717,6.318-3.45a73.233,73.233,0,0,0,5.345-16.04c.1-.423.182-.852.312-1.266a2.554,2.554,0,0,1,2.666-1.908,2.477,2.477,0,0,1,2.252,2.361c.33,3.782.617,7.569.913,11.354.2,2.523.342,5.052.577,7.572a31.944,31.944,0,0,1-2.841,16.048,1.148,1.148,0,0,1-.845.571q-9.439.049-18.878-.013c-.343,0-.821-.481-1-.852-2.557-5.3-3.674-10.983-4.523-16.748-.6-4.065-1.367-8.105-1.943-12.173a16.305,16.305,0,0,1,3.978-13.322c.967-1.137,2.14-2.1,3.374-3.292" transform="translate(-8.257 -129.41)" fill="#fccbaa"/>
    <path id="Trazado_621370" data-name="Trazado 621370" d="M118.137,232.756c.15-3.147.294-6.169.436-9.14.1.225.217.543.364.848a7.492,7.492,0,0,0,7.007,4.62c2.612.045,5.225.029,7.837,0a7.611,7.611,0,0,0,7.5-7.848,3.779,3.779,0,0,0-3.636-3.671q-7.837-.055-15.674,0c-2.242.019-3.565,1.717-3.7,4.5l-.6-8.176H155.78c3.072,0,4.51-1.429,4.512-4.478,0-3.007-.029-6.016.029-9.022a2.656,2.656,0,0,1,.624-1.528,15.585,15.585,0,0,1,3.009-2.762v1.127q0,14.543,0,29.086c0,4.178-2.275,6.441-6.471,6.442q-19.059,0-38.117,0Z" transform="translate(-80.406 -134.004)" fill="#b55a72"/>
    <path id="Trazado_621371" data-name="Trazado 621371" d="M272.713,131.2v-3.773h-4.235l7.8-7.781,5.912,4.332v11.019c-3.982,1.177-7.974,2.552-12.065,3.506a13.16,13.16,0,0,1-9.7-1.813c-4.243-2.462-8.433-5.014-12.633-7.549a2.85,2.85,0,0,1-1.485-3.407,2.917,2.917,0,0,1,3.18-2.117,11.2,11.2,0,0,1,6.577,2.409c1.9,1.491,3.754,3.04,5.684,4.491a3.317,3.317,0,0,0,1.8.654c3.036.066,6.074.03,9.171.03" transform="translate(-168.218 -81.755)" fill="#fccbaa"/>
    <path id="Trazado_621372" data-name="Trazado 621372" d="M275.481,80.159c1.526-1.519,3.1-3.077,4.663-4.641Q287.072,68.594,294,61.671a4.76,4.76,0,0,1,8.143,2.489,4.268,4.268,0,0,1-1.173,3.944C295.055,74.05,289.1,79.957,283.145,85.89l-7.664-5.731" transform="translate(-188.247 -41.109)" fill="#ffb500"/>
    <path id="Trazado_621373" data-name="Trazado 621373" d="M235.14,163.145l-8.442,8.444-6.4-6.417,6.853-6.845,7.99,4.818" transform="translate(-150.538 -108.191)" fill="#ffb500"/>
    <path id="Trazado_621374" data-name="Trazado 621374" d="M45.534,351.94c-2.728,0-5.456-.027-8.183.016-.831.013-1.2-.149-1.187-1.094.02-2.543-.025-2.543,2.568-2.543,5.021,0,10.041.027,15.061-.022,1.012-.01,1.265.315,1.245,1.279-.051,2.364-.007,2.365-2.388,2.365H45.534" transform="translate(-24.712 -238.004)" fill="#ced371"/>
    <path id="Trazado_621375" data-name="Trazado 621375" d="M242.053,96.2c-2.511,2.512-4.845,4.912-7.275,7.21-.357.338-1.174.258-1.778.255a6.816,6.816,0,0,0-7.008,5.51,2.4,2.4,0,0,0-.1,1.053c.564,2.039-.778,3.076-2.1,4.135a3.161,3.161,0,0,1-.686-5.094c1.01-1.11,2.109-2.139,3.171-3.2,2.152-2.153,4.362-4.251,6.444-6.47a10.544,10.544,0,0,1,9.332-3.4" transform="translate(-151.787 -65.686)" fill="#fccbaa"/>
    <path id="Trazado_621376" data-name="Trazado 621376" d="M147.294,276.3A3.723,3.723,0,0,1,143.526,280q-3.79.058-7.582,0a3.7,3.7,0,0,1-3.729-3.706Z" transform="translate(-90.348 -188.804)" fill="#dee4f0"/>
    <path id="Trazado_621377" data-name="Trazado 621377" d="M206.843,192.188l5.021,5.028c-1.934.764-3.975,1.631-6.064,2.365a1.12,1.12,0,0,1-1.3-1.457c.746-2.022,1.575-4.012,2.339-5.936" transform="translate(-139.703 -131.33)" fill="#636363"/>
    <path id="Trazado_621378" data-name="Trazado 621378" d="M129.66,83.447H84.09v-11.3h45.57Zm-22.851-3.829h16.736c2.245,0,2.187,0,2.264-2.259.038-1.093-.282-1.391-1.382-1.388-11.354.04-22.709.025-34.064.025-2.442,0-2.4,0-2.439,2.437-.016.937.254,1.212,1.2,1.205,5.895-.041,11.79-.021,17.685-.021" transform="translate(-57.462 -49.301)"/>
    <rect id="Rectángulo_332393" data-name="Rectángulo 332393" width="24.659" height="3.7" transform="translate(38.034 38.049)"/>
    <rect id="Rectángulo_332394" data-name="Rectángulo 332394" width="24.639" height="3.68" transform="translate(38.044 53.262)"/>
    <rect id="Rectángulo_332395" data-name="Rectángulo 332395" width="20.856" height="3.698" transform="translate(38.035 60.855)"/>
    <rect id="Rectángulo_332396" data-name="Rectángulo 332396" width="20.851" height="3.692" transform="translate(38.016 68.48)"/>
    <rect id="Rectángulo_332397" data-name="Rectángulo 332397" width="17.059" height="3.701" transform="translate(38.012 45.671)"/>
    <rect id="Rectángulo_332398" data-name="Rectángulo 332398" width="3.713" height="3.728" transform="translate(58.941 45.618)"/>
    <rect id="Rectángulo_332399" data-name="Rectángulo 332399" width="15.188" height="3.782" transform="translate(41.788 7.612)"/>
    <path id="Trazado_621379" data-name="Trazado 621379" d="M219.765,25.788a1.965,1.965,0,1,1-1.916-1.982,1.934,1.934,0,0,1,1.916,1.982" transform="translate(-147.488 -16.267)"/>
    <path id="Trazado_621380" data-name="Trazado 621380" d="M241.779,23.806a1.964,1.964,0,1,1-1.929,1.968,1.928,1.928,0,0,1,1.929-1.968" transform="translate(-163.899 -16.268)"/>
    <path id="Trazado_621381" data-name="Trazado 621381" d="M115.081,87.873c-5.895,0-11.79-.021-17.685.021-.947.007-1.216-.268-1.2-1.205.041-2.436,0-2.437,2.439-2.437,11.355,0,22.71.016,34.064-.025,1.1,0,1.42.295,1.382,1.388-.078,2.257-.019,2.259-2.264,2.259H115.081" transform="translate(-65.734 -57.556)" fill="#ced371"/>
  </g>
</svg>
