<svg xmlns="http://www.w3.org/2000/svg" width="123.482" height="123.472" viewBox="0 0 123.482 123.472">
  <g id="Grupo_894250" data-name="Grupo 894250" transform="translate(350.866 -77.744)">
    <g id="Grupo_166691" data-name="Grupo 166691" transform="translate(-350.867 77.743)">
      <path id="Trazado_257391" data-name="Trazado 257391" d="M68.5,124.216H67.057c-1.465-1.283-1.568-1.982-.549-3.7.548-.923,1.091-1.848,1.644-2.783a5.432,5.432,0,0,0-4.028-1.78C45.7,116.026,27.273,116,8.848,116c-4.309,0-7.134-2-8.559-6.028A2.512,2.512,0,0,0,0,109.5V19.552a1.482,1.482,0,0,0,.262-.346c1.532-4.222,4.246-6.132,8.733-6.136,3.135,0,6.27.013,9.4-.015a2.413,2.413,0,0,0,1.333-.334,8.72,8.72,0,0,1,5.53-1.68c1.84.042,3.681.009,5.5.009.983-6.274,4.515-9.994,9.7-10.287a10.1,10.1,0,0,1,6.69,1.914,10.4,10.4,0,0,1,4.334,8.374c2.067,0,4.03.012,5.993,0a8.62,8.62,0,0,1,4.871,1.484,3.264,3.264,0,0,0,1.636.515c3.094.048,6.193.124,9.283,0a8.577,8.577,0,0,1,9.09,9.087c-.167,10.445-.049,20.894-.049,31.341V54.79c11.177-1.748,20.917,1.027,29.574,8.423a6.418,6.418,0,0,1,.914-1.165c1.83-1.451,2.912-3.136,2.525-5.645a1.813,1.813,0,0,1,2.151-2.094,7.755,7.755,0,0,1,1.968,1.028c1.37-1.231,2.466-1.423,3.417-.5.968.936.814,1.9-.586,3.664.852.644,1.466,1.4,1.056,2.555a2.2,2.2,0,0,1-2.495,1.432,17.04,17.04,0,0,0-2.048.01,1.676,1.676,0,0,0-.957.343c-1.092,1-2.137,2.056-3.231,3.122,6.7,7.893,9.779,16.894,8.634,27.136-1.149,10.275-6.14,18.413-14.421,24.6.571.954,1.1,1.842,1.633,2.731,1.094,1.838.864,2.76-.939,3.785H108.3l-2.918-3.975c-3.157,1.056-6.3,2.166-9.475,3.141a39.644,39.644,0,0,1-4.25.833H84.907c-.949-.2-1.894-.427-2.847-.608A36.13,36.13,0,0,1,71.7,119.9c-.35.556-.631,1.085-.99,1.556-.712.936-1.466,1.84-2.2,2.756M113.587,98.9l.014-.023-.253.742,0-.035a6.345,6.345,0,0,0-.432.692A26.825,26.825,0,1,1,105.237,68.4a8.64,8.64,0,0,0,.735.463l1.171-1.269,1.833-1.446c-3.533-2.9-6.942-5.1-10.994-6.16l0,0-.527-.186a28.293,28.293,0,0,0-12.583-1.23A30.94,30.94,0,0,0,78.036,118.5a28.751,28.751,0,0,0,18.44.64l.533-.173,0,.008c.389-.087.788-.143,1.165-.265A31.007,31.007,0,0,0,117.33,78.2a30.077,30.077,0,0,0-5.6-9.211l-2.195,2.172-.986.41a28.276,28.276,0,0,1,5.348,9.222,26.468,26.468,0,0,1,1.152,11.623c-.308,1.967-.8,3.9-1.2,5.855l-.256.625M91.217,75.207l-.52-.161c-.636-.077-1.272-.207-1.91-.223a14.524,14.524,0,0,0-13.494,8.453,14.359,14.359,0,0,0,2.544,15.8A13.733,13.733,0,0,0,90.7,103.483a8.383,8.383,0,0,0,1.069-.12,14.486,14.486,0,0,0,10.942-16.579,12.85,12.85,0,0,0-2.806-6.22c-.772.83-1.5,1.528-2.109,2.313a1.378,1.378,0,0,0-.2,1.148,12.084,12.084,0,0,1,.372,9.335c-2.46,4.69-6.464,6.821-11.332,6.032a10.347,10.347,0,0,1-8.4-11.439,10.22,10.22,0,0,1,11.6-8.869,36.588,36.588,0,0,1,4.555,1.354l.949-1.014,1.758-1.734a12.549,12.549,0,0,0-5.876-2.49l.006.008m-1.684,9.966,1.454-1.409-.132-.406-2.812-.168a6.049,6.049,0,0,0,0,12.082,5.667,5.667,0,0,0,5.807-3,5.981,5.981,0,0,0,.248-5.551L90.21,90.448a2.216,2.216,0,0,1-3.2.233c-.9-.974-.786-2.06.375-3.26.72-.744,1.429-1.5,2.143-2.247m17.054-.346a20.522,20.522,0,0,1-.889,11.429,18.592,18.592,0,0,1-35.734-8.7c.647-9.332,8.988-16.915,18.581-16.852a18.58,18.58,0,0,1,11.528,4.069l1.306-1.423,1.55-1.437a19.271,19.271,0,0,0-8.139-4.341,19.67,19.67,0,0,0-10.213-.627c-12.465,2.4-20.187,13.226-18.5,25.833,1.75,13.054,15.591,22.05,28.223,18.345,12.235-2.812,19.711-16.4,15.784-28.7a21.657,21.657,0,0,0-4.231-7.664l-1.88,2.011-1.022.9.414-.041,3.22,7.2M72.822,17.264H65.715c.076,1.37.146,2.632.223,4.016,1.177,0,2.29.024,3.4-.005a4.465,4.465,0,0,1,4.484,2.608,21.751,21.751,0,0,1,.231,2.255q.023,14.809.01,29.619v1.556c1.136-.423,2.007-.829,2.922-1.065.961-.247,1.211-.762,1.208-1.721-.034-10.876-.02-21.752-.023-32.629,0-3.307-2.044-5.071-5.351-4.634M40.756,4.915a6.089,6.089,0,0,0-5.762,6.1c-.035,2.007.009,4.016-.016,6.023a2.1,2.1,0,0,1-2.03,2.236,2.118,2.118,0,0,1-2.068-2.206c-.022-.623,0-1.247,0-1.9H29.855c-1.727,0-3.455-.024-5.181.011a3.9,3.9,0,0,0-4.016,3.557,45.517,45.517,0,0,0-.031,4.655h1.352q11.507,0,23.015,0c4.216,0,8.433-.027,12.649-.041h4.1c0-1.54.076-2.982-.016-4.414-.168-2.615-2.215-3.957-5.523-3.715H51.438c0,.6.008,1.112,0,1.626-.029,1.505-.844,2.454-2.076,2.425a2.164,2.164,0,0,1-2.035-2.378c-.034-1.283-.039-2.567-.057-3.851.012-.8.066-1.6.03-2.4a6.053,6.053,0,0,0-6.542-5.729M65.864,62.5c1.039-.751,2.039-1.564,3.129-2.232a1.856,1.856,0,0,0,1-1.826c-.033-10.565-.021-21.13-.021-31.695V25.5H65.838a3.35,3.35,0,0,0-.943.519A4.385,4.385,0,0,1,61.476,27.5q-20.322-.006-40.644,0A4.323,4.323,0,0,1,17.424,26c-.2-.226-.471-.536-.718-.545-1.432-.052-2.866-.025-4.309-.025v78.132H56.564c-.165-.449-.279-.785-.411-1.114a34.439,34.439,0,0,1,.821-28.377A35.773,35.773,0,0,1,65.864,62.5M16.612,17.173c-2.638,0-5.2-.007-7.765,0-3.095.01-4.737,1.672-4.737,4.79q0,42.557,0,85.115c0,3.175,1.644,4.812,4.834,4.812q25.745,0,51.489,0H61.8A32.23,32.23,0,0,1,59.72,109a2.392,2.392,0,0,0-2.452-1.244q-22.067.058-44.134.025-4.921,0-4.919-4.854,0-38.4,0-76.8c0-3.239,1.635-4.848,4.923-4.854,1.067,0,2.135,0,3.216,0,.091-1.451.17-2.714.258-4.107" transform="translate(0 -0.743)" fill="#020201"/>
      <path id="Trazado_257396" data-name="Trazado 257396" d="M91.947,114.422a35.773,35.773,0,0,0-8.89,11.562,34.439,34.439,0,0,0-.821,28.378c.131.329.245.665.41,1.114H38.48V77.343c1.443,0,2.878-.027,4.309.025.247.009.519.32.718.545a4.323,4.323,0,0,0,3.408,1.507q20.322-.005,40.643,0a4.384,4.384,0,0,0,3.419-1.488,3.35,3.35,0,0,1,.943-.519q.013,18.5.026,37.008M74.407,89.715q-4.216,0-8.433,0c-1.646,0-3.294-.028-4.938.024A1.95,1.95,0,0,0,59.049,91.6a2.013,2.013,0,0,0,1.783,2.193,6.483,6.483,0,0,0,1.08.047q12.529,0,25.058-.005a5.008,5.008,0,0,0,1.541-.174,2.016,2.016,0,0,0-.373-3.9,8.486,8.486,0,0,0-1.2-.046q-6.264,0-12.529,0m.029,16.463q-6.505,0-13.01,0c-1.405,0-2.2.6-2.351,1.73-.2,1.433.75,2.372,2.446,2.373q12.89.01,25.78,0c1.624,0,2.564-.761,2.574-2.05s-.925-2.053-2.549-2.056q-6.445-.008-12.89,0m-5.444,20.548c2.49,0,4.979.008,7.468,0,1.548-.007,2.442-.762,2.447-2.03s-.92-2.072-2.429-2.075q-7.529-.017-15.057,0c-1.507,0-2.4.831-2.374,2.113.027,1.232.892,1.982,2.356,1.99,2.529.014,5.059,0,7.589,0m-1.68,12.345c-1.927,0-3.854-.014-5.781,0-1.6.016-2.522.825-2.488,2.133.033,1.252.919,1.987,2.492,1.993q5.721.023,11.442,0c1.554-.006,2.472-.763,2.513-2,.042-1.264-.939-2.113-2.518-2.129-1.887-.019-3.774,0-5.661,0m-18.85-15.658c-.162-.088-.266-.136-.361-.2q-1.833-1.2-2.989.21c-.744.908-.613,1.972.38,2.995.5.518,1.013,1.032,1.534,1.533,1.311,1.263,2.579,1.147,3.612-.369q1.9-2.784,3.73-5.611a2.1,2.1,0,0,0-.356-3.083c-1.054-.732-2.212-.431-3.071.823-.836,1.222-1.65,2.459-2.48,3.7m.012-16.461a3.824,3.824,0,0,1-.353-.175c-1.234-.8-2.224-.746-2.994.171-.751.9-.632,1.982.345,3q.751.78,1.534,1.53c1.318,1.26,2.606,1.158,3.625-.331,1.267-1.851,2.5-3.724,3.73-5.6a2.115,2.115,0,0,0-.428-3.158c-1.028-.648-2.159-.335-2.982.863-.837,1.219-1.644,2.458-2.476,3.706m-.011-16.446c-.145-.081-.244-.128-.335-.188-1.182-.783-2.266-.725-3.006.162s-.618,1.988.356,3q.752.78,1.534,1.531c1.32,1.268,2.6,1.166,3.62-.326q1.9-2.781,3.732-5.605c.815-1.249.625-2.48-.439-3.154-1.024-.648-2.155-.333-2.982.87-.838,1.219-1.646,2.46-2.479,3.711m-.026,49.419c-1.381-1-2.488-1.012-3.288-.09s-.646,2.031.476,3.168c.508.514,1.007,1.039,1.534,1.533a2.028,2.028,0,0,0,3.369-.344c1.321-1.915,2.6-3.857,3.873-5.807a2.069,2.069,0,0,0-.446-3.062c-1.034-.674-2.16-.381-2.985.816-.841,1.221-1.65,2.463-2.534,3.786" transform="translate(-26.083 -52.661)" fill="#dee4f0"/>
      <path id="Trazado_257397" data-name="Trazado 257397" d="M25.255,51.737c-.087,1.393-.167,2.656-.258,4.107-1.081,0-2.149,0-3.216,0-3.288.006-4.923,1.615-4.923,4.854q0,38.4,0,76.8,0,4.859,4.919,4.854,22.067,0,44.134-.025a2.392,2.392,0,0,1,2.452,1.244,32.23,32.23,0,0,0,2.076,2.889H69.076q-25.745,0-51.489,0c-3.19,0-4.834-1.637-4.834-4.812q0-42.557,0-85.115c0-3.119,1.643-4.78,4.737-4.79,2.564-.008,5.128,0,7.765,0" transform="translate(-8.643 -35.307)" fill="#9e512c"/>
      <path id="Trazado_257398" data-name="Trazado 257398" d="M227.935,188.848l-1.17,1.269a8.572,8.572,0,0,1-.735-.463,26.812,26.812,0,1,0,7.684,31.87,6.284,6.284,0,0,1,.432-.692,9.937,9.937,0,0,1-.375,1.734,32.578,32.578,0,0,1-13.52,16.015c-.841.509-1.636,1.094-2.453,1.644l0-.008-.532.173a28.751,28.751,0,0,1-18.44-.64,30.94,30.94,0,0,1,6.832-59.918,28.288,28.288,0,0,1,12.583,1.231l.527.186,0,0a13.016,13.016,0,0,0,1.195.929,32.251,32.251,0,0,1,7.966,6.675" transform="translate(-120.792 -121.994)" fill="#a3314f"/>
      <path id="Trazado_257399" data-name="Trazado 257399" d="M239.924,211.811l-1.306,1.423a18.582,18.582,0,0,0-11.528-4.069c-9.593-.062-17.934,7.521-18.581,16.853a18.592,18.592,0,0,0,35.734,8.7,2.185,2.185,0,0,1,.044.76,24.2,24.2,0,0,1-10.182,13.079,14.739,14.739,0,0,0-1.257,1.029c-12.632,3.706-26.473-5.292-28.223-18.345-1.689-12.607,6.033-23.429,18.5-25.833a19.667,19.667,0,0,1,10.213.627c.07.138.106.316.214.408q3.18,2.694,6.375,5.37" transform="translate(-138.545 -139.203)" fill="#f1f1f1"/>
      <path id="Trazado_257400" data-name="Trazado 257400" d="M90.564,21.817c.018,1.284.024,2.568.057,3.851a2.164,2.164,0,0,0,2.035,2.378c1.233.028,2.048-.92,2.077-2.425.01-.514,0-1.028,0-1.626H99.5a19.892,19.892,0,0,1,1.393,3.722,26.5,26.5,0,0,1,.049,4.406c-4.217.015-8.433.038-12.649.041q-11.507.01-23.015,0H63.924a45.615,45.615,0,0,1,.03-4.655,3.9,3.9,0,0,1,4.016-3.556c1.726-.035,3.454-.01,5.181-.011h1.02c0,.65-.018,1.275,0,1.9a2.118,2.118,0,0,0,2.068,2.206,2.1,2.1,0,0,0,2.03-2.236c.025-2.008-.019-4.016.016-6.024a6.09,6.09,0,0,1,5.762-6.1c.2.291.386.587.594.87.879,1.2,1.71,2.418,1.53,4.02-.823-.8-1.812-1.249-2.777-.468a2.554,2.554,0,0,0-.9,1.9,2.575,2.575,0,0,0,1.284,1.671,1.94,1.94,0,0,0,2.5-.833,1.151,1.151,0,0,0,1.422.988,27.988,27.988,0,0,1,2.863-.021" transform="translate(-43.297 -9.519)" fill="#ffb500"/>
      <path id="Trazado_257401" data-name="Trazado 257401" d="M246.364,259.34a13.732,13.732,0,0,1-12.857-4.405,14.358,14.358,0,0,1-2.544-15.8,14.523,14.523,0,0,1,13.494-8.452c.638.015,1.273.145,1.91.222l.52.161-.006-.008a15.232,15.232,0,0,1,1.248,1.074c.976,1.033,1.916,2.1,2.87,3.15l-.949,1.014a36.592,36.592,0,0,0-4.555-1.354,10.22,10.22,0,0,0-11.6,8.869,10.347,10.347,0,0,0,8.4,11.439c4.868.789,8.871-1.342,11.332-6.032a19.778,19.778,0,0,1-.84,2.986,17.367,17.367,0,0,1-6.432,7.138" transform="translate(-155.669 -156.601)" fill="#a3314f"/>
      <path id="Trazado_257402" data-name="Trazado 257402" d="M301.1,262.56c.816-.55,1.612-1.134,2.453-1.644a32.577,32.577,0,0,0,13.52-16.015,9.923,9.923,0,0,0,.375-1.734l0,.035.253-.742-.014.023.256-.624c.407-1.951.895-3.889,1.2-5.855a26.468,26.468,0,0,0-1.152-11.623c.019-.331.154-.71.039-.984-1.015-2.411-2.043-4.819-3.147-7.191a7.051,7.051,0,0,0-1.253-1.458l2.195-2.172a30.078,30.078,0,0,1,5.6,9.211,31.007,31.007,0,0,1-19.159,40.509c-.377.123-.776.178-1.165.266" transform="translate(-204.099 -144.33)" fill="#b55a72"/>
      <path id="Trazado_257403" data-name="Trazado 257403" d="M226.04,51.884c3.307-.437,5.35,1.328,5.351,4.635,0,10.876-.011,21.752.023,32.628,0,.96-.247,1.474-1.208,1.721-.915.236-1.786.642-2.922,1.065V90.377q0-14.809-.011-29.618a21.753,21.753,0,0,0-.231-2.256,6.127,6.127,0,0,0,.225-.886,8.851,8.851,0,0,0-1.227-5.733" transform="translate(-153.218 -35.364)" fill="#763d22"/>
      <path id="Trazado_257404" data-name="Trazado 257404" d="M204.387,114.586q-.013-18.5-.026-37.008h4.131v1.254c0,10.565-.011,21.13.021,31.695a1.855,1.855,0,0,1-1,1.826c-1.089.669-2.09,1.481-3.129,2.233" transform="translate(-138.523 -52.825)" fill="#b0c0d2"/>
      <path id="Trazado_257405" data-name="Trazado 257405" d="M292.716,266.847a14.677,14.677,0,0,1,1.257-1.029,24.2,24.2,0,0,0,10.181-13.079,2.167,2.167,0,0,0-.043-.76A20.521,20.521,0,0,0,305,240.551a21.254,21.254,0,0,0-.575-2.765c-.617-1.787-1.351-3.533-2.036-5.3l1.881-2.011a21.668,21.668,0,0,1,4.231,7.664c3.926,12.3-3.549,25.892-15.784,28.7" transform="translate(-198.413 -156.466)" fill="#cbd4d8"/>
      <path id="Trazado_257406" data-name="Trazado 257406" d="M281.517,271.424a17.368,17.368,0,0,0,6.432-7.138,19.788,19.788,0,0,0,.84-2.986,12.084,12.084,0,0,0-.372-9.335,1.377,1.377,0,0,1,.2-1.148c.612-.785,1.337-1.483,2.109-2.313a12.854,12.854,0,0,1,2.806,6.22A14.486,14.486,0,0,1,282.586,271.3a8.38,8.38,0,0,1-1.069.121" transform="translate(-190.822 -168.684)" fill="#b55a72"/>
      <path id="Trazado_257407" data-name="Trazado 257407" d="M261.216,268.742a6.049,6.049,0,0,1,0-12.082l1.49,1.983c-.714.75-1.424,1.5-2.144,2.247-1.161,1.2-1.274,2.287-.375,3.261a2.216,2.216,0,0,0,3.2-.233c.026.281.169.623.059.833-.712,1.347-1.479,2.665-2.228,3.992" transform="translate(-173.175 -174.212)" fill="#dee4f0"/>
      <path id="Trazado_257408" data-name="Trazado 257408" d="M211.087,52.022a8.851,8.851,0,0,1,1.226,5.733,6.121,6.121,0,0,1-.225.886,4.466,4.466,0,0,0-4.484-2.608c-1.111.03-2.224.005-3.4.005-.077-1.384-.147-2.646-.224-4.017Z" transform="translate(-138.265 -35.502)" fill="#9e512c"/>
      <path id="Trazado_257409" data-name="Trazado 257409" d="M175.89,53.747a26.5,26.5,0,0,0-.048-4.406,19.91,19.91,0,0,0-1.393-3.722c3.308-.242,5.355,1.1,5.523,3.715.092,1.431.016,2.874.016,4.414Z" transform="translate(-118.248 -31.142)" fill="#ffb500" opacity="0.6"/>
      <path id="Trazado_257410" data-name="Trazado 257410" d="M128.628,18.547c.18-1.6-.65-2.82-1.53-4.02-.207-.283-.4-.58-.593-.87a6.053,6.053,0,0,1,6.542,5.729c.036.8-.018,1.6-.03,2.4a27.994,27.994,0,0,0-2.863.021,1.151,1.151,0,0,1-1.422-.988q-.051-1.135-.1-2.269" transform="translate(-85.749 -9.485)" fill="#ffb500" opacity="0.6"/>
      <path id="Trazado_257411" data-name="Trazado 257411" d="M273.278,276.174c.749-1.327,1.516-2.645,2.228-3.992.11-.209-.033-.552-.058-.833l3.886-3.725a5.981,5.981,0,0,1-.248,5.55,5.666,5.666,0,0,1-5.807,3" transform="translate(-185.237 -181.645)" fill="#b0c0d2"/>
      <path id="Trazado_257412" data-name="Trazado 257412" d="M313.3,192.258a32.249,32.249,0,0,0-7.966-6.675,13.021,13.021,0,0,1-1.195-.929c4.052,1.056,7.461,3.26,10.994,6.159l-1.833,1.446" transform="translate(-206.153 -125.404)" fill="#c31e1d"/>
      <path id="Trazado_257413" data-name="Trazado 257413" d="M300.816,213.959q-3.19-2.682-6.375-5.37c-.109-.092-.144-.27-.214-.408a19.279,19.279,0,0,1,8.139,4.341l-1.55,1.437" transform="translate(-199.437 -141.352)" fill="#cad2d6"/>
      <path id="Trazado_257414" data-name="Trazado 257414" d="M337.913,219.318a7.042,7.042,0,0,1,1.253,1.458c1.1,2.371,2.132,4.779,3.148,7.19.115.274-.02.653-.039.984a28.279,28.279,0,0,0-5.348-9.222l.986-.41" transform="translate(-228.381 -148.901)" fill="#e63e31"/>
      <path id="Trazado_257415" data-name="Trazado 257415" d="M287.238,236.078c-.954-1.052-1.895-2.118-2.87-3.15a15.3,15.3,0,0,0-1.248-1.074,12.549,12.549,0,0,1,5.876,2.49l-1.758,1.734" transform="translate(-191.908 -157.398)" fill="#b55a72"/>
      <path id="Trazado_257416" data-name="Trazado 257416" d="M320.591,236.722c.686,1.763,1.42,3.508,2.036,5.295a21.218,21.218,0,0,1,.576,2.765l-3.22-7.2-.414.041,1.022-.9" transform="translate(-216.615 -160.698)" fill="#e1e2e2"/>
      <path id="Trazado_257417" data-name="Trazado 257417" d="M274.776,258.643l-1.49-1.983,2.812.168.132.406-1.454,1.409" transform="translate(-185.243 -174.212)" fill="#b0c0d2"/>
      <path id="Trazado_257418" data-name="Trazado 257418" d="M352.086,305.338l-.253.742.253-.742" transform="translate(-238.484 -207.208)" fill="#f04234"/>
      <path id="Trazado_257419" data-name="Trazado 257419" d="M282.046,231.541l-.52-.161.52.161" transform="translate(-190.828 -157.077)" fill="#c41e1e"/>
      <path id="Trazado_257420" data-name="Trazado 257420" d="M352.83,303.47l-.256.624.256-.624" transform="translate(-238.987 -205.942)" fill="#f04234"/>
      <path id="Trazado_257421" data-name="Trazado 257421" d="M303.017,184.275l-.527-.186.527.186" transform="translate(-205.038 -125.021)" fill="#c31e1d"/>
      <path id="Trazado_257422" data-name="Trazado 257422" d="M299.462,367.877l.532-.173-.532.173" transform="translate(-202.986 -249.482)" fill="#c51e1e"/>
      <path id="Trazado_257423" data-name="Trazado 257423" d="M117.671,115.745q6.264,0,12.529,0a8.486,8.486,0,0,1,1.2.046,2.016,2.016,0,0,1,.373,3.9,5.006,5.006,0,0,1-1.541.174q-12.529.015-25.058.005a6.519,6.519,0,0,1-1.08-.047,2.013,2.013,0,0,1-1.783-2.193,1.95,1.95,0,0,1,1.987-1.858c1.645-.052,3.292-.023,4.939-.024q4.216,0,8.433,0" transform="translate(-69.347 -78.691)" fill="#050404"/>
      <path id="Trazado_257424" data-name="Trazado 257424" d="M117.713,166.855q6.445,0,12.89,0c1.624,0,2.559.766,2.549,2.055s-.949,2.05-2.574,2.05q-12.89.006-25.78,0c-1.7,0-2.643-.94-2.446-2.373.155-1.127.945-1.727,2.351-1.73q6.5-.014,13.011,0" transform="translate(-69.36 -113.339)" fill="#020101"/>
      <path id="Trazado_257425" data-name="Trazado 257425" d="M112.264,221.979c-2.53,0-5.059.01-7.589,0-1.464-.008-2.329-.757-2.356-1.99-.028-1.283.867-2.109,2.374-2.113q7.529-.02,15.057,0c1.508,0,2.433.818,2.428,2.075s-.9,2.024-2.447,2.03c-2.489.011-4.979,0-7.468,0" transform="translate(-69.355 -147.914)" fill="#030302"/>
      <path id="Trazado_257426" data-name="Trazado 257426" d="M110.575,268.948c1.887,0,3.774-.015,5.661,0,1.579.016,2.56.865,2.518,2.129-.041,1.233-.959,1.99-2.513,2q-5.721.023-11.442,0c-1.573-.006-2.459-.741-2.492-1.993-.034-1.308.886-2.117,2.487-2.132,1.927-.019,3.854,0,5.781,0" transform="translate(-69.346 -182.538)" fill="#060504"/>
      <path id="Trazado_257427" data-name="Trazado 257427" d="M61.414,210.015c.831-1.241,1.644-2.478,2.48-3.7.859-1.255,2.016-1.555,3.071-.823a2.1,2.1,0,0,1,.356,3.083q-1.841,2.822-3.731,5.611c-1.033,1.516-2.3,1.632-3.612.369-.521-.5-1.03-1.014-1.534-1.533-.993-1.023-1.123-2.086-.38-2.995q1.154-1.409,2.989-.21c.094.062.2.109.361.2" transform="translate(-39.036 -139.263)" fill="#050404"/>
      <path id="Trazado_257428" data-name="Trazado 257428" d="M61.436,158.953c.832-1.248,1.639-2.487,2.476-3.706.823-1.2,1.955-1.512,2.983-.863a2.116,2.116,0,0,1,.428,3.158c-1.227,1.878-2.463,3.751-3.729,5.6-1.019,1.488-2.307,1.591-3.625.331q-.782-.748-1.534-1.529c-.976-1.014-1.1-2.1-.344-3,.77-.918,1.759-.973,2.994-.171a3.7,3.7,0,0,0,.353.175" transform="translate(-39.045 -104.662)" fill="#040303"/>
      <path id="Trazado_257429" data-name="Trazado 257429" d="M61.43,107.879c.834-1.251,1.641-2.491,2.479-3.711.827-1.2,1.958-1.519,2.982-.87,1.064.674,1.254,1.905.439,3.154q-1.841,2.819-3.732,5.605c-1.018,1.491-2.3,1.593-3.62.325q-.781-.75-1.534-1.531c-.974-1.01-1.1-2.108-.356-3s1.824-.945,3.006-.162c.091.06.19.107.335.188" transform="translate(-39.05 -70.035)" fill="#040303"/>
      <path id="Trazado_257430" data-name="Trazado 257430" d="M61.4,261.178c.883-1.323,1.693-2.566,2.534-3.786.825-1.2,1.951-1.49,2.985-.816a2.069,2.069,0,0,1,.446,3.062c-1.27,1.95-2.553,3.892-3.873,5.807a2.029,2.029,0,0,1-3.369.344c-.528-.494-1.026-1.019-1.534-1.533-1.122-1.137-1.286-2.236-.476-3.168s1.907-.91,3.288.09" transform="translate(-39.049 -173.915)" fill="#040303"/>
      <path id="Trazado_257431" data-name="Trazado 257431" d="M125.336,27.031q.052,1.135.1,2.269a1.94,1.94,0,0,1-2.5.833,2.575,2.575,0,0,1-1.283-1.671,2.554,2.554,0,0,1,.9-1.9c.966-.78,1.955-.333,2.777.468" transform="translate(-82.457 -17.97)" fill="#080700"/>
    </g>
  </g>
</svg>
