<svg xmlns="http://www.w3.org/2000/svg" xmlns:xlink="http://www.w3.org/1999/xlink" width="904.513" height="386.81" viewBox="0 0 904.513 386.81">
  <defs>
    <clipPath id="clip-path">
      <rect id="Rectángulo_35543" data-name="Rectángulo 35543" width="21.798" height="42.848" fill="none"/>
    </clipPath>
    <clipPath id="clip-path-2">
      <rect id="Rectángulo_35544" data-name="Rectángulo 35544" width="34.255" height="55.031" fill="none"/>
    </clipPath>
    <clipPath id="clip-path-3">
      <rect id="Rectángulo_35545" data-name="Rectángulo 35545" width="35.205" height="63.934" fill="none"/>
    </clipPath>
    <clipPath id="clip-path-4">
      <rect id="Rectángulo_35546" data-name="Rectángulo 35546" width="52.414" height="59.91" fill="none"/>
    </clipPath>
    <filter id="Rectángulo_329165" x="0" y="206" width="221" height="86" filterUnits="userSpaceOnUse">
      <feOffset dy="3" input="SourceAlpha"/>
      <feGaussianBlur stdDeviation="3" result="blur"/>
      <feFlood flood-opacity="0.161"/>
      <feComposite operator="in" in2="blur"/>
      <feComposite in="SourceGraphic"/>
    </filter>
    <filter id="Rectángulo_329167" x="711.513" y="255.879" width="193" height="86" filterUnits="userSpaceOnUse">
      <feOffset dy="3" input="SourceAlpha"/>
      <feGaussianBlur stdDeviation="3" result="blur-2"/>
      <feFlood flood-opacity="0.161"/>
      <feComposite operator="in" in2="blur-2"/>
      <feComposite in="SourceGraphic"/>
    </filter>
    <filter id="Rectángulo_329166" x="596" y="0" width="283" height="105" filterUnits="userSpaceOnUse">
      <feOffset dy="3" input="SourceAlpha"/>
      <feGaussianBlur stdDeviation="3" result="blur-3"/>
      <feFlood flood-opacity="0.161"/>
      <feComposite operator="in" in2="blur-3"/>
      <feComposite in="SourceGraphic"/>
    </filter>
  </defs>
  <g id="Grupo_893196" data-name="Grupo 893196" transform="translate(-352 -5940)">
    <g id="Grupo_84925" data-name="Grupo 84925" transform="translate(352.096 5966.879)">
      <g id="Grupo_84930" data-name="Grupo 84930">
        <path id="Trazado_116488" data-name="Trazado 116488" d="M413.85,156.566c0,6.329-62.537,11.462-139.678,11.462s-139.678-5.133-139.678-11.462S197.031,145.1,274.172,145.1s139.678,5.133,139.678,11.462" transform="translate(181.904 191.903)" fill="#bdbdbd"/>
        <path id="Trazado_116489" data-name="Trazado 116489" d="M164.086,140.636l-.7,11.543a4.8,4.8,0,0,0,2.724,4.613c5.124,2.48,15.967,6.436,23.829.341,0,0,.88-7.381-10.2-12.156Z" transform="translate(220.975 185.994)" fill="#2c2524"/>
        <path id="Trazado_116490" data-name="Trazado 116490" d="M172.519,143.106l-3.8-1.054c1.877,1.593,3.856,3.073,5.844,4.489,2.209,1.572,4.274,3.465,3.129,6.354-.976,2.455-3.439,4.213-5.681,5.583a16.263,16.263,0,0,0,10.711-3.217s.877-7.381-10.2-12.156" transform="translate(228.195 187.867)" fill="#221e1c"/>
        <path id="Trazado_116491" data-name="Trazado 116491" d="M172.733,111.914s7.368,55.225,12.729,62.831a14.258,14.258,0,0,1,7.7,4.74,13.734,13.734,0,0,1,2.9,6.394,34.066,34.066,0,0,1-7.145-.318,39.336,39.336,0,0,1-16.19-6.517l.934-2.648a12.983,12.983,0,0,0-.4-9.641c-4.472-9.959-14.666-33.832-18.281-52.2Z" transform="translate(209.613 148.009)" fill="#847771"/>
        <g id="Grupo_84914" data-name="Grupo 84914" transform="translate(364.538 259.784)" opacity="0.61" style="mix-blend-mode: multiply;isolation: isolate">
          <g id="Grupo_84913" data-name="Grupo 84913">
            <g id="Grupo_84912" data-name="Grupo 84912" clip-path="url(#clip-path)">
              <path id="Trazado_116492" data-name="Trazado 116492" d="M176.757,138.593c-2.353-14.051-4.046-26.739-4.046-26.739L154.956,114.5c2.548,12.932,8.354,28.59,13.129,40.2.452-1.094,5.385-12.488,8.671-16.109" transform="translate(-154.958 -111.854)" fill="#847771"/>
            </g>
          </g>
        </g>
        <path id="Trazado_116493" data-name="Trazado 116493" d="M203.3,126.7l-27.132-25.464-25.456,35.054A34.172,34.172,0,0,0,165.2,142.1a15.657,15.657,0,0,0,2.644,5.741,2.553,2.553,0,0,0,4.465-.873,21.358,21.358,0,0,0,.753-4.494,35.532,35.532,0,0,0,5.07-.7,14.5,14.5,0,0,0,2.727,4.3,2.552,2.552,0,0,0,4.362-1.294,20.827,20.827,0,0,0,.268-5.342c1.235-.53,2.489-1.133,3.762-1.828a14.51,14.51,0,0,0,3.181,3.972,2.546,2.546,0,0,0,4.192-1.754,19.936,19.936,0,0,0-.635-6.619,67.943,67.943,0,0,0,7.314-6.51" transform="translate(203.835 133.884)" fill="#ffa4a4"/>
        <path id="Trazado_116494" data-name="Trazado 116494" d="M171.586,124.393c6.4.843,12.68,2.39,19.1,3.1a59.5,59.5,0,0,0,6.34.53c.447-.434.894-.866,1.339-1.324l-27.129-25.462-16.879,23.237a65.426,65.426,0,0,1,17.23-.079" transform="translate(208.768 133.886)" fill="#e59393"/>
        <path id="Trazado_116495" data-name="Trazado 116495" d="M203.3,114.416l-3.971-3.728c-17.578,24.561-45.479,10.893-46.549,10.47l-2.068,2.847a34.171,34.171,0,0,0,14.487,5.813,15.657,15.657,0,0,0,2.644,5.741,2.553,2.553,0,0,0,4.465-.873,21.359,21.359,0,0,0,.753-4.494,35.532,35.532,0,0,0,5.07-.7,14.527,14.527,0,0,0,2.727,4.3,2.552,2.552,0,0,0,4.362-1.294,20.827,20.827,0,0,0,.268-5.342c1.235-.53,2.489-1.133,3.762-1.828a14.51,14.51,0,0,0,3.181,3.971,2.546,2.546,0,0,0,4.192-1.753,19.936,19.936,0,0,0-.635-6.619,67.943,67.943,0,0,0,7.314-6.51" transform="translate(203.835 146.387)" fill="#e59393"/>
        <path id="Trazado_116496" data-name="Trazado 116496" d="M223.176,140.636l-.7,11.543a4.8,4.8,0,0,0,2.724,4.613c5.124,2.48,15.964,6.436,23.829.341,0,0,.88-7.381-10.2-12.156Z" transform="translate(300.895 185.994)" fill="#2c2524"/>
        <path id="Trazado_116497" data-name="Trazado 116497" d="M238.444,144.978l-15.654-4.341-.033.511,10.829,3c11.083,4.775,10.2,12.156,10.2,12.156a16.643,16.643,0,0,1-11.774,3.159c5.223,1.347,11.548,1.607,16.632-2.332,0,0,.877-7.381-10.2-12.156" transform="translate(301.281 185.996)" fill="#221e1c"/>
        <path id="Trazado_116498" data-name="Trazado 116498" d="M212.781,144.2l-.7,11.543a4.8,4.8,0,0,0,2.724,4.613c5.124,2.48,15.966,6.436,23.829.341,0,0,.88-7.381-10.2-12.156Z" transform="translate(286.835 190.702)" fill="#2c2524"/>
        <path id="Trazado_116499" data-name="Trazado 116499" d="M228.05,148.537,212.394,144.2l-.031.511,10.829,3c11.083,4.775,10.2,12.156,10.2,12.156a16.643,16.643,0,0,1-11.774,3.159c5.223,1.347,11.548,1.607,16.632-2.332,0,0,.877-7.381-10.2-12.156" transform="translate(287.223 190.702)" fill="#221e1c"/>
        <path id="Trazado_116500" data-name="Trazado 116500" d="M246.477,114.893s3.014,25.794-7.034,39.353c0,0,.821,15.082,5.686,26.054,2.353.235,9.22,5.36,8.716,10.321,0,0-15.073,2.151-24.786-3.142a34.3,34.3,0,0,0,3.014-20.006s-8.039-53.9-19.427-58.862c0,0,16.413-7.276,33.831,6.282" transform="translate(287.606 141.061)" fill="#847771"/>
        <g id="Grupo_84917" data-name="Grupo 84917" transform="translate(500.252 247.941)" opacity="0.61" style="mix-blend-mode: multiply;isolation: isolate">
          <g id="Grupo_84916" data-name="Grupo 84916">
            <g id="Grupo_84915" data-name="Grupo 84915" clip-path="url(#clip-path-2)">
              <path id="Trazado_116501" data-name="Trazado 116501" d="M241.947,150.218c7-14.063,4.531-35.23,4.531-35.23-17.418-13.559-33.831-6.282-33.831-6.282,9.081,3.955,16.032,39.032,18.477,53.081,3.6-3.858,7.185-7.739,10.824-11.568" transform="translate(-212.646 -106.755)" fill="#847771"/>
            </g>
          </g>
        </g>
        <path id="Trazado_116502" data-name="Trazado 116502" d="M167.634,73.289c33.156,9.065,57.827,2.8,92-3.528,42.877-7.936,58.283-5.953,82.735-9.59,11.341-1.686,35.681,11.26,46.784,14l-19.886,51.5s-2,94.445-94,54.763c0,0-50.021,36.155-108.975-17.637,0,0-27.689-97.444,1.341-89.508" transform="translate(208.793 79.378)" fill="#d6d1cc"/>
        <path id="Trazado_116503" data-name="Trazado 116503" d="M325.5,133.237c-9.763,3.809-20.761,2.752-31.027.592s-12.875-5.544-23.37-5.89c-15.988-.53-23.633,9.952-56.5,8.377-23-1.1-42.874-18.3-52.7-9.481,55.6,45.635,102.943,12.788,102.943,12.788,18.272,7.88,40.609,14.068,59.954,6.064,12.744-5.27,21.544-16.253,26.812-28.565a93.214,93.214,0,0,0,6.7-25.745,133.587,133.587,0,0,1-7.032,14.609c-6.055,11.227-13.8,22.575-25.779,27.25" transform="translate(218.985 120.849)" fill="#cdc3b9"/>
        <path id="Trazado_116504" data-name="Trazado 116504" d="M246.907,85.98a9.626,9.626,0,0,0-.8,3.716c.4-1.64.847-3.279,1.277-4.942l-.478,1.226" transform="translate(332.862 112.089)" fill="#b9a8a0"/>
        <path id="Trazado_116505" data-name="Trazado 116505" d="M145.88,143.59l-.7,11.543a4.8,4.8,0,0,0,2.724,4.613c5.124,2.48,15.966,6.436,23.829.341,0,0,.88-7.381-10.2-12.156Z" transform="translate(196.351 189.901)" fill="#2c2524"/>
        <path id="Trazado_116506" data-name="Trazado 116506" d="M154.148,146.04l-3.677-1.02a21.307,21.307,0,0,1,4.78,4.011c.9,1.022,1.717,2.1,2.536,3.184.362.481.725.962,1.094,1.44a9.4,9.4,0,0,1,1.329,1.663,3.381,3.381,0,0,1-.673,2.611,9.957,9.957,0,0,1-4.889,3.491,15.916,15.916,0,0,0,9.7-3.224s.878-7.381-10.2-12.156" transform="translate(203.513 191.792)" fill="#221e1c"/>
        <path id="Trazado_116507" data-name="Trazado 116507" d="M159.457,73.909a25.653,25.653,0,0,0-11.457,6,22.907,22.907,0,0,0-6.618,10.207,32.154,32.154,0,0,0-.823,12.486c.226,2.192.562,4.429.972,6.7l1.336,6.942a180.859,180.859,0,0,1,3.576,28.778c.082,2.441.031,4.891-.064,7.337-.075,1.226-.118,2.448-.226,3.67-.132,1.224-.242,2.443-.407,3.66a65.635,65.635,0,0,1-3.439,14.284l-3.237-.855a98.752,98.752,0,0,0,.56-27.664c-.449-4.61-1.219-9.2-2.03-13.805-.833-4.6-1.786-9.2-2.762-13.826-.489-2.3-1.007-4.645-1.454-7.053a74.364,74.364,0,0,1-1.073-7.416,42.779,42.779,0,0,1-.033-7.806,29.637,29.637,0,0,1,1.8-7.9,26.784,26.784,0,0,1,10.1-12.581,25.288,25.288,0,0,1,15-4.455Z" transform="translate(178.688 93.359)" fill="#847771"/>
        <path id="Trazado_116508" data-name="Trazado 116508" d="M137.405,118.191c-5.1,7.862-6.218,11.829-7.333,24.175-.809,8.939,3.505,17.256,7.535,21.671-2.411-5.321-1.059-11.6,1.383-16.906s5.914-10.142,7.94-15.619c1.618-4.385,2.618-10.721-.075-14.941-2.574-4.027-6.985-2.181-9.45,1.619" transform="translate(175.791 151.175)" fill="#2c2524"/>
        <path id="Trazado_116509" data-name="Trazado 116509" d="M218.581,114.533c8.9-38.224-37.4-65.718-67.1-39.673q-.579.509-1.157,1.043s-31.486,28.769,4.689,81.349c0,0-2.009,22.157-4.354,28.771l-2.536,2.905a10.5,10.5,0,0,0-.946,12.565c9.156,14.407,7.97,20.8,7.168,47.8,0,0,10.942,9.92,22.33,6.173l-4.244-6.835c-2.331-2.144-5.051-5.2-5.1-8.343l-.6-39.388s7.368-7.936,9.043-17.526c0,0,33.881-30.541,42.8-68.844" transform="translate(186.134 85.473)" fill="#d6d1cc"/>
        <path id="Trazado_116510" data-name="Trazado 116510" d="M152.206,120.21c1.172-2.564,2.454-7.945,1.957-8.744a12.394,12.394,0,0,0-1.724-1.435c-2.562-2.385-5.2-4.689-7.688-7.142.828,1.3,1.687,2.6,2.6,3.927,0,0-2.115,20.259-4.185,28.523a81.754,81.754,0,0,0,9.043-15.129" transform="translate(193.629 136.073)" fill="#cdc3b9"/>
        <path id="Trazado_116511" data-name="Trazado 116511" d="M223.731,83.579s-.447,38.8-14.738,52.912c0,0,11.612,53.792,1.786,85.1,0,0,7.594,1.763,4.914,8.819,0,0,14.291.883,17.418-1.765a13.612,13.612,0,0,0-8.039-9.258l.892-24.693s21.438-36.155,32.6-63.493c0,0,0-36.155-34.836-47.619" transform="translate(282.664 110.535)" fill="#d6d1cc"/>
        <path id="Trazado_116512" data-name="Trazado 116512" d="M175.043,89.87a19.677,19.677,0,0,0-2.8,20.508c1.649,3.577,4.787,6.824,8.747,7.228,2.778.286,5.481-.848,8.041-1.956q6.828-2.961,13.659-5.92c2.611-1.131,5.324-2.336,7.128-4.517,3.336-4.023,2.395-10.375-1.033-14.323-8.154-9.395-25.489-10.788-33.744-1.02" transform="translate(230.662 109.988)" fill="#131313"/>
        <path id="Trazado_116513" data-name="Trazado 116513" d="M162.257,94.63c2,2.508,5.159,3.751,7.926,5.4s5.448,4.269,5.3,7.458c-.221,4.573-5.752,6.817-8.243,10.681-1.313,2.039-1.741,4.506-2.807,6.68s-3.218,4.2-5.639,3.837c-2.237-.334-3.7-2.59-4.112-4.787s-.089-4.466-.327-6.687c-.473-4.394-3.079-8.236-5.467-11.973s-4.712-7.848-4.505-12.263c.193-4.136,4.762-9.875,9.424-9.56,5.143.346,5.938,8.055,8.455,11.211" transform="translate(195.256 110.307)" fill="#131313"/>
        <path id="Trazado_116514" data-name="Trazado 116514" d="M216.4,104.781c-2.007,3.026-2.1,6.928-1.492,10.5s1.854,7.016,2.3,10.607c.365,2.922.459,6.385,2.941,8.01,2.931,1.923,6.869-.281,9.187-2.9A25.009,25.009,0,0,0,235.4,117.66a16.094,16.094,0,0,0-1.84-10.486c-3.437-5.565-12.856-8.879-17.159-2.392" transform="translate(290.218 133.86)" fill="#131313"/>
        <path id="Trazado_116515" data-name="Trazado 116515" d="M168.913,83.181c-5.4,4.292-13.981,6.738-14.6,13.557-.652,7.2,8.42,11.225,11.577,17.749,1.494,3.082,1.964,7.156,5.081,8.642,2.962,1.41,6.554-.613,8.4-3.3s2.595-5.96,4.2-8.791c5.371-9.464,18.159-11.392,29.145-11.606s23.415-.353,30.886-8.308c5.787-6.159,6.756-15.656,4.3-23.7-.226-.739-.482-1.463-.755-2.181-25.449,4.812-46.359,8.354-71.716,3a18.374,18.374,0,0,1-6.519,14.945" transform="translate(208.665 86.281)" fill="#131313"/>
        <path id="Trazado_116516" data-name="Trazado 116516" d="M198.494,97.576c1.4,3.379,3.83,6.373,4.987,9.827,2.4,7.163-1.03,14.7-3.308,21.9s-2.882,16.107,3.413,20.993c4.319,3.354,11.005,3.616,16.056,1.222a18.564,18.564,0,0,0,9.784-12.075c1-3.83.9-7.885,2.343-11.6s5.232-7.193,9.565-6.684c4.258.5,6.879,4.5,7.928,8.25s1.259,7.827,3.614,11.06c2.99,4.109,8.958,5.869,14.381,5.323s10.37-3.038,14.783-5.927c7.982-5.228,15.294-13.6,12.939-22.227-1.922-7.047-9.737-11.84-11.678-18.882-3.192-11.585,10.7-22.3,9.264-34.169a14.328,14.328,0,0,0-1.16-4.1,22.262,22.262,0,0,0-6.883-.311c-4.434.66-8.573,1.136-12.631,1.519,2.574,10.911-12.852,21.959-23.055,22.3a11.444,11.444,0,0,1-7.267-1.786c-3.715-2.768-3.823-8.538-1.489-12.511a24.689,24.689,0,0,1,5.265-5.948c-9.462.818-20.469,2.053-34.81,4.473-.936.671-1.851,1.368-2.731,2.107-8.18,6.882-13.214,17.809-9.311,27.257" transform="translate(266.644 79.379)" fill="#131313"/>
        <path id="Trazado_116517" data-name="Trazado 116517" d="M143.971,108.339c.941-2.5,1.214-5.193,1.9-7.773a25.564,25.564,0,0,1,11.061-14.92c4.039-2.522,8.693-3.872,13.169-5.528s8.975-3.744,12.09-7.323a13.634,13.634,0,0,0,3.284-7.476,39.752,39.752,0,0,0-34,9.539q-.579.509-1.157,1.04s-14.51,13.271-12.5,38.245a4.7,4.7,0,0,0,.833-.156c2.592-.755,4.383-3.147,5.324-5.648" transform="translate(186.138 85.478)" fill="#131313"/>
        <g id="Grupo_84920" data-name="Grupo 84920" transform="translate(554.388 140.873)" style="mix-blend-mode: multiply;isolation: isolate">
          <g id="Grupo_84919" data-name="Grupo 84919">
            <g id="Grupo_84918" data-name="Grupo 84918" clip-path="url(#clip-path-3)">
              <path id="Trazado_116518" data-name="Trazado 116518" d="M239.471,60.655c-1.409,3.637-8.667,23.418,1.562,43.54a53.944,53.944,0,0,0,18.425,20.394c2.138-5.5,4.844-12.265,7.312-19.76,3.693-11.206,5.752-25.875,2.4-38.772Z" transform="translate(-235.658 -60.655)" fill="#b9a8a0"/>
            </g>
          </g>
        </g>
        <path id="Trazado_116519" data-name="Trazado 116519" d="M271,44.676a23.839,23.839,0,0,1-1.139,6.143,23.575,23.575,0,0,1-2.809,5.832A24.6,24.6,0,0,1,265,59.333a23.967,23.967,0,0,1-2.522,2.364,25.748,25.748,0,0,1-6.055,3.642,4.42,4.42,0,0,1-5.846-2.093,4.317,4.317,0,0,1,2.122-5.774,4.422,4.422,0,0,1,1.23-.367l.115-.014a18.251,18.251,0,0,0,4.769-1.14A17.931,17.931,0,0,0,261.1,54.87a19.616,19.616,0,0,0,5.827-5.449,21.792,21.792,0,0,0,2.639-4.961l.024-.063a.732.732,0,0,1,.934-.43.722.722,0,0,1,.478.708" transform="translate(338.343 58.091)" fill="#aa8c64"/>
        <path id="Trazado_116520" data-name="Trazado 116520" d="M261.933,56a28.62,28.62,0,0,1-8.034,3.951,25.941,25.941,0,0,1-3.6.885,4.389,4.389,0,0,0,6.14,2.917A25.789,25.789,0,0,0,262.49,60.1a24.219,24.219,0,0,0,2.524-2.362,24.891,24.891,0,0,0,2.054-2.683,23.743,23.743,0,0,0,2.809-5.832,25.256,25.256,0,0,0,.957-4.248A26.548,26.548,0,0,1,261.933,56" transform="translate(338.529 59.487)" fill="#977c58"/>
        <path id="Trazado_116521" data-name="Trazado 116521" d="M243.529,79.042s4.423,5.593,9.337,6.615c14.061,2.919,19.084-1,19.084-1s5.277-1.8,5.074-7.416Z" transform="translate(329.375 102.148)" fill="#b9a8a0"/>
        <path id="Trazado_116522" data-name="Trazado 116522" d="M243.909,77.618s4.423,5.593,9.337,6.615c14.061,2.919,19.084-1,19.084-1s5.277-1.8,5.074-7.416Z" transform="translate(329.889 100.264)" fill="#cdc3b9"/>
        <path id="Trazado_116523" data-name="Trazado 116523" d="M253.763,60.012s-1.219,7.616,2.842,11.023a16.278,16.278,0,0,0,14.616.6c7.916-3.607,10.817-17.953,9.135-19.04-14.616-7.616-20.707,11.624-26.593,7.416" transform="translate(342.984 67.176)" fill="#0a0a0a"/>
        <path id="Trazado_116524" data-name="Trazado 116524" d="M263.029,68.945a13.991,13.991,0,0,1-6.385-1.568c-1.4-1.308-1.842-3.674-1.913-5.662,2.534-.316,4.731-2.253,7.048-4.294,2.919-2.571,6.229-5.488,10.337-5.488a11,11,0,0,1,4.5,1.04c0,3.052-2.727,12.323-8.06,14.755a13.243,13.243,0,0,1-5.524,1.217Z" transform="translate(344.527 68.683)"/>
        <path id="Trazado_116525" data-name="Trazado 116525" d="M262.251,47.7s-24.36-3.307-26.492,27.659c0,0-6.891,46.725,26.275,45.433a7.581,7.581,0,0,0,1.581-.237c3.451-.869,17.846-4.2,24.518-1.308a14.722,14.722,0,0,0-2.741-18.938,32.957,32.957,0,0,1,.306-17.136c2.741-8.716-1.219-14.13-3.959-16.836,0,0-3.044-17.433-19.488-18.638" transform="translate(318.064 62.945)" fill="#cdc3b9"/>
        <path id="Trazado_116526" data-name="Trazado 116526" d="M248.108,75.065c-.188,2.592-.014,8.531,4.889,12.066a6.884,6.884,0,0,0,4.136,1.261l6.935-.107a6.938,6.938,0,0,0,6.446-4.524,19.615,19.615,0,0,0,1.117-9.453,2.3,2.3,0,0,0-1.374-1.76,24.7,24.7,0,0,0-20.874.629,2.324,2.324,0,0,0-1.275,1.888" transform="translate(335.507 93.269)" fill="#e59393"/>
        <path id="Trazado_116527" data-name="Trazado 116527" d="M259.646,83.457a20.277,20.277,0,0,0,6.425,16.738,19.244,19.244,0,0,0-1.459-1.554,36.8,36.8,0,0,1,.969-16.924c2.741-8.719-1.219-14.13-3.959-16.834,0,0-2.512-10.781-11.092-16.03,4.086,4.824,10.765,15.765,9.116,34.6" transform="translate(338.844 64.611)" fill="#0c0c0c"/>
        <path id="Trazado_116528" data-name="Trazado 116528" d="M271.663,62.358a26.84,26.84,0,0,0-17.479-10.693,35.627,35.627,0,0,0-5.4,11.4C243.8,60.2,237.589,49.8,226.191,55.743c-1.682,1.087,1.216,15.433,9.135,19.04a16.114,16.114,0,0,0,11.819.627c-.529,10.008.2,31.187,14.854,37.971a5.066,5.066,0,0,0,2.388.465c11.29-.618,8.4-8.686,13.518-18.018,3.811-6.944,3.91-19.841-6.241-33.47" transform="translate(305.302 68.328)" fill="#131313"/>
        <path id="Trazado_116529" data-name="Trazado 116529" d="M240.446,70.8a13.246,13.246,0,0,1-5.526-1.217c-5.333-2.432-8.055-11.7-8.06-14.755a11,11,0,0,1,4.5-1.04c4.107,0,7.415,2.917,10.337,5.488,2.315,2.041,4.515,3.978,7.051,4.294-.073,1.988-.52,4.357-1.915,5.662a13.985,13.985,0,0,1-6.385,1.568" transform="translate(306.83 71.131)"/>
        <path id="Trazado_116530" data-name="Trazado 116530" d="M244.464,81.232c2.36.5,5-.4,7.584-1.073,2.6-.739,5.248-1.542,7.994-2.134a39.95,39.95,0,0,1,8.516-1.038c2.889.007,6.06.746,8.25,2.9a.574.574,0,0,1,0,.82.583.583,0,0,1-.424.17h-.031c-2.853-.051-5.227-.121-7.813-.123a49.432,49.432,0,0,0-7.834.7c-2.651.43-5.333.952-8.1,1.34a34.717,34.717,0,0,1-4.242.365,8.849,8.849,0,0,1-4.394-.95.537.537,0,0,1-.188-.741.551.551,0,0,1,.583-.251Z" transform="translate(329.615 101.816)" fill="#91837d"/>
        <path id="Trazado_116531" data-name="Trazado 116531" d="M270.813,73.5c-.057.72-3.8.332-10.271.606-6.317.272-12.228.485-12.228-.274s5.293-3.307,11.614-3.307,10.944,2.216,10.885,2.975" transform="translate(335.846 93.274)" fill="#e1a4a4"/>
        <path id="Trazado_116532" data-name="Trazado 116532" d="M259.81,60.038a4.629,4.629,0,0,0-1.395,8.967c.572-3.017,1.635-5.825,1.395-8.967" transform="translate(345.413 79.402)"/>
        <path id="Trazado_116533" data-name="Trazado 116533" d="M258.956,60.685a3.13,3.13,0,0,0-1.1,5.969,17.607,17.607,0,0,0,1.1-5.969" transform="translate(346.288 80.257)" fill="#1f1f1f"/>
        <path id="Trazado_116534" data-name="Trazado 116534" d="M258.272,61.159a1.963,1.963,0,0,0-1.842,2.067,2.119,2.119,0,0,0,1.256,1.928,4.73,4.73,0,0,0,.673-3.985c-.028,0-.056-.009-.087-.009" transform="translate(346.824 80.884)"/>
        <path id="Trazado_116535" data-name="Trazado 116535" d="M257.519,62.134a.6.6,0,0,1-.8.267.585.585,0,0,1-.167-.818.6.6,0,0,1,.8-.267.587.587,0,0,1,.165.818" transform="translate(346.86 81.005)" fill="#ececec"/>
        <path id="Trazado_116536" data-name="Trazado 116536" d="M250.711,72.695a6.356,6.356,0,0,1,1.416.5,12.14,12.14,0,0,1,1.308.741c.428.265.842.56,1.252.871a10.739,10.739,0,0,1,1.179,1.029.359.359,0,0,1-.266.606,11.121,11.121,0,0,1-1.569-.146c-.508-.084-1.009-.181-1.5-.309a11.575,11.575,0,0,1-1.44-.439,6.266,6.266,0,0,1-1.334-.681,1.2,1.2,0,0,1-.282-1.688,1.238,1.238,0,0,1,1.235-.481" transform="translate(337.108 96.111)" fill="#7e5050"/>
        <path id="Trazado_116537" data-name="Trazado 116537" d="M260.927,74.769a6.281,6.281,0,0,1-1.334.683,12.152,12.152,0,0,1-1.442.439c-.489.125-.99.225-1.5.307a11.088,11.088,0,0,1-1.569.149.362.362,0,0,1-.367-.355.356.356,0,0,1,.1-.251A10.566,10.566,0,0,1,256,74.708c.407-.311.823-.6,1.252-.871a11.532,11.532,0,0,1,1.308-.739,6.335,6.335,0,0,1,1.414-.5,1.223,1.223,0,0,1,1.442.95,1.2,1.2,0,0,1-.487,1.217" transform="translate(344.506 95.986)" fill="#7e5050"/>
        <path id="Trazado_116538" data-name="Trazado 116538" d="M249.682,68.258a5.974,5.974,0,0,1-.275-1.015,7.616,7.616,0,0,1-.012-2.23,4.447,4.447,0,0,0-.409-2.392,4.7,4.7,0,1,0-5.23,6.478,4.867,4.867,0,0,0,1.626.044,10.544,10.544,0,0,1,2.211-.149c.5.03.99.081,1.416.135a.638.638,0,0,0,.673-.871" transform="translate(324.575 79.181)"/>
        <path id="Trazado_116539" data-name="Trazado 116539" d="M240.518,63.76a3.434,3.434,0,1,1,3.432,3.389,3.41,3.41,0,0,1-3.432-3.389" transform="translate(325.303 79.842)" fill="#1f1f1f"/>
        <path id="Trazado_116540" data-name="Trazado 116540" d="M240.886,63.274a2.568,2.568,0,1,1,2.569,2.536,2.553,2.553,0,0,1-2.569-2.536" transform="translate(325.801 80.327)"/>
        <path id="Trazado_116541" data-name="Trazado 116541" d="M242.595,61.505a.754.754,0,1,1-.753-.743.747.747,0,0,1,.753.743" transform="translate(326.073 80.359)" fill="#ececec"/>
        <path id="Trazado_116542" data-name="Trazado 116542" d="M235.516,45.728a27.594,27.594,0,0,0,.722,5.546,14.769,14.769,0,0,0,1.941,4.8,5.91,5.91,0,0,0,3.079,2.527,7.692,7.692,0,0,0,3.759-.1l.327-.058a3.94,3.94,0,0,1,4.557,3.238,3.981,3.981,0,0,1-3.195,4.615,4.041,4.041,0,0,1-1.094.039l-1.877-.2a7.578,7.578,0,0,1-1.875-.379c-.633-.2-1.256-.383-1.863-.636-.6-.325-1.19-.667-1.76-1.015a11.7,11.7,0,0,1-4.322-6.08,18.963,18.963,0,0,1-.8-6.445,29.9,29.9,0,0,1,.819-6.069.8.8,0,0,1,.969-.6.813.813,0,0,1,.612.769Z" transform="translate(315.272 59.366)" fill="#cfab7a"/>
        <path id="Trazado_116543" data-name="Trazado 116543" d="M245.133,54a3.946,3.946,0,0,0-4.559-3.238l-.327.058a8.151,8.151,0,0,1-3.628.137c.456.314.929.622,1.437.927,1.764,1.061,4.291,2.42,4.515,4.705a3.519,3.519,0,0,1-.416,1.974A3.985,3.985,0,0,0,245.133,54" transform="translate(320.03 67.051)" fill="#bf9d71"/>
        <g id="Grupo_84923" data-name="Grupo 84923" transform="translate(531.032 122.269)" opacity="0.83" style="mix-blend-mode: multiply;isolation: isolate">
          <g id="Grupo_84922" data-name="Grupo 84922">
            <g id="Grupo_84921" data-name="Grupo 84921" clip-path="url(#clip-path-4)">
              <path id="Trazado_116544" data-name="Trazado 116544" d="M276.053,86.9c-2.178-2.469-5.239-3.579-8.551-4.276-2.995-.629-6.444-.606-9.137-2.2-3.054-1.807-4.515-5.128-4.766-8.563a29.663,29.663,0,0,0-1.534-7.746,26.221,26.221,0,0,1-1.428-7.553,34.638,34.638,0,0,0-1.858,5.209C243.8,58.9,237.59,48.509,226.19,54.447c-1.682,1.087,1.219,15.433,9.137,19.04a16.094,16.094,0,0,0,11.817.625c-.527,10.01.2,31.187,14.854,37.973a5.065,5.065,0,0,0,2.395.462c11.447-.627,8.307-8.923,13.741-18.425l.009-.051a25.432,25.432,0,0,0-2.089-7.172" transform="translate(-225.731 -52.645)" fill="#b9a8a0"/>
            </g>
          </g>
        </g>
      </g>
    </g>
    <g transform="matrix(1, 0, 0, 1, 352, 5940)" filter="url(#Rectángulo_329165)">
      <path id="Rectángulo_329165-2" data-name="Rectángulo 329165" d="M0,0H183a20,20,0,0,1,20,20V68a0,0,0,0,1,0,0H0a0,0,0,0,1,0,0V0A0,0,0,0,1,0,0Z" transform="translate(9 212)" fill="#ffb500"/>
    </g>
    <g transform="matrix(1, 0, 0, 1, 352, 5940)" filter="url(#Rectángulo_329167)">
      <path id="Rectángulo_329167-2" data-name="Rectángulo 329167" d="M0,0H155a20,20,0,0,1,20,20V68a0,0,0,0,1,0,0H0a0,0,0,0,1,0,0V0A0,0,0,0,1,0,0Z" transform="translate(720.51 261.88)" fill="#78b52e"/>
    </g>
    <path id="Trazado_625461" data-name="Trazado 625461" d="M3.359-1.883H8.336V0H1.016V-11.375H3.359ZM11.914,0H9.648V-8.453h2.266Zm-2.4-10.641a1.112,1.112,0,0,1,.34-.836,1.277,1.277,0,0,1,.926-.328,1.28,1.28,0,0,1,.922.328,1.105,1.105,0,0,1,.344.836A1.108,1.108,0,0,1,11.7-9.8a1.283,1.283,0,0,1-.918.328A1.283,1.283,0,0,1,9.863-9.8,1.108,1.108,0,0,1,9.516-10.641ZM21.391-4.148A5.119,5.119,0,0,1,20.523-.98,2.872,2.872,0,0,1,18.1.156,2.639,2.639,0,0,1,15.906-.9l-.1.9H13.773V-12h2.258v4.3a2.571,2.571,0,0,1,2.055-.914,2.9,2.9,0,0,1,2.426,1.137,5.126,5.126,0,0,1,.879,3.2Zm-2.258-.164a3.363,3.363,0,0,0-.406-1.871,1.374,1.374,0,0,0-1.211-.59,1.489,1.489,0,0,0-1.484.883v3.336a1.509,1.509,0,0,0,1.5.891,1.394,1.394,0,0,0,1.438-1.078A5.562,5.562,0,0,0,19.133-4.312Zm8.4-2.023a6.134,6.134,0,0,0-.812-.062,1.654,1.654,0,0,0-1.68.867V0H22.781V-8.453h2.133l.063,1.008a2.092,2.092,0,0,1,1.883-1.164,2.366,2.366,0,0,1,.7.1ZM32.508.156A4.15,4.15,0,0,1,29.48-.984a4.054,4.054,0,0,1-1.168-3.039v-.219A5.106,5.106,0,0,1,28.8-6.52,3.612,3.612,0,0,1,30.2-8.066a3.914,3.914,0,0,1,2.059-.543,3.508,3.508,0,0,1,2.73,1.094,4.444,4.444,0,0,1,1,3.1v.922H30.6a2.1,2.1,0,0,0,.66,1.328,2,2,0,0,0,1.395.5A2.437,2.437,0,0,0,34.7-2.609L35.8-1.367A3.389,3.389,0,0,1,34.43-.246,4.511,4.511,0,0,1,32.508.156ZM32.25-6.789a1.411,1.411,0,0,0-1.09.455,2.357,2.357,0,0,0-.535,1.3h3.141v-.181a1.681,1.681,0,0,0-.406-1.165A1.456,1.456,0,0,0,32.25-6.789Zm8.648,2.5a5.094,5.094,0,0,1,.887-3.148,2.877,2.877,0,0,1,2.426-1.172,2.589,2.589,0,0,1,2.039.922V-12h2.266V0H46.477l-.109-.9A2.657,2.657,0,0,1,44.2.156,2.869,2.869,0,0,1,41.8-1.02,5.258,5.258,0,0,1,40.9-4.289Zm2.258.168A3.337,3.337,0,0,0,43.57-2.3a1.349,1.349,0,0,0,1.2.634,1.511,1.511,0,0,0,1.477-.884V-5.889a1.489,1.489,0,0,0-1.461-.884Q43.156-6.773,43.156-4.121Zm11,4.277A4.15,4.15,0,0,1,51.129-.984a4.054,4.054,0,0,1-1.168-3.039v-.219a5.106,5.106,0,0,1,.492-2.277,3.612,3.612,0,0,1,1.395-1.547,3.914,3.914,0,0,1,2.059-.543,3.508,3.508,0,0,1,2.73,1.094,4.444,4.444,0,0,1,1,3.1v.922H52.25a2.1,2.1,0,0,0,.66,1.328,2,2,0,0,0,1.395.5,2.437,2.437,0,0,0,2.039-.945l1.109,1.242A3.389,3.389,0,0,1,56.078-.246,4.511,4.511,0,0,1,54.156.156ZM53.9-6.789a1.411,1.411,0,0,0-1.09.455,2.357,2.357,0,0,0-.535,1.3h3.141v-.181a1.681,1.681,0,0,0-.406-1.165A1.456,1.456,0,0,0,53.9-6.789Zm11.2-.742a2.818,2.818,0,0,1,2.258-1.078q2.75,0,2.789,3.2V0H67.891V-5.352a1.57,1.57,0,0,0-.312-1.074,1.34,1.34,0,0,0-1.039-.348,1.537,1.537,0,0,0-1.437.766V0H62.844V-12H65.1ZM76.75,0a2.507,2.507,0,0,1-.227-.758,2.732,2.732,0,0,1-2.133.914,3,3,0,0,1-2.059-.719,2.312,2.312,0,0,1-.816-1.812,2.389,2.389,0,0,1,1-2.062,4.915,4.915,0,0,1,2.879-.727H76.43v-.484a1.393,1.393,0,0,0-.3-.937,1.183,1.183,0,0,0-.949-.352,1.345,1.345,0,0,0-.895.273.929.929,0,0,0-.324.75H71.7a2.268,2.268,0,0,1,.453-1.359,3,3,0,0,1,1.281-.98A4.669,4.669,0,0,1,75.3-8.609a3.689,3.689,0,0,1,2.48.785A2.747,2.747,0,0,1,78.7-5.617v3.664a4.041,4.041,0,0,0,.336,1.82V0ZM74.883-1.57a1.945,1.945,0,0,0,.922-.223,1.462,1.462,0,0,0,.625-.6V-3.844h-.844q-1.7,0-1.8,1.172l-.008.133a.9.9,0,0,0,.3.7A1.153,1.153,0,0,0,74.883-1.57Zm7.664-6.883.07.945a2.971,2.971,0,0,1,2.43-1.1A2.255,2.255,0,0,1,87.289-7.32a2.9,2.9,0,0,1,2.539-1.289,2.521,2.521,0,0,1,2.047.8,3.681,3.681,0,0,1,.672,2.41V0H90.281V-5.391A1.61,1.61,0,0,0,90-6.441a1.246,1.246,0,0,0-.992-.332A1.409,1.409,0,0,0,87.6-5.8L87.609,0H85.352V-5.383a1.59,1.59,0,0,0-.289-1.062,1.259,1.259,0,0,0-.984-.328,1.463,1.463,0,0,0-1.391.8V0H80.43V-8.453Zm19.352,4.3a5.119,5.119,0,0,1-.867,3.168A2.872,2.872,0,0,1,98.609.156,2.639,2.639,0,0,1,96.414-.9l-.1.9H94.281V-12h2.258v4.3a2.571,2.571,0,0,1,2.055-.914,2.9,2.9,0,0,1,2.426,1.137,5.126,5.126,0,0,1,.879,3.2Zm-2.258-.164a3.363,3.363,0,0,0-.406-1.871,1.374,1.374,0,0,0-1.211-.59,1.489,1.489,0,0,0-1.484.883v3.336a1.509,1.509,0,0,0,1.5.891,1.394,1.394,0,0,0,1.438-1.078A5.562,5.562,0,0,0,99.641-4.312Zm8.4-2.023a6.134,6.134,0,0,0-.812-.062,1.654,1.654,0,0,0-1.68.867V0h-2.258V-8.453h2.133l.063,1.008a2.092,2.092,0,0,1,1.883-1.164,2.366,2.366,0,0,1,.7.1ZM113.016.156a4.15,4.15,0,0,1-3.027-1.141,4.054,4.054,0,0,1-1.168-3.039v-.219a5.106,5.106,0,0,1,.492-2.277,3.612,3.612,0,0,1,1.395-1.547,3.914,3.914,0,0,1,2.059-.543,3.508,3.508,0,0,1,2.73,1.094,4.444,4.444,0,0,1,1,3.1v.922h-5.383a2.1,2.1,0,0,0,.66,1.328,2,2,0,0,0,1.395.5,2.437,2.437,0,0,0,2.039-.945l1.109,1.242a3.389,3.389,0,0,1-1.375,1.121A4.511,4.511,0,0,1,113.016.156Zm-.258-6.945a1.411,1.411,0,0,0-1.09.455,2.357,2.357,0,0,0-.535,1.3h3.141v-.181a1.681,1.681,0,0,0-.406-1.165A1.456,1.456,0,0,0,112.758-6.789Zm5.6,9.641-1.18-.617.281-.508A4.059,4.059,0,0,0,118-.172v-1.75h1.906L119.9-.359a4.059,4.059,0,0,1-.437,1.75A4.486,4.486,0,0,1,118.359,2.852Zm11.883-5.187a.727.727,0,0,0-.41-.652,4.659,4.659,0,0,0-1.316-.426Q125.5-4.047,125.5-5.977a2.323,2.323,0,0,1,.934-1.879,3.766,3.766,0,0,1,2.441-.754,4.053,4.053,0,0,1,2.574.758,2.388,2.388,0,0,1,.965,1.969h-2.258a1.092,1.092,0,0,0-.312-.8A1.322,1.322,0,0,0,128.867-7a1.351,1.351,0,0,0-.883.258.814.814,0,0,0-.312.656.7.7,0,0,0,.355.605,3.657,3.657,0,0,0,1.2.4,9.8,9.8,0,0,1,1.422.379,2.336,2.336,0,0,1,1.789,2.273,2.205,2.205,0,0,1-.992,1.871,4.28,4.28,0,0,1-2.562.715A4.47,4.47,0,0,1,127-.223,3.166,3.166,0,0,1,125.7-1.262a2.414,2.414,0,0,1-.469-1.426h2.141a1.179,1.179,0,0,0,.445.922,1.766,1.766,0,0,0,1.109.32,1.635,1.635,0,0,0,.98-.246A.766.766,0,0,0,130.242-2.336ZM137.781.156a4.15,4.15,0,0,1-3.027-1.141,4.054,4.054,0,0,1-1.168-3.039v-.219a5.106,5.106,0,0,1,.492-2.277,3.612,3.612,0,0,1,1.395-1.547,3.914,3.914,0,0,1,2.059-.543,3.508,3.508,0,0,1,2.73,1.094,4.444,4.444,0,0,1,1,3.1v.922h-5.383a2.1,2.1,0,0,0,.66,1.328,2,2,0,0,0,1.395.5,2.437,2.437,0,0,0,2.039-.945l1.109,1.242A3.389,3.389,0,0,1,139.7-.246,4.511,4.511,0,0,1,137.781.156Zm-.258-6.945a1.411,1.411,0,0,0-1.09.455,2.357,2.357,0,0,0-.535,1.3h3.141v-.181a1.681,1.681,0,0,0-.406-1.165A1.456,1.456,0,0,0,137.523-6.789Zm4.664,2.5a5.094,5.094,0,0,1,.887-3.148A2.877,2.877,0,0,1,145.5-8.609a2.589,2.589,0,0,1,2.039.922V-12H149.8V0h-2.039l-.109-.9A2.657,2.657,0,0,1,145.484.156,2.869,2.869,0,0,1,143.09-1.02,5.258,5.258,0,0,1,142.188-4.289Zm2.258.168a3.337,3.337,0,0,0,.414,1.823,1.349,1.349,0,0,0,1.2.634,1.511,1.511,0,0,0,1.477-.884V-5.889a1.489,1.489,0,0,0-1.461-.884Q144.445-6.773,144.445-4.121ZM155.188-4.3a5.013,5.013,0,0,1,.484-2.242,3.546,3.546,0,0,1,1.395-1.523,4.069,4.069,0,0,1,2.113-.539,3.849,3.849,0,0,1,2.793,1.047,4.2,4.2,0,0,1,1.207,2.844l.016.578a4.418,4.418,0,0,1-1.086,3.121A3.775,3.775,0,0,1,159.2.156a3.793,3.793,0,0,1-2.918-1.172,4.5,4.5,0,0,1-1.09-3.187Zm2.258.16A3.16,3.16,0,0,0,157.9-2.3a1.5,1.5,0,0,0,1.3.638,1.5,1.5,0,0,0,1.281-.63,3.457,3.457,0,0,0,.461-2.015,3.128,3.128,0,0,0-.461-1.831,1.5,1.5,0,0,0-1.3-.649,1.474,1.474,0,0,0-1.281.646A3.516,3.516,0,0,0,157.445-4.144ZM.516,18.711A5.094,5.094,0,0,1,1.4,15.563a2.877,2.877,0,0,1,2.426-1.172,2.589,2.589,0,0,1,2.039.922V11H8.133V23H6.094l-.109-.9a2.657,2.657,0,0,1-2.172,1.055A2.869,2.869,0,0,1,1.418,21.98,5.258,5.258,0,0,1,.516,18.711Zm2.258.168A3.337,3.337,0,0,0,3.188,20.7a1.349,1.349,0,0,0,1.2.634,1.511,1.511,0,0,0,1.477-.884V17.111a1.489,1.489,0,0,0-1.461-.884Q2.773,16.227,2.773,18.879Zm11,4.277a4.15,4.15,0,0,1-3.027-1.141,4.054,4.054,0,0,1-1.168-3.039v-.219a5.106,5.106,0,0,1,.492-2.277,3.612,3.612,0,0,1,1.395-1.547,3.914,3.914,0,0,1,2.059-.543,3.508,3.508,0,0,1,2.73,1.094,4.444,4.444,0,0,1,1,3.1v.922H11.867a2.1,2.1,0,0,0,.66,1.328,2,2,0,0,0,1.395.5,2.437,2.437,0,0,0,2.039-.945l1.109,1.242A3.389,3.389,0,0,1,15.7,22.754,4.511,4.511,0,0,1,13.773,23.156Zm-.258-6.945a1.411,1.411,0,0,0-1.09.455,2.357,2.357,0,0,0-.535,1.3h3.141v-.181a1.681,1.681,0,0,0-.406-1.165A1.456,1.456,0,0,0,13.516,16.211Zm9.594,4.453a.727.727,0,0,0-.41-.652,4.659,4.659,0,0,0-1.316-.426q-3.016-.633-3.016-2.562a2.323,2.323,0,0,1,.934-1.879,3.766,3.766,0,0,1,2.441-.754,4.053,4.053,0,0,1,2.574.758,2.388,2.388,0,0,1,.965,1.969H23.023a1.092,1.092,0,0,0-.312-.8A1.322,1.322,0,0,0,21.734,16a1.351,1.351,0,0,0-.883.258.814.814,0,0,0-.312.656.7.7,0,0,0,.355.605,3.657,3.657,0,0,0,1.2.4,9.8,9.8,0,0,1,1.422.379A2.336,2.336,0,0,1,25.3,20.57a2.2,2.2,0,0,1-.992,1.871,4.28,4.28,0,0,1-2.562.715,4.47,4.47,0,0,1-1.887-.379,3.166,3.166,0,0,1-1.293-1.039,2.414,2.414,0,0,1-.469-1.426h2.141a1.179,1.179,0,0,0,.445.922,1.766,1.766,0,0,0,1.109.32,1.635,1.635,0,0,0,.98-.246A.766.766,0,0,0,23.109,20.664Zm5.727-6.117.07.977a2.951,2.951,0,0,1,2.43-1.133,2.453,2.453,0,0,1,2,.789,3.682,3.682,0,0,1,.672,2.359V23H31.75V17.594a1.465,1.465,0,0,0-.312-1.043,1.4,1.4,0,0,0-1.039-.324,1.553,1.553,0,0,0-1.43.813V23H26.711V14.547Zm11.945,7.594a2.831,2.831,0,0,1-2.312,1.016,2.67,2.67,0,0,1-2.074-.781,3.335,3.335,0,0,1-.73-2.289V14.547h2.258v5.467q0,1.322,1.2,1.322a1.63,1.63,0,0,0,1.578-.8V14.547h2.266V23H40.844Zm6.594-9.672v2.078H48.82V16.2H47.375v4.219a1.007,1.007,0,0,0,.18.672.9.9,0,0,0,.688.2,3.6,3.6,0,0,0,.664-.055v1.711a4.648,4.648,0,0,1-1.367.2,2.156,2.156,0,0,1-2.422-2.4V16.2H43.883V14.547h1.234V12.469Zm7.453,4.2a6.134,6.134,0,0,0-.812-.062,1.654,1.654,0,0,0-1.68.867V23H50.078V14.547h2.133l.063,1.008a2.092,2.092,0,0,1,1.883-1.164,2.366,2.366,0,0,1,.7.1ZM58.3,23H56.031V14.547H58.3ZM55.9,12.359a1.112,1.112,0,0,1,.34-.836,1.465,1.465,0,0,1,1.848,0,1.193,1.193,0,0,1,0,1.68,1.448,1.448,0,0,1-1.836,0A1.108,1.108,0,0,1,55.9,12.359Zm7.773,8.977a1.481,1.481,0,0,0,1.016-.344,1.2,1.2,0,0,0,.406-.914h2.117a2.9,2.9,0,0,1-.469,1.574,3.093,3.093,0,0,1-1.262,1.109,3.949,3.949,0,0,1-1.77.395A3.67,3.67,0,0,1,60.852,22,4.56,4.56,0,0,1,59.8,18.82v-.148a4.508,4.508,0,0,1,1.039-3.117A3.627,3.627,0,0,1,63.7,14.391a3.555,3.555,0,0,1,2.543.9,3.2,3.2,0,0,1,.973,2.4H65.094a1.551,1.551,0,0,0-.406-1.072,1.51,1.51,0,0,0-2.223.163,3.333,3.333,0,0,0-.4,1.866v.235a3.375,3.375,0,0,0,.4,1.878A1.377,1.377,0,0,0,63.672,21.336ZM70.883,23H68.617V14.547h2.266Zm-2.4-10.641a1.112,1.112,0,0,1,.34-.836,1.465,1.465,0,0,1,1.848,0,1.193,1.193,0,0,1,0,1.68,1.448,1.448,0,0,1-1.836,0A1.108,1.108,0,0,1,68.484,12.359ZM72.391,18.7a5.013,5.013,0,0,1,.484-2.242A3.546,3.546,0,0,1,74.27,14.93a4.069,4.069,0,0,1,2.113-.539,3.849,3.849,0,0,1,2.793,1.047,4.2,4.2,0,0,1,1.207,2.844l.016.578a4.418,4.418,0,0,1-1.086,3.121,4.209,4.209,0,0,1-5.832,0,4.5,4.5,0,0,1-1.09-3.187Zm2.258.16A3.16,3.16,0,0,0,75.1,20.7a1.628,1.628,0,0,0,2.578.008,3.457,3.457,0,0,0,.461-2.015,3.128,3.128,0,0,0-.461-1.831,1.5,1.5,0,0,0-1.3-.649,1.474,1.474,0,0,0-1.281.646A3.516,3.516,0,0,0,74.648,18.856ZM76.828,11h2.461l-2.164,2.422H75.289Zm7.039,3.547.07.977a2.951,2.951,0,0,1,2.43-1.133,2.453,2.453,0,0,1,2,.789,3.682,3.682,0,0,1,.672,2.359V23H86.781V17.594a1.465,1.465,0,0,0-.312-1.043,1.4,1.4,0,0,0-1.039-.324,1.553,1.553,0,0,0-1.43.813V23H81.742V14.547Z" transform="translate(381 6182)" fill="#12263f"/>
    <path id="Trazado_625460" data-name="Trazado 625460" d="M3.359-1.883H8.336V0H1.016V-11.375H3.359ZM11.914,0H9.648V-8.453h2.266Zm-2.4-10.641a1.112,1.112,0,0,1,.34-.836,1.277,1.277,0,0,1,.926-.328,1.28,1.28,0,0,1,.922.328,1.105,1.105,0,0,1,.344.836A1.108,1.108,0,0,1,11.7-9.8a1.283,1.283,0,0,1-.918.328A1.283,1.283,0,0,1,9.863-9.8,1.108,1.108,0,0,1,9.516-10.641ZM21.391-4.148A5.119,5.119,0,0,1,20.523-.98,2.872,2.872,0,0,1,18.1.156,2.639,2.639,0,0,1,15.906-.9l-.1.9H13.773V-12h2.258v4.3a2.571,2.571,0,0,1,2.055-.914,2.9,2.9,0,0,1,2.426,1.137,5.126,5.126,0,0,1,.879,3.2Zm-2.258-.164a3.363,3.363,0,0,0-.406-1.871,1.374,1.374,0,0,0-1.211-.59,1.489,1.489,0,0,0-1.484.883v3.336a1.509,1.509,0,0,0,1.5.891,1.394,1.394,0,0,0,1.438-1.078A5.562,5.562,0,0,0,19.133-4.312Zm8.4-2.023a6.134,6.134,0,0,0-.812-.062,1.654,1.654,0,0,0-1.68.867V0H22.781V-8.453h2.133l.063,1.008a2.092,2.092,0,0,1,1.883-1.164,2.366,2.366,0,0,1,.7.1ZM32.508.156A4.15,4.15,0,0,1,29.48-.984a4.054,4.054,0,0,1-1.168-3.039v-.219A5.106,5.106,0,0,1,28.8-6.52,3.612,3.612,0,0,1,30.2-8.066a3.914,3.914,0,0,1,2.059-.543,3.508,3.508,0,0,1,2.73,1.094,4.444,4.444,0,0,1,1,3.1v.922H30.6a2.1,2.1,0,0,0,.66,1.328,2,2,0,0,0,1.395.5A2.437,2.437,0,0,0,34.7-2.609L35.8-1.367A3.389,3.389,0,0,1,34.43-.246,4.511,4.511,0,0,1,32.508.156ZM32.25-6.789a1.411,1.411,0,0,0-1.09.455,2.357,2.357,0,0,0-.535,1.3h3.141v-.181a1.681,1.681,0,0,0-.406-1.165A1.456,1.456,0,0,0,32.25-6.789Zm8.648,2.5a5.094,5.094,0,0,1,.887-3.148,2.877,2.877,0,0,1,2.426-1.172,2.589,2.589,0,0,1,2.039.922V-12h2.266V0H46.477l-.109-.9A2.657,2.657,0,0,1,44.2.156,2.869,2.869,0,0,1,41.8-1.02,5.258,5.258,0,0,1,40.9-4.289Zm2.258.168A3.337,3.337,0,0,0,43.57-2.3a1.349,1.349,0,0,0,1.2.634,1.511,1.511,0,0,0,1.477-.884V-5.889a1.489,1.489,0,0,0-1.461-.884Q43.156-6.773,43.156-4.121Zm11,4.277A4.15,4.15,0,0,1,51.129-.984a4.054,4.054,0,0,1-1.168-3.039v-.219a5.106,5.106,0,0,1,.492-2.277,3.612,3.612,0,0,1,1.395-1.547,3.914,3.914,0,0,1,2.059-.543,3.508,3.508,0,0,1,2.73,1.094,4.444,4.444,0,0,1,1,3.1v.922H52.25a2.1,2.1,0,0,0,.66,1.328,2,2,0,0,0,1.395.5,2.437,2.437,0,0,0,2.039-.945l1.109,1.242A3.389,3.389,0,0,1,56.078-.246,4.511,4.511,0,0,1,54.156.156ZM53.9-6.789a1.411,1.411,0,0,0-1.09.455,2.357,2.357,0,0,0-.535,1.3h3.141v-.181a1.681,1.681,0,0,0-.406-1.165A1.456,1.456,0,0,0,53.9-6.789Zm11.7-3.742v2.078h1.445V-6.8H65.6v4.219a1.007,1.007,0,0,0,.18.672.9.9,0,0,0,.688.2,3.6,3.6,0,0,0,.664-.055V-.047a4.648,4.648,0,0,1-1.367.2,2.156,2.156,0,0,1-2.422-2.4V-6.8H62.109V-8.453h1.234v-2.078ZM72.2.156A4.15,4.15,0,0,1,69.168-.984,4.054,4.054,0,0,1,68-4.023v-.219a5.106,5.106,0,0,1,.492-2.277,3.612,3.612,0,0,1,1.395-1.547,3.914,3.914,0,0,1,2.059-.543,3.508,3.508,0,0,1,2.73,1.094,4.444,4.444,0,0,1,1,3.1v.922H70.289a2.1,2.1,0,0,0,.66,1.328,2,2,0,0,0,1.395.5,2.437,2.437,0,0,0,2.039-.945l1.109,1.242A3.389,3.389,0,0,1,74.117-.246,4.511,4.511,0,0,1,72.2.156Zm-.258-6.945a1.411,1.411,0,0,0-1.09.455,2.357,2.357,0,0,0-.535,1.3h3.141v-.181a1.681,1.681,0,0,0-.406-1.165A1.456,1.456,0,0,0,71.938-6.789ZM79.07-8.453l.07.945a2.971,2.971,0,0,1,2.43-1.1A2.255,2.255,0,0,1,83.813-7.32a2.9,2.9,0,0,1,2.539-1.289,2.521,2.521,0,0,1,2.047.8A3.681,3.681,0,0,1,89.07-5.4V0H86.8V-5.391a1.61,1.61,0,0,0-.281-1.051,1.246,1.246,0,0,0-.992-.332,1.409,1.409,0,0,0-1.406.969L84.133,0H81.875V-5.383a1.59,1.59,0,0,0-.289-1.062,1.259,1.259,0,0,0-.984-.328,1.463,1.463,0,0,0-1.391.8V0H76.953V-8.453ZM90.453-4.3a5.013,5.013,0,0,1,.484-2.242A3.546,3.546,0,0,1,92.332-8.07a4.069,4.069,0,0,1,2.113-.539,3.849,3.849,0,0,1,2.793,1.047,4.2,4.2,0,0,1,1.207,2.844l.016.578A4.418,4.418,0,0,1,97.375-1.02,3.775,3.775,0,0,1,94.461.156a3.793,3.793,0,0,1-2.918-1.172A4.5,4.5,0,0,1,90.453-4.2Zm2.258.16A3.16,3.16,0,0,0,93.164-2.3a1.5,1.5,0,0,0,1.3.638,1.5,1.5,0,0,0,1.281-.63A3.457,3.457,0,0,0,96.2-4.309a3.128,3.128,0,0,0-.461-1.831,1.5,1.5,0,0,0-1.3-.649,1.474,1.474,0,0,0-1.281.646A3.516,3.516,0,0,0,92.711-4.144ZM104.6-6.336a6.134,6.134,0,0,0-.812-.062,1.654,1.654,0,0,0-1.68.867V0H99.852V-8.453h2.133l.063,1.008a2.092,2.092,0,0,1,1.883-1.164,2.366,2.366,0,0,1,.7.1ZM109.32-4.3a5.013,5.013,0,0,1,.484-2.242A3.546,3.546,0,0,1,111.2-8.07a4.069,4.069,0,0,1,2.113-.539,3.849,3.849,0,0,1,2.793,1.047,4.2,4.2,0,0,1,1.207,2.844l.016.578a4.418,4.418,0,0,1-1.086,3.121A3.775,3.775,0,0,1,113.328.156a3.793,3.793,0,0,1-2.918-1.172A4.5,4.5,0,0,1,109.32-4.2Zm2.258.16a3.16,3.16,0,0,0,.453,1.843,1.5,1.5,0,0,0,1.3.638,1.5,1.5,0,0,0,1.281-.63,3.457,3.457,0,0,0,.461-2.015,3.128,3.128,0,0,0-.461-1.831,1.5,1.5,0,0,0-1.3-.649,1.474,1.474,0,0,0-1.281.646A3.516,3.516,0,0,0,111.578-4.144ZM5.766,23a2.507,2.507,0,0,1-.227-.758,2.732,2.732,0,0,1-2.133.914,3,3,0,0,1-2.059-.719,2.312,2.312,0,0,1-.816-1.812,2.389,2.389,0,0,1,1-2.062,4.915,4.915,0,0,1,2.879-.727H5.445v-.484a1.393,1.393,0,0,0-.3-.937,1.183,1.183,0,0,0-.949-.352,1.345,1.345,0,0,0-.895.273.929.929,0,0,0-.324.75H.719a2.268,2.268,0,0,1,.453-1.359,3,3,0,0,1,1.281-.98,4.669,4.669,0,0,1,1.859-.355,3.689,3.689,0,0,1,2.48.785,2.747,2.747,0,0,1,.918,2.207v3.664a4.041,4.041,0,0,0,.336,1.82V23ZM3.9,21.43a1.945,1.945,0,0,0,.922-.223,1.462,1.462,0,0,0,.625-.6V19.156H4.6q-1.7,0-1.8,1.172l-.008.133a.9.9,0,0,0,.3.7A1.153,1.153,0,0,0,3.9,21.43Zm7.625-6.883.07.977a2.951,2.951,0,0,1,2.43-1.133,2.453,2.453,0,0,1,2,.789,3.682,3.682,0,0,1,.672,2.359V23H14.438V17.594a1.465,1.465,0,0,0-.312-1.043,1.4,1.4,0,0,0-1.039-.324,1.553,1.553,0,0,0-1.43.813V23H9.4V14.547Zm6.555,4.164A4.954,4.954,0,0,1,19,15.578a3,3,0,0,1,2.5-1.187,2.631,2.631,0,0,1,2.164.953l.094-.8H25.8v8.172a3.613,3.613,0,0,1-.5,1.93,3.236,3.236,0,0,1-1.418,1.25,4.985,4.985,0,0,1-2.141.43,4.635,4.635,0,0,1-1.812-.371A3.217,3.217,0,0,1,18.594,25l1-1.375a2.645,2.645,0,0,0,2.047.945,1.936,1.936,0,0,0,1.4-.48,1.8,1.8,0,0,0,.5-1.363v-.453a2.612,2.612,0,0,1-2.055.883,2.992,2.992,0,0,1-2.465-1.191,4.953,4.953,0,0,1-.941-3.16Zm2.258.168a3.085,3.085,0,0,0,.461,1.8,1.466,1.466,0,0,0,1.266.653,1.568,1.568,0,0,0,1.477-.775V17a1.564,1.564,0,0,0-1.461-.775,1.476,1.476,0,0,0-1.277.665A3.477,3.477,0,0,0,20.336,18.879ZM32.6,22.141a2.831,2.831,0,0,1-2.312,1.016,2.67,2.67,0,0,1-2.074-.781,3.335,3.335,0,0,1-.73-2.289V14.547h2.258v5.467q0,1.322,1.2,1.322a1.63,1.63,0,0,0,1.578-.8V14.547h2.266V23H32.664Zm8.469-1.477a.727.727,0,0,0-.41-.652,4.659,4.659,0,0,0-1.316-.426q-3.016-.633-3.016-2.562a2.323,2.323,0,0,1,.934-1.879,3.766,3.766,0,0,1,2.441-.754,4.053,4.053,0,0,1,2.574.758,2.388,2.388,0,0,1,.965,1.969H40.984a1.092,1.092,0,0,0-.312-.8A1.322,1.322,0,0,0,39.7,16a1.351,1.351,0,0,0-.883.258.814.814,0,0,0-.312.656.7.7,0,0,0,.355.605,3.657,3.657,0,0,0,1.2.4,9.8,9.8,0,0,1,1.422.379,2.336,2.336,0,0,1,1.789,2.273,2.2,2.2,0,0,1-.992,1.871,4.28,4.28,0,0,1-2.562.715,4.47,4.47,0,0,1-1.887-.379,3.166,3.166,0,0,1-1.293-1.039,2.414,2.414,0,0,1-.469-1.426H38.2a1.179,1.179,0,0,0,.445.922,1.766,1.766,0,0,0,1.109.32,1.635,1.635,0,0,0,.98-.246A.766.766,0,0,0,41.07,20.664Zm6.352-8.2v2.078h1.445V16.2H47.422v4.219a1.007,1.007,0,0,0,.18.672.9.9,0,0,0,.688.2,3.6,3.6,0,0,0,.664-.055v1.711a4.648,4.648,0,0,1-1.367.2,2.156,2.156,0,0,1-2.422-2.4V16.2H43.93V14.547h1.234V12.469ZM52.508,23H50.242V14.547h2.266Zm-2.4-10.641a1.112,1.112,0,0,1,.34-.836,1.465,1.465,0,0,1,1.848,0,1.193,1.193,0,0,1,0,1.68,1.448,1.448,0,0,1-1.836,0A1.108,1.108,0,0,1,50.109,12.359ZM59.266,23a2.507,2.507,0,0,1-.227-.758,2.732,2.732,0,0,1-2.133.914,3,3,0,0,1-2.059-.719,2.312,2.312,0,0,1-.816-1.812,2.389,2.389,0,0,1,1-2.062,4.915,4.915,0,0,1,2.879-.727h1.039v-.484a1.393,1.393,0,0,0-.3-.937,1.183,1.183,0,0,0-.949-.352,1.345,1.345,0,0,0-.895.273.929.929,0,0,0-.324.75H54.219a2.268,2.268,0,0,1,.453-1.359,3,3,0,0,1,1.281-.98,4.669,4.669,0,0,1,1.859-.355,3.689,3.689,0,0,1,2.48.785,2.747,2.747,0,0,1,.918,2.207v3.664a4.041,4.041,0,0,0,.336,1.82V23ZM57.4,21.43a1.945,1.945,0,0,0,.922-.223,1.462,1.462,0,0,0,.625-.6V19.156H58.1q-1.7,0-1.8,1.172l-.008.133a.9.9,0,0,0,.3.7A1.153,1.153,0,0,0,57.4,21.43Z" transform="translate(1092.513 6231.879)" fill="#12263f"/>
    <path id="Trazado_620812" data-name="Trazado 620812" d="M-7717.513-5459.348l-41.257-98.886h-155.2" transform="translate(8376 11695.227)" fill="none" stroke="#4e545c" stroke-width="2" stroke-dasharray="5"/>
    <path id="Trazado_620813" data-name="Trazado 620813" d="M96.638,104.295a6.872,6.872,0,1,0,6.872-6.784,6.829,6.829,0,0,0-6.872,6.784" transform="translate(354.645 6032.698)" fill="#ffd83d" stroke="#ffb500" stroke-width="3"/>
    <path id="Trazado_620814" data-name="Trazado 620814" d="M-7598.278-5594.326l29.483-114.089h137.064" transform="translate(8376 11700)" fill="none" stroke="#4e545c" stroke-width="2" stroke-dasharray="5"/>
    <g transform="matrix(1, 0, 0, 1, 352, 5940)" filter="url(#Rectángulo_329166)">
      <path id="Rectángulo_329166-2" data-name="Rectángulo 329166" d="M0,0H245a20,20,0,0,1,20,20V87a0,0,0,0,1,0,0H0a0,0,0,0,1,0,0V0A0,0,0,0,1,0,0Z" transform="translate(605 6)" fill="#0d5daa"/>
    </g>
    <path id="Trazado_625459" data-name="Trazado 625459" d="M3.359-1.883H8.336V0H1.016V-11.375H3.359ZM11.914,0H9.648V-8.453h2.266Zm-2.4-10.641a1.112,1.112,0,0,1,.34-.836,1.277,1.277,0,0,1,.926-.328,1.28,1.28,0,0,1,.922.328,1.105,1.105,0,0,1,.344.836A1.108,1.108,0,0,1,11.7-9.8a1.283,1.283,0,0,1-.918.328A1.283,1.283,0,0,1,9.863-9.8,1.108,1.108,0,0,1,9.516-10.641ZM21.391-4.148A5.119,5.119,0,0,1,20.523-.98,2.872,2.872,0,0,1,18.1.156,2.639,2.639,0,0,1,15.906-.9l-.1.9H13.773V-12h2.258v4.3a2.571,2.571,0,0,1,2.055-.914,2.9,2.9,0,0,1,2.426,1.137,5.126,5.126,0,0,1,.879,3.2Zm-2.258-.164a3.363,3.363,0,0,0-.406-1.871,1.374,1.374,0,0,0-1.211-.59,1.489,1.489,0,0,0-1.484.883v3.336a1.509,1.509,0,0,0,1.5.891,1.394,1.394,0,0,0,1.438-1.078A5.562,5.562,0,0,0,19.133-4.312Zm8.4-2.023a6.134,6.134,0,0,0-.812-.062,1.654,1.654,0,0,0-1.68.867V0H22.781V-8.453h2.133l.063,1.008a2.092,2.092,0,0,1,1.883-1.164,2.366,2.366,0,0,1,.7.1ZM32.508.156A4.15,4.15,0,0,1,29.48-.984a4.054,4.054,0,0,1-1.168-3.039v-.219A5.106,5.106,0,0,1,28.8-6.52,3.612,3.612,0,0,1,30.2-8.066a3.914,3.914,0,0,1,2.059-.543,3.508,3.508,0,0,1,2.73,1.094,4.444,4.444,0,0,1,1,3.1v.922H30.6a2.1,2.1,0,0,0,.66,1.328,2,2,0,0,0,1.395.5A2.437,2.437,0,0,0,34.7-2.609L35.8-1.367A3.389,3.389,0,0,1,34.43-.246,4.511,4.511,0,0,1,32.508.156ZM32.25-6.789a1.411,1.411,0,0,0-1.09.455,2.357,2.357,0,0,0-.535,1.3h3.141v-.181a1.681,1.681,0,0,0-.406-1.165A1.456,1.456,0,0,0,32.25-6.789Zm8.648,2.5a5.094,5.094,0,0,1,.887-3.148,2.877,2.877,0,0,1,2.426-1.172,2.589,2.589,0,0,1,2.039.922V-12h2.266V0H46.477l-.109-.9A2.657,2.657,0,0,1,44.2.156,2.869,2.869,0,0,1,41.8-1.02,5.258,5.258,0,0,1,40.9-4.289Zm2.258.168A3.337,3.337,0,0,0,43.57-2.3a1.349,1.349,0,0,0,1.2.634,1.511,1.511,0,0,0,1.477-.884V-5.889a1.489,1.489,0,0,0-1.461-.884Q43.156-6.773,43.156-4.121Zm11,4.277A4.15,4.15,0,0,1,51.129-.984a4.054,4.054,0,0,1-1.168-3.039v-.219a5.106,5.106,0,0,1,.492-2.277,3.612,3.612,0,0,1,1.395-1.547,3.914,3.914,0,0,1,2.059-.543,3.508,3.508,0,0,1,2.73,1.094,4.444,4.444,0,0,1,1,3.1v.922H52.25a2.1,2.1,0,0,0,.66,1.328,2,2,0,0,0,1.395.5,2.437,2.437,0,0,0,2.039-.945l1.109,1.242A3.389,3.389,0,0,1,56.078-.246,4.511,4.511,0,0,1,54.156.156ZM53.9-6.789a1.411,1.411,0,0,0-1.09.455,2.357,2.357,0,0,0-.535,1.3h3.141v-.181a1.681,1.681,0,0,0-.406-1.165A1.456,1.456,0,0,0,53.9-6.789ZM65.281,0H63.016V-8.453h2.266Zm-2.4-10.641a1.112,1.112,0,0,1,.34-.836,1.277,1.277,0,0,1,.926-.328,1.28,1.28,0,0,1,.922.328,1.105,1.105,0,0,1,.344.836,1.108,1.108,0,0,1-.348.844,1.283,1.283,0,0,1-.918.328A1.283,1.283,0,0,1,63.23-9.8,1.108,1.108,0,0,1,62.883-10.641Zm6.375,2.188.07.945a2.971,2.971,0,0,1,2.43-1.1A2.255,2.255,0,0,1,74-7.32a2.9,2.9,0,0,1,2.539-1.289,2.521,2.521,0,0,1,2.047.8,3.681,3.681,0,0,1,.672,2.41V0H76.992V-5.391a1.61,1.61,0,0,0-.281-1.051,1.246,1.246,0,0,0-.992-.332,1.409,1.409,0,0,0-1.406.969L74.32,0H72.063V-5.383a1.59,1.59,0,0,0-.289-1.062,1.259,1.259,0,0,0-.984-.328,1.463,1.463,0,0,0-1.391.8V0H67.141V-8.453ZM88.6-4.148a5.07,5.07,0,0,1-.887,3.129A2.843,2.843,0,0,1,85.32.156a2.633,2.633,0,0,1-2.07-.891V3.25H80.992v-11.7h2.094l.078.828A2.654,2.654,0,0,1,85.3-8.609a2.862,2.862,0,0,1,2.43,1.156A5.207,5.207,0,0,1,88.6-4.266Zm-2.258-.164a3.327,3.327,0,0,0-.418-1.82,1.361,1.361,0,0,0-1.215-.641,1.478,1.478,0,0,0-1.461.813V-2.5a1.5,1.5,0,0,0,1.477.836Q86.344-1.664,86.344-4.312ZM93.891.156A4.15,4.15,0,0,1,90.863-.984,4.054,4.054,0,0,1,89.7-4.023v-.219a5.106,5.106,0,0,1,.492-2.277,3.612,3.612,0,0,1,1.395-1.547,3.914,3.914,0,0,1,2.059-.543,3.508,3.508,0,0,1,2.73,1.094,4.444,4.444,0,0,1,1,3.1v.922H91.984a2.1,2.1,0,0,0,.66,1.328,2,2,0,0,0,1.395.5,2.437,2.437,0,0,0,2.039-.945l1.109,1.242A3.389,3.389,0,0,1,95.813-.246,4.511,4.511,0,0,1,93.891.156Zm-.258-6.945a1.411,1.411,0,0,0-1.09.455,2.357,2.357,0,0,0-.535,1.3h3.141v-.181a1.681,1.681,0,0,0-.406-1.165A1.456,1.456,0,0,0,93.633-6.789Zm4.664,2.5a5.094,5.094,0,0,1,.887-3.148,2.877,2.877,0,0,1,2.426-1.172,2.589,2.589,0,0,1,2.039.922V-12h2.266V0h-2.039l-.109-.9A2.657,2.657,0,0,1,101.594.156,2.869,2.869,0,0,1,99.2-1.02,5.258,5.258,0,0,1,98.3-4.289Zm2.258.168a3.337,3.337,0,0,0,.414,1.823,1.349,1.349,0,0,0,1.2.634,1.511,1.511,0,0,0,1.477-.884V-5.889a1.489,1.489,0,0,0-1.461-.884Q100.555-6.773,100.555-4.121ZM110.047,0h-2.266V-8.453h2.266Zm-2.4-10.641a1.112,1.112,0,0,1,.34-.836,1.277,1.277,0,0,1,.926-.328,1.28,1.28,0,0,1,.922.328,1.105,1.105,0,0,1,.344.836,1.108,1.108,0,0,1-.348.844,1.283,1.283,0,0,1-.918.328A1.283,1.283,0,0,1,108-9.8,1.108,1.108,0,0,1,107.648-10.641Zm6.375,2.188.07.945a2.971,2.971,0,0,1,2.43-1.1,2.255,2.255,0,0,1,2.242,1.289A2.9,2.9,0,0,1,121.3-8.609a2.521,2.521,0,0,1,2.047.8,3.681,3.681,0,0,1,.672,2.41V0h-2.266V-5.391a1.61,1.61,0,0,0-.281-1.051,1.246,1.246,0,0,0-.992-.332,1.409,1.409,0,0,0-1.406.969l.008,5.8h-2.258V-5.383a1.59,1.59,0,0,0-.289-1.062,1.259,1.259,0,0,0-.984-.328,1.463,1.463,0,0,0-1.391.8V0h-2.258V-8.453ZM128.141,0h-2.266V-8.453h2.266Zm-2.4-10.641a1.112,1.112,0,0,1,.34-.836,1.277,1.277,0,0,1,.926-.328,1.28,1.28,0,0,1,.922.328,1.105,1.105,0,0,1,.344.836,1.109,1.109,0,0,1-.348.844,1.283,1.283,0,0,1-.918.328,1.283,1.283,0,0,1-.918-.328A1.108,1.108,0,0,1,125.742-10.641Zm8.148,10.8a4.15,4.15,0,0,1-3.027-1.141A4.054,4.054,0,0,1,129.7-4.023v-.219a5.106,5.106,0,0,1,.492-2.277,3.612,3.612,0,0,1,1.395-1.547,3.914,3.914,0,0,1,2.059-.543,3.508,3.508,0,0,1,2.73,1.094,4.444,4.444,0,0,1,1,3.1v.922h-5.383a2.1,2.1,0,0,0,.66,1.328,2,2,0,0,0,1.395.5,2.437,2.437,0,0,0,2.039-.945l1.109,1.242a3.389,3.389,0,0,1-1.375,1.121A4.511,4.511,0,0,1,133.891.156Zm-.258-6.945a1.411,1.411,0,0,0-1.09.455,2.357,2.357,0,0,0-.535,1.3h3.141v-.181a1.681,1.681,0,0,0-.406-1.165A1.456,1.456,0,0,0,133.633-6.789Zm7.094-1.664.07.977a2.951,2.951,0,0,1,2.43-1.133,2.453,2.453,0,0,1,2,.789,3.682,3.682,0,0,1,.672,2.359V0h-2.258V-5.406a1.465,1.465,0,0,0-.312-1.043,1.4,1.4,0,0,0-1.039-.324,1.553,1.553,0,0,0-1.43.813V0H138.6V-8.453Zm9.586-2.078v2.078h1.445V-6.8h-1.445v4.219a1.007,1.007,0,0,0,.18.672.9.9,0,0,0,.688.2,3.6,3.6,0,0,0,.664-.055V-.047a4.648,4.648,0,0,1-1.367.2,2.156,2.156,0,0,1-2.422-2.4V-6.8H146.82V-8.453h1.234v-2.078ZM152.43-4.3a5.013,5.013,0,0,1,.484-2.242,3.546,3.546,0,0,1,1.395-1.523,4.069,4.069,0,0,1,2.113-.539,3.849,3.849,0,0,1,2.793,1.047,4.2,4.2,0,0,1,1.207,2.844l.016.578a4.418,4.418,0,0,1-1.086,3.121A3.775,3.775,0,0,1,156.438.156a3.793,3.793,0,0,1-2.918-1.172A4.5,4.5,0,0,1,152.43-4.2Zm2.258.16a3.16,3.16,0,0,0,.453,1.843,1.5,1.5,0,0,0,1.3.638,1.5,1.5,0,0,0,1.281-.63,3.457,3.457,0,0,0,.461-2.015,3.128,3.128,0,0,0-.461-1.831,1.5,1.5,0,0,0-1.3-.649,1.474,1.474,0,0,0-1.281.646A3.516,3.516,0,0,0,154.688-4.144Zm11.719,1.808a.727.727,0,0,0-.41-.652,4.659,4.659,0,0,0-1.316-.426q-3.016-.633-3.016-2.562a2.323,2.323,0,0,1,.934-1.879,3.766,3.766,0,0,1,2.441-.754,4.053,4.053,0,0,1,2.574.758,2.388,2.388,0,0,1,.965,1.969H166.32a1.092,1.092,0,0,0-.312-.8A1.322,1.322,0,0,0,165.031-7a1.351,1.351,0,0,0-.883.258.814.814,0,0,0-.312.656.7.7,0,0,0,.355.605,3.657,3.657,0,0,0,1.2.4,9.8,9.8,0,0,1,1.422.379A2.336,2.336,0,0,1,168.6-2.43a2.205,2.205,0,0,1-.992,1.871,4.28,4.28,0,0,1-2.562.715,4.47,4.47,0,0,1-1.887-.379,3.166,3.166,0,0,1-1.293-1.039,2.414,2.414,0,0,1-.469-1.426h2.141a1.179,1.179,0,0,0,.445.922,1.766,1.766,0,0,0,1.109.32,1.635,1.635,0,0,0,.98-.246A.766.766,0,0,0,166.406-2.336Zm15.242-1.812a5.07,5.07,0,0,1-.887,3.129A2.843,2.843,0,0,1,178.367.156a2.633,2.633,0,0,1-2.07-.891V3.25h-2.258v-11.7h2.094l.078.828a2.654,2.654,0,0,1,2.141-.984,2.862,2.862,0,0,1,2.43,1.156,5.207,5.207,0,0,1,.867,3.188Zm-2.258-.164a3.327,3.327,0,0,0-.418-1.82,1.361,1.361,0,0,0-1.215-.641,1.479,1.479,0,0,0-1.461.813V-2.5a1.5,1.5,0,0,0,1.477.836Q179.391-1.664,179.391-4.312ZM187.945,0a2.507,2.507,0,0,1-.227-.758,2.732,2.732,0,0,1-2.133.914,3,3,0,0,1-2.059-.719,2.312,2.312,0,0,1-.816-1.812,2.389,2.389,0,0,1,1-2.062,4.915,4.915,0,0,1,2.879-.727h1.039v-.484a1.393,1.393,0,0,0-.3-.937,1.183,1.183,0,0,0-.949-.352,1.345,1.345,0,0,0-.895.273.929.929,0,0,0-.324.75H182.9a2.268,2.268,0,0,1,.453-1.359,3,3,0,0,1,1.281-.98,4.669,4.669,0,0,1,1.859-.355,3.689,3.689,0,0,1,2.48.785,2.747,2.747,0,0,1,.918,2.207v3.664a4.041,4.041,0,0,0,.336,1.82V0Zm-1.867-1.57A1.945,1.945,0,0,0,187-1.793a1.462,1.462,0,0,0,.625-.6V-3.844h-.844q-1.7,0-1.8,1.172l-.008.133a.9.9,0,0,0,.3.7A1.153,1.153,0,0,0,186.078-1.57Zm10.3-4.766a6.134,6.134,0,0,0-.812-.062,1.654,1.654,0,0,0-1.68.867V0h-2.258V-8.453h2.133l.063,1.008A2.092,2.092,0,0,1,195.7-8.609a2.366,2.366,0,0,1,.7.1ZM202.125,0a2.507,2.507,0,0,1-.227-.758,2.732,2.732,0,0,1-2.133.914,3,3,0,0,1-2.059-.719,2.312,2.312,0,0,1-.816-1.812,2.389,2.389,0,0,1,1-2.062,4.915,4.915,0,0,1,2.879-.727H201.8v-.484a1.393,1.393,0,0,0-.3-.937,1.183,1.183,0,0,0-.949-.352,1.345,1.345,0,0,0-.895.273.929.929,0,0,0-.324.75h-2.258a2.268,2.268,0,0,1,.453-1.359,3,3,0,0,1,1.281-.98,4.669,4.669,0,0,1,1.859-.355,3.689,3.689,0,0,1,2.48.785,2.747,2.747,0,0,1,.918,2.207v3.664a4.041,4.041,0,0,0,.336,1.82V0Zm-1.867-1.57a1.945,1.945,0,0,0,.922-.223,1.462,1.462,0,0,0,.625-.6V-3.844h-.844q-1.7,0-1.8,1.172l-.008.133a.9.9,0,0,0,.3.7A1.153,1.153,0,0,0,200.258-1.57ZM2.984,14.547l.07.945a2.971,2.971,0,0,1,2.43-1.1A2.255,2.255,0,0,1,7.727,15.68a2.9,2.9,0,0,1,2.539-1.289,2.521,2.521,0,0,1,2.047.8,3.681,3.681,0,0,1,.672,2.41V23H10.719V17.609a1.61,1.61,0,0,0-.281-1.051,1.246,1.246,0,0,0-.992-.332,1.409,1.409,0,0,0-1.406.969L8.047,23H5.789V17.617A1.59,1.59,0,0,0,5.5,16.555a1.259,1.259,0,0,0-.984-.328,1.463,1.463,0,0,0-1.391.8V23H.867V14.547ZM19.617,23a2.507,2.507,0,0,1-.227-.758,2.732,2.732,0,0,1-2.133.914,3,3,0,0,1-2.059-.719,2.312,2.312,0,0,1-.816-1.812,2.389,2.389,0,0,1,1-2.062,4.915,4.915,0,0,1,2.879-.727H19.3v-.484a1.393,1.393,0,0,0-.3-.937,1.183,1.183,0,0,0-.949-.352,1.345,1.345,0,0,0-.895.273.929.929,0,0,0-.324.75H14.57a2.268,2.268,0,0,1,.453-1.359,3,3,0,0,1,1.281-.98,4.669,4.669,0,0,1,1.859-.355,3.689,3.689,0,0,1,2.48.785,2.747,2.747,0,0,1,.918,2.207v3.664a4.041,4.041,0,0,0,.336,1.82V23ZM17.75,21.43a1.945,1.945,0,0,0,.922-.223,1.462,1.462,0,0,0,.625-.6V19.156h-.844q-1.7,0-1.8,1.172l-.008.133a.9.9,0,0,0,.3.7A1.153,1.153,0,0,0,17.75,21.43Zm7.625-6.883.07.977a2.951,2.951,0,0,1,2.43-1.133,2.453,2.453,0,0,1,2,.789,3.682,3.682,0,0,1,.672,2.359V23H28.289V17.594a1.465,1.465,0,0,0-.312-1.043,1.4,1.4,0,0,0-1.039-.324,1.553,1.553,0,0,0-1.43.813V23H23.25V14.547ZM34.641,23H32.375V14.547h2.266Zm-2.4-10.641a1.112,1.112,0,0,1,.34-.836,1.465,1.465,0,0,1,1.848,0,1.193,1.193,0,0,1,0,1.68,1.448,1.448,0,0,1-1.836,0A1.108,1.108,0,0,1,32.242,12.359ZM37.117,23V16.2H35.859V14.547h1.258v-.719a2.918,2.918,0,0,1,.816-2.207,3.162,3.162,0,0,1,2.285-.785,5.278,5.278,0,0,1,1.148.156l-.023,1.75a2.878,2.878,0,0,0-.687-.07q-1.273,0-1.273,1.2v.68h1.68V16.2h-1.68V23Zm9.008.156A4.15,4.15,0,0,1,43.1,22.016a4.054,4.054,0,0,1-1.168-3.039v-.219a5.106,5.106,0,0,1,.492-2.277,3.612,3.612,0,0,1,1.395-1.547,3.914,3.914,0,0,1,2.059-.543,3.508,3.508,0,0,1,2.73,1.094,4.444,4.444,0,0,1,1,3.1v.922H44.219a2.1,2.1,0,0,0,.66,1.328,2,2,0,0,0,1.395.5,2.437,2.437,0,0,0,2.039-.945l1.109,1.242a3.389,3.389,0,0,1-1.375,1.121A4.511,4.511,0,0,1,46.125,23.156Zm-.258-6.945a1.411,1.411,0,0,0-1.09.455,2.357,2.357,0,0,0-.535,1.3h3.141v-.181a1.681,1.681,0,0,0-.406-1.165A1.456,1.456,0,0,0,45.867,16.211Zm9.594,4.453a.727.727,0,0,0-.41-.652,4.659,4.659,0,0,0-1.316-.426q-3.016-.633-3.016-2.562a2.323,2.323,0,0,1,.934-1.879,3.766,3.766,0,0,1,2.441-.754,4.053,4.053,0,0,1,2.574.758,2.388,2.388,0,0,1,.965,1.969H55.375a1.092,1.092,0,0,0-.312-.8A1.322,1.322,0,0,0,54.086,16a1.351,1.351,0,0,0-.883.258.814.814,0,0,0-.312.656.7.7,0,0,0,.355.605,3.657,3.657,0,0,0,1.2.4,9.8,9.8,0,0,1,1.422.379,2.336,2.336,0,0,1,1.789,2.273,2.2,2.2,0,0,1-.992,1.871,4.28,4.28,0,0,1-2.562.715,4.47,4.47,0,0,1-1.887-.379,3.166,3.166,0,0,1-1.293-1.039,2.414,2.414,0,0,1-.469-1.426h2.141a1.179,1.179,0,0,0,.445.922,1.766,1.766,0,0,0,1.109.32,1.635,1.635,0,0,0,.98-.246A.766.766,0,0,0,55.461,20.664Zm6.352-8.2v2.078h1.445V16.2H61.813v4.219a1.007,1.007,0,0,0,.18.672.9.9,0,0,0,.688.2,3.6,3.6,0,0,0,.664-.055v1.711a4.648,4.648,0,0,1-1.367.2,2.156,2.156,0,0,1-2.422-2.4V16.2H58.32V14.547h1.234V12.469ZM69.414,23a2.507,2.507,0,0,1-.227-.758,2.732,2.732,0,0,1-2.133.914A3,3,0,0,1,65,22.438a2.312,2.312,0,0,1-.816-1.812,2.389,2.389,0,0,1,1-2.062,4.915,4.915,0,0,1,2.879-.727h1.039v-.484a1.393,1.393,0,0,0-.3-.937,1.183,1.183,0,0,0-.949-.352,1.345,1.345,0,0,0-.895.273.929.929,0,0,0-.324.75H64.367a2.268,2.268,0,0,1,.453-1.359,3,3,0,0,1,1.281-.98,4.669,4.669,0,0,1,1.859-.355,3.689,3.689,0,0,1,2.48.785,2.747,2.747,0,0,1,.918,2.207v3.664a4.041,4.041,0,0,0,.336,1.82V23Zm-1.867-1.57a1.945,1.945,0,0,0,.922-.223,1.462,1.462,0,0,0,.625-.6V19.156H68.25q-1.7,0-1.8,1.172l-.008.133a.9.9,0,0,0,.3.7A1.153,1.153,0,0,0,67.547,21.43Zm10.3-4.766a6.134,6.134,0,0,0-.812-.062,1.654,1.654,0,0,0-1.68.867V23H73.094V14.547h2.133l.063,1.008a2.092,2.092,0,0,1,1.883-1.164,2.366,2.366,0,0,1,.7.1Zm9.648,4a.727.727,0,0,0-.41-.652,4.659,4.659,0,0,0-1.316-.426q-3.016-.633-3.016-2.562a2.323,2.323,0,0,1,.934-1.879,3.766,3.766,0,0,1,2.441-.754,4.053,4.053,0,0,1,2.574.758,2.388,2.388,0,0,1,.965,1.969H87.406a1.092,1.092,0,0,0-.312-.8A1.322,1.322,0,0,0,86.117,16a1.351,1.351,0,0,0-.883.258.814.814,0,0,0-.312.656.7.7,0,0,0,.355.605,3.657,3.657,0,0,0,1.2.4A9.8,9.8,0,0,1,87.9,18.3a2.336,2.336,0,0,1,1.789,2.273,2.2,2.2,0,0,1-.992,1.871,4.28,4.28,0,0,1-2.562.715,4.47,4.47,0,0,1-1.887-.379,3.166,3.166,0,0,1-1.293-1.039,2.414,2.414,0,0,1-.469-1.426h2.141a1.179,1.179,0,0,0,.445.922,1.766,1.766,0,0,0,1.109.32,1.635,1.635,0,0,0,.98-.246A.766.766,0,0,0,87.492,20.664ZM96.2,22.141a2.831,2.831,0,0,1-2.312,1.016,2.67,2.67,0,0,1-2.074-.781,3.335,3.335,0,0,1-.73-2.289V14.547h2.258v5.467q0,1.322,1.2,1.322a1.63,1.63,0,0,0,1.578-.8V14.547h2.266V23H96.266Zm11.391-.8a1.481,1.481,0,0,0,1.016-.344,1.2,1.2,0,0,0,.406-.914h2.117a2.9,2.9,0,0,1-.469,1.574,3.093,3.093,0,0,1-1.262,1.109,3.949,3.949,0,0,1-1.77.395A3.67,3.67,0,0,1,104.773,22a4.56,4.56,0,0,1-1.047-3.184v-.148a4.508,4.508,0,0,1,1.039-3.117,3.627,3.627,0,0,1,2.852-1.164,3.555,3.555,0,0,1,2.543.9,3.2,3.2,0,0,1,.973,2.4h-2.117a1.551,1.551,0,0,0-.406-1.072,1.51,1.51,0,0,0-2.223.163,3.333,3.333,0,0,0-.4,1.866v.235a3.375,3.375,0,0,0,.4,1.878A1.377,1.377,0,0,0,107.594,21.336ZM112.07,18.7a5.013,5.013,0,0,1,.484-2.242,3.546,3.546,0,0,1,1.395-1.523,4.069,4.069,0,0,1,2.113-.539,3.849,3.849,0,0,1,2.793,1.047,4.2,4.2,0,0,1,1.207,2.844l.016.578a4.418,4.418,0,0,1-1.086,3.121,4.209,4.209,0,0,1-5.832,0,4.5,4.5,0,0,1-1.09-3.187Zm2.258.16a3.16,3.16,0,0,0,.453,1.843,1.628,1.628,0,0,0,2.578.008,3.457,3.457,0,0,0,.461-2.015,3.128,3.128,0,0,0-.461-1.831,1.5,1.5,0,0,0-1.3-.649,1.474,1.474,0,0,0-1.281.646A3.516,3.516,0,0,0,114.328,18.856Zm9.258-4.309.07.945a2.971,2.971,0,0,1,2.43-1.1,2.255,2.255,0,0,1,2.242,1.289,2.9,2.9,0,0,1,2.539-1.289,2.521,2.521,0,0,1,2.047.8,3.681,3.681,0,0,1,.672,2.41V23H131.32V17.609a1.61,1.61,0,0,0-.281-1.051,1.246,1.246,0,0,0-.992-.332,1.409,1.409,0,0,0-1.406.969l.008,5.8h-2.258V17.617a1.59,1.59,0,0,0-.289-1.062,1.259,1.259,0,0,0-.984-.328,1.463,1.463,0,0,0-1.391.8V23h-2.258V14.547Zm19.344,4.3a5.07,5.07,0,0,1-.887,3.129,2.843,2.843,0,0,1-2.395,1.176,2.633,2.633,0,0,1-2.07-.891V26.25H135.32v-11.7h2.094l.078.828a2.654,2.654,0,0,1,2.141-.984,2.862,2.862,0,0,1,2.43,1.156,5.207,5.207,0,0,1,.867,3.188Zm-2.258-.164a3.327,3.327,0,0,0-.418-1.82,1.361,1.361,0,0,0-1.215-.641,1.479,1.479,0,0,0-1.461.813V20.5a1.5,1.5,0,0,0,1.477.836Q140.672,21.336,140.672,18.688Zm3.3.008a5.013,5.013,0,0,1,.484-2.242,3.546,3.546,0,0,1,1.395-1.523,4.069,4.069,0,0,1,2.113-.539,3.849,3.849,0,0,1,2.793,1.047,4.2,4.2,0,0,1,1.207,2.844l.016.578A4.418,4.418,0,0,1,150.9,21.98a4.209,4.209,0,0,1-5.832,0,4.5,4.5,0,0,1-1.09-3.187Zm2.258.16a3.16,3.16,0,0,0,.453,1.843,1.628,1.628,0,0,0,2.578.008,3.457,3.457,0,0,0,.461-2.015,3.128,3.128,0,0,0-.461-1.831,1.5,1.5,0,0,0-1.3-.649,1.474,1.474,0,0,0-1.281.646A3.516,3.516,0,0,0,146.234,18.856Zm11.891-2.192a6.134,6.134,0,0,0-.812-.062,1.654,1.654,0,0,0-1.68.867V23h-2.258V14.547h2.133l.063,1.008a2.092,2.092,0,0,1,1.883-1.164,2.366,2.366,0,0,1,.7.1Zm4.18-4.2v2.078h1.445V16.2H162.3v4.219a1.007,1.007,0,0,0,.18.672.9.9,0,0,0,.688.2,3.6,3.6,0,0,0,.664-.055v1.711a4.648,4.648,0,0,1-1.367.2,2.156,2.156,0,0,1-2.422-2.4V16.2h-1.234V14.547h1.234V12.469ZM169.906,23a2.507,2.507,0,0,1-.227-.758,2.732,2.732,0,0,1-2.133.914,3,3,0,0,1-2.059-.719,2.312,2.312,0,0,1-.816-1.812,2.389,2.389,0,0,1,1-2.062,4.915,4.915,0,0,1,2.879-.727h1.039v-.484a1.393,1.393,0,0,0-.3-.937,1.183,1.183,0,0,0-.949-.352,1.345,1.345,0,0,0-.895.273.929.929,0,0,0-.324.75h-2.258a2.268,2.268,0,0,1,.453-1.359,3,3,0,0,1,1.281-.98,4.669,4.669,0,0,1,1.859-.355,3.689,3.689,0,0,1,2.48.785,2.747,2.747,0,0,1,.918,2.207v3.664a4.041,4.041,0,0,0,.336,1.82V23Zm-1.867-1.57a1.945,1.945,0,0,0,.922-.223,1.462,1.462,0,0,0,.625-.6V19.156h-.844q-1.7,0-1.8,1.172l-.008.133a.9.9,0,0,0,.3.7A1.153,1.153,0,0,0,168.039,21.43Zm7.664-6.883.07.945a2.971,2.971,0,0,1,2.43-1.1,2.255,2.255,0,0,1,2.242,1.289,2.9,2.9,0,0,1,2.539-1.289,2.521,2.521,0,0,1,2.047.8,3.681,3.681,0,0,1,.672,2.41V23h-2.266V17.609a1.61,1.61,0,0,0-.281-1.051,1.246,1.246,0,0,0-.992-.332,1.409,1.409,0,0,0-1.406.969l.008,5.8h-2.258V17.617a1.59,1.59,0,0,0-.289-1.062,1.259,1.259,0,0,0-.984-.328,1.463,1.463,0,0,0-1.391.8V23h-2.258V14.547ZM189.82,23h-2.266V14.547h2.266Zm-2.4-10.641a1.112,1.112,0,0,1,.34-.836,1.465,1.465,0,0,1,1.848,0,1.193,1.193,0,0,1,0,1.68,1.448,1.448,0,0,1-1.836,0A1.109,1.109,0,0,1,187.422,12.359Zm8.148,10.8a4.15,4.15,0,0,1-3.027-1.141,4.054,4.054,0,0,1-1.168-3.039v-.219a5.106,5.106,0,0,1,.492-2.277,3.612,3.612,0,0,1,1.395-1.547,3.914,3.914,0,0,1,2.059-.543,3.508,3.508,0,0,1,2.73,1.094,4.444,4.444,0,0,1,1,3.1v.922h-5.383a2.1,2.1,0,0,0,.66,1.328,2,2,0,0,0,1.395.5,2.437,2.437,0,0,0,2.039-.945l1.109,1.242a3.389,3.389,0,0,1-1.375,1.121A4.511,4.511,0,0,1,195.57,23.156Zm-.258-6.945a1.411,1.411,0,0,0-1.09.455,2.357,2.357,0,0,0-.535,1.3h3.141v-.181a1.681,1.681,0,0,0-.406-1.165A1.456,1.456,0,0,0,195.313,16.211Zm7.094-1.664.07.977a2.951,2.951,0,0,1,2.43-1.133,2.453,2.453,0,0,1,2,.789,3.682,3.682,0,0,1,.672,2.359V23H205.32V17.594a1.465,1.465,0,0,0-.312-1.043,1.4,1.4,0,0,0-1.039-.324,1.553,1.553,0,0,0-1.43.813V23h-2.258V14.547Zm9.586-2.078v2.078h1.445V16.2h-1.445v4.219a1.007,1.007,0,0,0,.18.672.9.9,0,0,0,.688.2,3.6,3.6,0,0,0,.664-.055v1.711a4.648,4.648,0,0,1-1.367.2,2.156,2.156,0,0,1-2.422-2.4V16.2H208.5V14.547h1.234V12.469Zm2.117,6.227a5.013,5.013,0,0,1,.484-2.242,3.546,3.546,0,0,1,1.395-1.523,4.069,4.069,0,0,1,2.113-.539,3.849,3.849,0,0,1,2.793,1.047,4.2,4.2,0,0,1,1.207,2.844l.016.578a4.418,4.418,0,0,1-1.086,3.121,4.209,4.209,0,0,1-5.832,0,4.5,4.5,0,0,1-1.09-3.187Zm2.258.16a3.16,3.16,0,0,0,.453,1.843,1.628,1.628,0,0,0,2.578.008,3.457,3.457,0,0,0,.461-2.015,3.128,3.128,0,0,0-.461-1.831,1.5,1.5,0,0,0-1.3-.649,1.474,1.474,0,0,0-1.281.646A3.516,3.516,0,0,0,216.367,18.856ZM2.945,37.547l.07.977a2.951,2.951,0,0,1,2.43-1.133,2.453,2.453,0,0,1,2,.789,3.682,3.682,0,0,1,.672,2.359V46H5.859V40.594a1.465,1.465,0,0,0-.312-1.043,1.4,1.4,0,0,0-1.039-.324,1.553,1.553,0,0,0-1.43.813V46H.82V37.547ZM14.727,46a2.507,2.507,0,0,1-.227-.758,2.732,2.732,0,0,1-2.133.914,3,3,0,0,1-2.059-.719,2.312,2.312,0,0,1-.816-1.812,2.389,2.389,0,0,1,1-2.062,4.915,4.915,0,0,1,2.879-.727h1.039v-.484a1.393,1.393,0,0,0-.3-.937,1.183,1.183,0,0,0-.949-.352,1.345,1.345,0,0,0-.895.273.929.929,0,0,0-.324.75H9.68a2.268,2.268,0,0,1,.453-1.359,3,3,0,0,1,1.281-.98,4.669,4.669,0,0,1,1.859-.355,3.689,3.689,0,0,1,2.48.785,2.747,2.747,0,0,1,.918,2.207v3.664a4.041,4.041,0,0,0,.336,1.82V46Zm-1.867-1.57a1.945,1.945,0,0,0,.922-.223,1.462,1.462,0,0,0,.625-.6V42.156h-.844q-1.7,0-1.8,1.172l-.008.133a.9.9,0,0,0,.3.7A1.153,1.153,0,0,0,12.859,44.43Zm8.25-8.961v2.078h1.445V39.2H21.109v4.219a1.007,1.007,0,0,0,.18.672.9.9,0,0,0,.688.2,3.6,3.6,0,0,0,.664-.055v1.711a4.648,4.648,0,0,1-1.367.2,2.156,2.156,0,0,1-2.422-2.4V39.2H17.617V37.547h1.234V35.469Zm7.766,9.672a2.831,2.831,0,0,1-2.312,1.016,2.67,2.67,0,0,1-2.074-.781,3.335,3.335,0,0,1-.73-2.289V37.547h2.258v5.467q0,1.322,1.2,1.322a1.63,1.63,0,0,0,1.578-.8V37.547h2.266V46H28.938Zm8.641-5.477A6.134,6.134,0,0,0,36.7,39.6a1.654,1.654,0,0,0-1.68.867V46H32.766V37.547H34.9l.063,1.008a2.092,2.092,0,0,1,1.883-1.164,2.366,2.366,0,0,1,.7.1ZM43.266,46a2.507,2.507,0,0,1-.227-.758,2.732,2.732,0,0,1-2.133.914,3,3,0,0,1-2.059-.719,2.312,2.312,0,0,1-.816-1.812,2.389,2.389,0,0,1,1-2.062,4.915,4.915,0,0,1,2.879-.727h1.039v-.484a1.393,1.393,0,0,0-.3-.937,1.183,1.183,0,0,0-.949-.352,1.345,1.345,0,0,0-.895.273.929.929,0,0,0-.324.75H38.219a2.268,2.268,0,0,1,.453-1.359,3,3,0,0,1,1.281-.98,4.669,4.669,0,0,1,1.859-.355,3.689,3.689,0,0,1,2.48.785,2.747,2.747,0,0,1,.918,2.207v3.664a4.041,4.041,0,0,0,.336,1.82V46ZM41.4,44.43a1.945,1.945,0,0,0,.922-.223,1.462,1.462,0,0,0,.625-.6V42.156H42.1q-1.7,0-1.8,1.172l-.008.133a.9.9,0,0,0,.3.7A1.153,1.153,0,0,0,41.4,44.43ZM49.328,46H47.063V34h2.266Z" transform="translate(976 5975)" fill="#fff"/>
    <path id="Trazado_620815" data-name="Trazado 620815" d="M-7464.181-5492l26.442,39.292h94.987" transform="translate(8393 11688.589)" fill="none" stroke="#707070" stroke-width="2" stroke-dasharray="5"/>
    <path id="Trazado_620816" data-name="Trazado 620816" d="M96.638,104.295a6.872,6.872,0,1,0,6.872-6.784,6.829,6.829,0,0,0-6.872,6.784" transform="translate(951.861 6131.584)" fill="#78b52e" stroke="#59891f" stroke-width="3"/>
    <path id="Trazado_620817" data-name="Trazado 620817" d="M96.638,104.295a6.872,6.872,0,1,0,6.872-6.784,6.829,6.829,0,0,0-6.872,6.784" transform="translate(841.76 5887.29)" fill="#0d5daa" stroke="#114270" stroke-width="3"/>
  </g>
</svg>
